G04*
G04 #@! TF.GenerationSoftware,Altium Limited,Altium Designer,21.4.1 (30)*
G04*
G04 Layer_Physical_Order=1*
G04 Layer_Color=255*
%FSLAX25Y25*%
%MOIN*%
G70*
G04*
G04 #@! TF.SameCoordinates,C77C1ACD-4D57-4A05-B96A-415324BACB4A*
G04*
G04*
G04 #@! TF.FilePolarity,Positive*
G04*
G01*
G75*
%ADD11C,0.00787*%
%ADD14R,0.04528X0.05315*%
%ADD15R,0.05512X0.05118*%
%ADD16R,0.05512X0.01181*%
%ADD17R,0.05118X0.05512*%
%ADD18R,0.09843X0.06693*%
%ADD19R,0.05315X0.04528*%
%ADD20R,0.06004X0.02559*%
G04:AMPARAMS|DCode=21|XSize=55.12mil|YSize=51.18mil|CornerRadius=0mil|HoleSize=0mil|Usage=FLASHONLY|Rotation=135.000|XOffset=0mil|YOffset=0mil|HoleType=Round|Shape=Rectangle|*
%AMROTATEDRECTD21*
4,1,4,0.03758,-0.00139,0.00139,-0.03758,-0.03758,0.00139,-0.00139,0.03758,0.03758,-0.00139,0.0*
%
%ADD21ROTATEDRECTD21*%

%ADD22O,0.06102X0.02362*%
%ADD23R,0.25197X0.22835*%
%ADD24R,0.08661X0.04724*%
G04:AMPARAMS|DCode=25|XSize=55.12mil|YSize=82.68mil|CornerRadius=13.78mil|HoleSize=0mil|Usage=FLASHONLY|Rotation=90.000|XOffset=0mil|YOffset=0mil|HoleType=Round|Shape=RoundedRectangle|*
%AMROUNDEDRECTD25*
21,1,0.05512,0.05512,0,0,90.0*
21,1,0.02756,0.08268,0,0,90.0*
1,1,0.02756,0.02756,0.01378*
1,1,0.02756,0.02756,-0.01378*
1,1,0.02756,-0.02756,-0.01378*
1,1,0.02756,-0.02756,0.01378*
%
%ADD25ROUNDEDRECTD25*%
%ADD26R,0.02559X0.06004*%
%ADD27R,0.03543X0.03150*%
%ADD49C,0.01181*%
%ADD50C,0.01968*%
%ADD51C,0.03937*%
%ADD52C,0.05906*%
%ADD53R,0.05906X0.05906*%
%ADD54C,0.04449*%
%ADD55R,0.04449X0.04449*%
%ADD56C,0.11811*%
%ADD57C,0.31496*%
%ADD58C,0.03150*%
G36*
X121101Y213462D02*
X121004Y213099D01*
Y212098D01*
X121263Y211132D01*
X121581Y210582D01*
X121292Y210082D01*
X118315D01*
X118026Y210582D01*
X118343Y211132D01*
X118602Y212098D01*
Y213099D01*
X118343Y214065D01*
X117843Y214931D01*
X117136Y215638D01*
X116270Y216139D01*
X115303Y216398D01*
X114303D01*
X113940Y216300D01*
X110662Y219578D01*
X110853Y220040D01*
X114523D01*
X121101Y213462D01*
D02*
G37*
G36*
X71101D02*
X71004Y213099D01*
Y212098D01*
X71263Y211132D01*
X71763Y210266D01*
X72470Y209558D01*
X73337Y209058D01*
X74303Y208799D01*
X75303D01*
X76270Y209058D01*
X77136Y209558D01*
X77843Y210266D01*
X78343Y211132D01*
X78570Y211979D01*
X79055Y212201D01*
X79978Y211278D01*
X80629Y210843D01*
X81398Y210690D01*
X81518D01*
X81763Y210266D01*
X82470Y209558D01*
X83337Y209058D01*
X84303Y208799D01*
X85303D01*
X86270Y209058D01*
X87136Y209558D01*
X87843Y210266D01*
X88343Y211132D01*
X88602Y212098D01*
Y213099D01*
X88343Y214065D01*
X87843Y214931D01*
X87565Y215210D01*
X87772Y215709D01*
X88854D01*
X91101Y213462D01*
X91004Y213099D01*
Y212098D01*
X91263Y211132D01*
X91763Y210266D01*
X92470Y209558D01*
X93337Y209058D01*
X94303Y208799D01*
X95303D01*
X96270Y209058D01*
X97136Y209558D01*
X97843Y210266D01*
X98343Y211132D01*
X98602Y212098D01*
Y213099D01*
X98353Y214028D01*
X98355Y214146D01*
X98576Y214528D01*
X100035D01*
X101101Y213462D01*
X101004Y213099D01*
Y212098D01*
X101263Y211132D01*
X101581Y210582D01*
X101353Y210112D01*
X101297Y210073D01*
X100494Y209914D01*
X99777Y209435D01*
X75443Y185100D01*
X75303Y185138D01*
X74303D01*
X74164Y185100D01*
X57011Y202253D01*
Y209486D01*
X57136Y209558D01*
X57843Y210266D01*
X58343Y211132D01*
X58602Y212098D01*
Y213099D01*
X58459Y213635D01*
X58842Y214135D01*
X60428D01*
X61101Y213462D01*
X61004Y213099D01*
Y212098D01*
X61263Y211132D01*
X61763Y210266D01*
X62470Y209558D01*
X63337Y209058D01*
X64303Y208799D01*
X65303D01*
X66270Y209058D01*
X67136Y209558D01*
X67843Y210266D01*
X68343Y211132D01*
X68602Y212098D01*
Y213099D01*
X68343Y214065D01*
X67843Y214931D01*
X67136Y215638D01*
X66515Y215997D01*
X66649Y216497D01*
X68066D01*
X71101Y213462D01*
D02*
G37*
G36*
X253497Y12581D02*
X252997Y12374D01*
X252298Y13073D01*
X251202Y13805D01*
X249984Y14310D01*
X248781Y14549D01*
Y7874D01*
X248031D01*
Y7124D01*
X241357D01*
X241596Y5922D01*
X242100Y4704D01*
X242833Y3607D01*
X243532Y2908D01*
X243325Y2409D01*
X235058D01*
X234867Y2870D01*
X238046Y6049D01*
X238456Y6583D01*
X238714Y7206D01*
X238802Y7874D01*
Y47075D01*
X238714Y47743D01*
X238682Y47820D01*
X239960Y48558D01*
X241761Y49940D01*
X243367Y51546D01*
X244749Y53347D01*
X245885Y55314D01*
X246754Y57412D01*
X247341Y59605D01*
X247580Y61418D01*
X247654Y61460D01*
X248102Y61550D01*
X248662Y60989D01*
X249250Y60746D01*
Y62992D01*
Y65238D01*
X248662Y64995D01*
X248102Y64434D01*
X247654Y64524D01*
X247580Y64566D01*
X247341Y66379D01*
X246754Y68572D01*
X245885Y70670D01*
X244749Y72637D01*
X243367Y74438D01*
X241761Y76044D01*
X239960Y77426D01*
X237993Y78562D01*
X235895Y79431D01*
X233702Y80019D01*
X231450Y80315D01*
X229180D01*
X226928Y80019D01*
X224735Y79431D01*
X222674Y78577D01*
X221127Y80123D01*
X221410Y80547D01*
X221691Y80431D01*
Y81927D01*
X220195D01*
X220311Y81647D01*
X219887Y81363D01*
X212975Y88275D01*
X213167Y88737D01*
X220739D01*
X225604Y83872D01*
X226321Y83393D01*
X227165Y83225D01*
X237402D01*
X238246Y83393D01*
X238963Y83872D01*
X248411Y93321D01*
X248890Y94037D01*
X249058Y94882D01*
Y168898D01*
X248890Y169743D01*
X248411Y170459D01*
X231876Y186994D01*
X231160Y187473D01*
X230315Y187641D01*
X222174D01*
X201027Y208788D01*
Y209404D01*
X201489Y209595D01*
X201644Y209440D01*
X202510Y208940D01*
X203476Y208681D01*
X204476D01*
X205443Y208940D01*
X206309Y209440D01*
X207016Y210148D01*
X207517Y211014D01*
X207775Y211980D01*
Y212981D01*
X207517Y213947D01*
X207016Y214813D01*
X206309Y215521D01*
X205983Y215709D01*
Y224370D01*
X205831Y225138D01*
X205396Y225789D01*
X205084Y226101D01*
X205315Y226963D01*
Y228155D01*
X205006Y229307D01*
X204410Y230339D01*
X203567Y231182D01*
X202535Y231778D01*
X201383Y232087D01*
X200191D01*
X199040Y231778D01*
X198007Y231182D01*
X197164Y230339D01*
X196568Y229307D01*
X196260Y228155D01*
Y226963D01*
X196568Y225812D01*
X197164Y224779D01*
X198007Y223936D01*
X199040Y223340D01*
X200191Y223032D01*
X201383D01*
X201573Y223082D01*
X201969Y222778D01*
Y215709D01*
X201644Y215521D01*
X201489Y215366D01*
X201027Y215557D01*
Y216142D01*
X200859Y216987D01*
X200380Y217703D01*
X197624Y220459D01*
X196908Y220937D01*
X196063Y221105D01*
X183465D01*
X182620Y220937D01*
X181903Y220459D01*
X179398Y217953D01*
X177416Y219935D01*
X176881Y220346D01*
X176259Y220603D01*
X175591Y220691D01*
X163386D01*
X162718Y220603D01*
X162095Y220346D01*
X161561Y219935D01*
X156728Y215102D01*
X156309Y215521D01*
X155443Y216021D01*
X154476Y216280D01*
X153476D01*
X152510Y216021D01*
X151644Y215521D01*
X150936Y214813D01*
X150864Y214688D01*
X146558D01*
X145713Y214520D01*
X144997Y214041D01*
X144305Y213350D01*
X143826Y212633D01*
X143702Y212008D01*
X141339D01*
Y210082D01*
X128314D01*
X128026Y210582D01*
X128343Y211132D01*
X128602Y212098D01*
Y213099D01*
X128343Y214065D01*
X127843Y214931D01*
X127136Y215638D01*
X126270Y216139D01*
X125303Y216398D01*
X124303D01*
X123940Y216300D01*
X116773Y223466D01*
X116122Y223902D01*
X115354Y224054D01*
X114418D01*
X114226Y224516D01*
X114489Y224779D01*
X115085Y225812D01*
X115394Y226963D01*
Y228155D01*
X115085Y229307D01*
X114489Y230339D01*
X113646Y231182D01*
X112614Y231778D01*
X111462Y232087D01*
X110270D01*
X109119Y231778D01*
X108086Y231182D01*
X107243Y230339D01*
X106647Y229307D01*
X106339Y228155D01*
Y226963D01*
X106647Y225812D01*
X107160Y224924D01*
X107034Y224493D01*
X106944Y224371D01*
X106901Y224362D01*
X105163Y226101D01*
X105394Y226963D01*
Y228155D01*
X105085Y229307D01*
X104489Y230339D01*
X103646Y231182D01*
X102614Y231778D01*
X101462Y232087D01*
X100270D01*
X99119Y231778D01*
X98086Y231182D01*
X97243Y230339D01*
X96647Y229307D01*
X96339Y228155D01*
Y226963D01*
X96647Y225812D01*
X97243Y224779D01*
X98086Y223936D01*
X99119Y223340D01*
X100270Y223032D01*
X101462D01*
X102324Y223263D01*
X103826Y221760D01*
X103635Y221298D01*
X99965D01*
X95163Y226101D01*
X95394Y226963D01*
Y228155D01*
X95085Y229307D01*
X94489Y230339D01*
X93646Y231182D01*
X92614Y231778D01*
X91462Y232087D01*
X90270D01*
X89119Y231778D01*
X88086Y231182D01*
X87243Y230339D01*
X86647Y229307D01*
X86339Y228155D01*
Y226963D01*
X86647Y225812D01*
X87160Y224924D01*
X87034Y224493D01*
X86944Y224371D01*
X86901Y224362D01*
X85163Y226101D01*
X85394Y226963D01*
Y228155D01*
X85085Y229307D01*
X84489Y230339D01*
X83646Y231182D01*
X82614Y231778D01*
X81462Y232087D01*
X80270D01*
X79119Y231778D01*
X78086Y231182D01*
X77243Y230339D01*
X76647Y229307D01*
X76339Y228155D01*
Y226963D01*
X76647Y225812D01*
X76957Y225275D01*
X76707Y224842D01*
X74069D01*
X73905Y225342D01*
X74351Y226115D01*
X74537Y226809D01*
X70866D01*
X67195D01*
X67381Y226115D01*
X67828Y225342D01*
X67663Y224842D01*
X65025D01*
X64775Y225275D01*
X65085Y225812D01*
X65394Y226963D01*
Y228155D01*
X65085Y229307D01*
X64489Y230339D01*
X63646Y231182D01*
X62614Y231778D01*
X61462Y232087D01*
X60270D01*
X59119Y231778D01*
X58086Y231182D01*
X57243Y230339D01*
X56647Y229307D01*
X56339Y228155D01*
Y226963D01*
X56647Y225812D01*
X56957Y225275D01*
X56707Y224842D01*
X55025D01*
X54775Y225275D01*
X55085Y225812D01*
X55394Y226963D01*
Y228155D01*
X55085Y229307D01*
X54489Y230339D01*
X53646Y231182D01*
X52614Y231778D01*
X51462Y232087D01*
X50270D01*
X49119Y231778D01*
X48086Y231182D01*
X47243Y230339D01*
X46647Y229307D01*
X46339Y228155D01*
Y226963D01*
X46647Y225812D01*
X46957Y225275D01*
X46707Y224842D01*
X45025D01*
X44775Y225275D01*
X45085Y225812D01*
X45394Y226963D01*
Y228155D01*
X45085Y229307D01*
X44489Y230339D01*
X43646Y231182D01*
X42614Y231778D01*
X41462Y232087D01*
X40270D01*
X39119Y231778D01*
X38086Y231182D01*
X37243Y230339D01*
X36647Y229307D01*
X36339Y228155D01*
Y226963D01*
X36647Y225812D01*
X37243Y224779D01*
X37953Y224069D01*
X37969Y223485D01*
X22990Y208506D01*
X22555Y207855D01*
X22539Y207774D01*
X11555D01*
Y207454D01*
X11476Y206986D01*
X10159D01*
Y203197D01*
Y199407D01*
X11337D01*
X11465Y198907D01*
X3896Y191339D01*
X3461Y190687D01*
X3308Y189919D01*
Y175394D01*
X3461Y174626D01*
X3896Y173975D01*
X5473Y172397D01*
Y155905D01*
X5626Y155137D01*
X6061Y154486D01*
X7442Y153106D01*
Y150689D01*
X5217D01*
Y143012D01*
Y136122D01*
X6868D01*
Y20079D01*
X6956Y19411D01*
X7214Y18788D01*
X7624Y18254D01*
X12330Y13548D01*
X12011Y13159D01*
X11044Y13805D01*
X9826Y14310D01*
X8624Y14549D01*
Y8624D01*
X14549D01*
X14310Y9826D01*
X13805Y11044D01*
X13159Y12011D01*
X13548Y12330D01*
X23007Y2870D01*
X22816Y2409D01*
X12581D01*
X12374Y2908D01*
X13073Y3607D01*
X13805Y4704D01*
X14310Y5922D01*
X14549Y7124D01*
X7874D01*
Y7874D01*
X7124D01*
Y14549D01*
X5922Y14310D01*
X4704Y13805D01*
X3607Y13073D01*
X2908Y12374D01*
X2409Y12581D01*
Y202212D01*
X2908Y202311D01*
X3115Y201812D01*
X3780Y201147D01*
X4368Y200903D01*
Y203150D01*
Y205396D01*
X3780Y205152D01*
X3115Y204488D01*
X2908Y203988D01*
X2409Y204087D01*
Y231514D01*
X2908Y231721D01*
X3607Y231022D01*
X4704Y230289D01*
X5922Y229785D01*
X7124Y229546D01*
Y236221D01*
X7874D01*
Y236970D01*
X14549D01*
X14310Y238173D01*
X13805Y239391D01*
X13073Y240487D01*
X12374Y241186D01*
X12581Y241686D01*
X253497D01*
Y12581D01*
D02*
G37*
G36*
X176553Y209004D02*
Y187447D01*
X174125Y185020D01*
X173476D01*
X172510Y184761D01*
X171798Y184350D01*
X171298Y184570D01*
Y206964D01*
X173113Y208779D01*
X173476Y208681D01*
X174477D01*
X175443Y208940D01*
X176053Y209292D01*
X176553Y209004D01*
D02*
G37*
G36*
X171152Y215029D02*
X170936Y214813D01*
X170436Y213947D01*
X170177Y212981D01*
Y211980D01*
X170274Y211617D01*
X167872Y209215D01*
X167437Y208563D01*
X167284Y207795D01*
Y183993D01*
X166784Y183785D01*
X166309Y184260D01*
X165443Y184761D01*
X164477Y185020D01*
X163476D01*
X162510Y184761D01*
X161644Y184260D01*
X161169Y183785D01*
X160669Y183993D01*
Y206334D01*
X163113Y208779D01*
X163476Y208681D01*
X164477D01*
X165443Y208940D01*
X166309Y209440D01*
X167016Y210148D01*
X167517Y211014D01*
X167775Y211980D01*
Y212981D01*
X167517Y213947D01*
X167016Y214813D01*
X166800Y215029D01*
X167008Y215529D01*
X170945D01*
X171152Y215029D01*
D02*
G37*
G36*
X41937Y220366D02*
X37990Y216419D01*
X37555Y215768D01*
X37402Y215000D01*
Y207774D01*
X28588D01*
X28397Y208236D01*
X40989Y220828D01*
X41745D01*
X41937Y220366D01*
D02*
G37*
G36*
X150936Y210148D02*
X151644Y209440D01*
X152510Y208940D01*
X153476Y208681D01*
X154476D01*
X155443Y208940D01*
X156309Y209440D01*
X156768Y209899D01*
X157756D01*
X157864Y209913D01*
X158097Y209440D01*
X157242Y208585D01*
X156807Y207933D01*
X156654Y207166D01*
Y185020D01*
X150177D01*
Y183228D01*
X146968D01*
X146200Y183075D01*
X145549Y182640D01*
X137951Y175041D01*
X137516Y174390D01*
X137363Y173622D01*
Y166382D01*
X136376Y165395D01*
X135941Y164744D01*
X135867Y164370D01*
X134449D01*
Y159487D01*
X130753D01*
X129716Y160524D01*
X129923Y161024D01*
X130391D01*
X131259Y161383D01*
X131924Y162048D01*
X132167Y162636D01*
X127675D01*
X127695Y162587D01*
X127378Y162201D01*
X127165Y162243D01*
X124581D01*
X124319Y162636D01*
X119776D01*
X119514Y162243D01*
X114567D01*
X113799Y162091D01*
X113148Y161655D01*
X109604Y158112D01*
X109169Y157461D01*
X109017Y156693D01*
Y138714D01*
X108517Y138615D01*
X108302Y139133D01*
X107637Y139798D01*
X107049Y140041D01*
Y137795D01*
Y135549D01*
X107637Y135793D01*
X108302Y136457D01*
X108661Y137325D01*
Y137805D01*
X109161Y137854D01*
X109169Y137815D01*
X109604Y137163D01*
X113038Y133730D01*
X112847Y133268D01*
X107185D01*
Y131637D01*
X104084D01*
X98468Y137253D01*
Y145770D01*
X99075D01*
X99075Y145770D01*
X99181Y145320D01*
X99181Y145319D01*
X99212Y145271D01*
Y145352D01*
X99328Y145632D01*
X103821D01*
X103783Y145725D01*
Y145809D01*
X103614Y146654D01*
X103428Y146933D01*
Y150347D01*
X103287Y151055D01*
Y154136D01*
X102400D01*
X102208Y154598D01*
X113612Y166002D01*
X120884D01*
X120983Y165502D01*
X120709Y165388D01*
X120045Y164724D01*
X119801Y164136D01*
X124293D01*
X124050Y164724D01*
X123385Y165388D01*
X123070Y165519D01*
X123121Y166039D01*
X123779Y166170D01*
X124495Y166649D01*
X133699Y175852D01*
X133824Y175827D01*
X134489Y175163D01*
X135077Y174919D01*
Y177165D01*
X135827D01*
Y177915D01*
X138073D01*
X137829Y178503D01*
X137165Y179168D01*
X137411Y179575D01*
X137866Y180257D01*
X138034Y181102D01*
Y198935D01*
X138347Y199247D01*
X138762Y199965D01*
X138976Y200766D01*
Y201596D01*
X138762Y202397D01*
X138347Y203115D01*
X137761Y203701D01*
X137042Y204116D01*
X136241Y204331D01*
X135412D01*
X134611Y204116D01*
X133893Y203701D01*
X133307Y203115D01*
X132892Y202397D01*
X132677Y201596D01*
Y200766D01*
X132892Y199965D01*
X133307Y199247D01*
X133619Y198935D01*
Y182017D01*
X122020Y170417D01*
X117913D01*
Y171021D01*
X118307D01*
X119152Y171189D01*
X119490Y171414D01*
X120023D01*
X120116Y171376D01*
Y173622D01*
Y175868D01*
X120023Y175830D01*
X118701D01*
X118300Y175750D01*
X117913Y176067D01*
Y176673D01*
X115612D01*
Y173228D01*
X114112D01*
Y176673D01*
X111811D01*
X111811Y177173D01*
Y177461D01*
X109769D01*
X109392Y178025D01*
X109192Y178225D01*
Y178904D01*
X109039Y179672D01*
X108604Y180324D01*
X108494Y180434D01*
X108602Y180838D01*
Y181839D01*
X108343Y182805D01*
X107843Y183671D01*
X107136Y184379D01*
X106270Y184879D01*
X105303Y185138D01*
X104303D01*
X103337Y184879D01*
X102470Y184379D01*
X101763Y183671D01*
X101263Y182805D01*
X101004Y181839D01*
Y180838D01*
X101263Y179872D01*
X101763Y179006D01*
X102470Y178298D01*
X103337Y177798D01*
X103730Y177693D01*
X104134Y177461D01*
Y176753D01*
X104075Y176277D01*
X96810D01*
Y178110D01*
X97136Y178298D01*
X97843Y179006D01*
X98343Y179872D01*
X98602Y180838D01*
Y181839D01*
X98343Y182805D01*
X97843Y183671D01*
X97136Y184379D01*
X96270Y184879D01*
X95303Y185138D01*
X94303D01*
X93337Y184879D01*
X92470Y184379D01*
X91763Y183671D01*
X91263Y182805D01*
X91004Y181839D01*
Y180838D01*
X91263Y179872D01*
X91763Y179006D01*
X92470Y178298D01*
X92796Y178110D01*
Y176788D01*
X92286Y176277D01*
X74878D01*
X74561Y176664D01*
X74649Y177104D01*
Y177539D01*
X75303D01*
X76270Y177798D01*
X77136Y178298D01*
X77843Y179006D01*
X78343Y179872D01*
X78602Y180838D01*
Y181839D01*
X78565Y181978D01*
X102253Y205666D01*
X141339D01*
Y203740D01*
X142126D01*
Y202325D01*
X145669D01*
X149213D01*
Y203740D01*
X150000D01*
Y210273D01*
X150864D01*
X150936Y210148D01*
D02*
G37*
G36*
X26422Y198158D02*
X20822Y192558D01*
X11446D01*
X11254Y193020D01*
X15829Y197594D01*
X16264Y198246D01*
X16338Y198620D01*
X26231D01*
X26422Y198158D01*
D02*
G37*
G36*
X40906Y193351D02*
X40507Y192952D01*
X33858D01*
X33090Y192799D01*
X32439Y192364D01*
X30271Y190196D01*
X24790D01*
X24599Y190658D01*
X30829Y196888D01*
X31264Y197539D01*
X31416Y198307D01*
Y198620D01*
X40906D01*
Y193351D01*
D02*
G37*
G36*
X193141Y216190D02*
X192510Y216021D01*
X191644Y215521D01*
X190936Y214813D01*
X190436Y213947D01*
X190177Y212981D01*
Y211980D01*
X190436Y211014D01*
X190936Y210148D01*
X191644Y209440D01*
X191969Y209252D01*
Y189094D01*
X192122Y188327D01*
X192557Y187675D01*
X194775Y185457D01*
X194516Y185009D01*
X194476Y185020D01*
X193476D01*
X192510Y184761D01*
X191644Y184260D01*
X191090Y183707D01*
X190590Y183914D01*
Y207874D01*
X190437Y208642D01*
X190002Y209293D01*
X187678Y211617D01*
X187776Y211980D01*
Y212981D01*
X187517Y213947D01*
X187016Y214813D01*
X186309Y215521D01*
X185443Y216021D01*
X184811Y216190D01*
X184877Y216690D01*
X193076D01*
X193141Y216190D01*
D02*
G37*
G36*
X182510Y208940D02*
X183476Y208681D01*
X184476D01*
X184840Y208779D01*
X186576Y207043D01*
Y184672D01*
X186076Y184395D01*
X185443Y184761D01*
X184476Y185020D01*
X183476D01*
X182510Y184761D01*
X181644Y184260D01*
X180936Y183553D01*
X180436Y182687D01*
X180177Y181721D01*
Y180720D01*
X180436Y179754D01*
X180936Y178888D01*
X181644Y178180D01*
X182510Y177680D01*
X183476Y177421D01*
X184476D01*
X185443Y177680D01*
X186076Y178045D01*
X186576Y177769D01*
Y168351D01*
X183620Y165395D01*
X183185Y164744D01*
X183111Y164370D01*
X181693D01*
Y160406D01*
X181200Y160308D01*
X180953Y160142D01*
X180512Y160378D01*
Y160433D01*
X173819D01*
Y159688D01*
X172638D01*
Y164173D01*
X171298D01*
Y177871D01*
X171798Y178091D01*
X172510Y177680D01*
X173476Y177421D01*
X174477D01*
X175443Y177680D01*
X176309Y178180D01*
X177016Y178888D01*
X177517Y179754D01*
X177776Y180720D01*
Y181369D01*
X180959Y184553D01*
X181369Y185087D01*
X181627Y185710D01*
X181715Y186378D01*
Y208899D01*
X182148Y209149D01*
X182510Y208940D01*
D02*
G37*
G36*
X48580Y210442D02*
Y185167D01*
X47463Y184050D01*
X42264D01*
Y186242D01*
X42935Y186376D01*
X43587Y186811D01*
X46695Y189919D01*
X47130Y190570D01*
X47283Y191339D01*
Y209799D01*
X48118Y210634D01*
X48580Y210442D01*
D02*
G37*
G36*
X197599Y178897D02*
Y166142D01*
X197656Y165854D01*
X197246Y165354D01*
X194882D01*
Y160630D01*
X189567D01*
Y160378D01*
X189126Y160142D01*
X188879Y160308D01*
X188386Y160406D01*
Y164370D01*
X188386Y164370D01*
X188386D01*
X188651Y164749D01*
X190002Y166100D01*
X190437Y166752D01*
X190590Y167520D01*
Y178527D01*
X191090Y178734D01*
X191644Y178180D01*
X192510Y177680D01*
X193476Y177421D01*
X194476D01*
X195443Y177680D01*
X196309Y178180D01*
X197017Y178888D01*
X197099Y179031D01*
X197599Y178897D01*
D02*
G37*
G36*
X167284Y178448D02*
Y164173D01*
X165945D01*
Y159688D01*
X164764D01*
Y160630D01*
X158071D01*
Y159959D01*
X157571Y159800D01*
X157542Y159829D01*
X156890Y160265D01*
Y164370D01*
X156890Y164370D01*
X156890D01*
X157155Y164749D01*
X160081Y167675D01*
X160516Y168326D01*
X160669Y169094D01*
Y178448D01*
X161169Y178655D01*
X161644Y178180D01*
X162510Y177680D01*
X163476Y177421D01*
X164477D01*
X165443Y177680D01*
X166309Y178180D01*
X166784Y178655D01*
X167284Y178448D01*
D02*
G37*
G36*
X22555Y176891D02*
X22990Y176240D01*
X23190Y176041D01*
Y166916D01*
X22728Y166725D01*
X13331Y176122D01*
X13272Y176419D01*
X13040Y176766D01*
X13308Y177266D01*
X22481D01*
X22555Y176891D01*
D02*
G37*
G36*
X50826Y180461D02*
X50857Y180231D01*
X48581Y177955D01*
X48146Y177304D01*
X47993Y176535D01*
Y162598D01*
X48146Y161830D01*
X48581Y161179D01*
X51227Y158533D01*
X51036Y158071D01*
X36319D01*
Y156597D01*
X35819Y156390D01*
X27204Y165005D01*
Y176872D01*
X27202Y176879D01*
X27520Y177266D01*
X35039D01*
Y170291D01*
X35002Y170266D01*
Y167717D01*
X34252D01*
Y166966D01*
X32006D01*
X32249Y166378D01*
X32914Y165714D01*
X33551Y165450D01*
X33801Y165283D01*
X34646Y165115D01*
X35827D01*
Y163976D01*
X38620D01*
Y167323D01*
X39370D01*
Y168073D01*
X42913D01*
Y169488D01*
X43701D01*
Y177756D01*
X42264D01*
Y179635D01*
X48378D01*
X49223Y179803D01*
X49939Y180281D01*
X50296Y180639D01*
X50826Y180461D01*
D02*
G37*
G36*
X71041Y181978D02*
X71004Y181839D01*
Y180838D01*
X71061Y180627D01*
X70880Y180446D01*
X70401Y179729D01*
X70233Y178885D01*
Y178019D01*
X69659Y177445D01*
X69181Y176729D01*
X69091Y176277D01*
X68366D01*
Y175394D01*
X60630D01*
Y175394D01*
X53150D01*
Y167126D01*
X53937D01*
Y165711D01*
X57480D01*
Y164211D01*
X53937D01*
Y162207D01*
X53437Y162000D01*
X52007Y163430D01*
Y175704D01*
X53842Y177539D01*
X58602D01*
Y185138D01*
X52995D01*
Y199317D01*
X53495Y199524D01*
X71041Y181978D01*
D02*
G37*
G36*
X150177Y177421D02*
X156654D01*
Y169926D01*
X152124Y165395D01*
X151689Y164744D01*
X151615Y164370D01*
X150197D01*
Y160265D01*
X149544Y159829D01*
X149516Y159800D01*
X149016Y159959D01*
Y160630D01*
X142323D01*
Y158019D01*
X141861Y157828D01*
X141142Y158547D01*
Y164370D01*
X141142Y164370D01*
X141224Y164783D01*
X141224Y164783D01*
X141377Y165551D01*
Y172791D01*
X147800Y179213D01*
X150177D01*
Y177421D01*
D02*
G37*
G36*
X109900Y168534D02*
X98103Y156737D01*
X95932D01*
X95708Y157010D01*
Y167124D01*
X104075D01*
Y168520D01*
X104134Y168996D01*
X109709D01*
X109900Y168534D01*
D02*
G37*
G36*
X91694Y157841D02*
X89801Y155949D01*
X89366Y155298D01*
X89292Y154923D01*
X85889D01*
Y157518D01*
X85721Y158363D01*
X85242Y159079D01*
X77659Y166662D01*
X77850Y167124D01*
X91694D01*
Y157841D01*
D02*
G37*
G36*
X81473Y156603D02*
Y154923D01*
X73149D01*
X73075Y155298D01*
X72640Y155949D01*
X71264Y157325D01*
X70613Y157760D01*
X69845Y157913D01*
X66631D01*
X66440Y158375D01*
X66570Y158504D01*
X66813Y159092D01*
X64567D01*
Y160592D01*
X67044D01*
X67168Y161221D01*
Y161614D01*
X68504D01*
Y164211D01*
X64961D01*
Y165711D01*
X68504D01*
Y167124D01*
X70953D01*
X81473Y156603D01*
D02*
G37*
G36*
X128115Y156448D02*
X127908Y155948D01*
X122244D01*
X121399Y155780D01*
X120683Y155301D01*
X116943Y151561D01*
X116464Y150845D01*
X116296Y150000D01*
Y148622D01*
X113031D01*
Y155785D01*
X113332Y156030D01*
X113779Y155786D01*
Y155042D01*
X114139Y154174D01*
X114804Y153509D01*
X115392Y153266D01*
Y155512D01*
X116142D01*
Y156262D01*
X118388D01*
X118144Y156850D01*
X117480Y157514D01*
X116961Y157729D01*
X117061Y158229D01*
X126334D01*
X128115Y156448D01*
D02*
G37*
G36*
X20434Y163342D02*
Y155512D01*
X20587Y154744D01*
X21022Y154093D01*
X23190Y151925D01*
Y150591D01*
X20965D01*
Y150591D01*
X19330D01*
Y162205D01*
X19177Y162973D01*
X18742Y163624D01*
X11850Y170516D01*
Y171273D01*
X12312Y171464D01*
X20434Y163342D01*
D02*
G37*
G36*
X15316Y161373D02*
Y150591D01*
X13681D01*
Y150689D01*
X11456D01*
Y153937D01*
X11303Y154705D01*
X10868Y155356D01*
X9487Y156737D01*
Y166549D01*
X9949Y166740D01*
X15316Y161373D01*
D02*
G37*
G36*
X173368Y155244D02*
X173819Y155154D01*
Y154134D01*
X177917D01*
X178109Y153672D01*
X174423Y149986D01*
X174038Y149409D01*
X171654D01*
Y148072D01*
X171154Y147792D01*
X170700Y147980D01*
X169980Y148075D01*
X166240D01*
X165521Y147980D01*
X164850Y147703D01*
X164275Y147261D01*
X163833Y146685D01*
X163728Y146431D01*
X163228Y146530D01*
Y148184D01*
X165586Y150543D01*
X165945Y150394D01*
Y150394D01*
X172638D01*
Y155273D01*
X173324D01*
X173368Y155244D01*
D02*
G37*
G36*
X56693Y153899D02*
X68366D01*
Y146102D01*
X63233D01*
X55712Y153623D01*
X55814Y153828D01*
X56007Y154035D01*
X56693Y153899D01*
D02*
G37*
G36*
X33718Y152813D02*
X34370Y152378D01*
X35138Y152225D01*
X36319D01*
Y149511D01*
X35671Y149382D01*
X34955Y148904D01*
X29891Y143840D01*
X29429Y144031D01*
Y150591D01*
X27204D01*
Y152756D01*
X27051Y153524D01*
X26616Y154175D01*
X24448Y156343D01*
Y161430D01*
X24910Y161622D01*
X33718Y152813D01*
D02*
G37*
G36*
X60982Y142675D02*
X61634Y142240D01*
X62402Y142087D01*
X79151D01*
X79920Y142240D01*
X80571Y142675D01*
X81011Y143116D01*
X81473Y142925D01*
Y134449D01*
X81459Y134439D01*
Y131890D01*
Y129340D01*
X81473Y129331D01*
Y126575D01*
X81459Y126565D01*
Y124016D01*
Y121466D01*
X81473Y121457D01*
Y74508D01*
X81642Y73663D01*
X82120Y72947D01*
X97129Y57938D01*
X96981Y57604D01*
X96879Y57480D01*
X95987D01*
X95119Y57121D01*
X94454Y56456D01*
X94210Y55868D01*
X96457D01*
Y55118D01*
X97207D01*
Y52872D01*
X97795Y53115D01*
X98459Y53780D01*
X98819Y54648D01*
Y55541D01*
X98942Y55642D01*
X99276Y55790D01*
X102140Y52927D01*
X105003Y50064D01*
X104855Y49730D01*
X104753Y49606D01*
X103861D01*
X102993Y49247D01*
X102328Y48582D01*
X102085Y47994D01*
X104331D01*
Y46494D01*
X102085D01*
X102328Y45906D01*
X102993Y45241D01*
X103026Y45228D01*
X102927Y44728D01*
X97860D01*
X97761Y45228D01*
X97795Y45241D01*
X98459Y45906D01*
X98703Y46494D01*
X94210D01*
X94454Y45906D01*
X95119Y45241D01*
X95152Y45228D01*
X95053Y44728D01*
X89986D01*
X89887Y45228D01*
X89921Y45241D01*
X90585Y45906D01*
X90829Y46494D01*
X86336D01*
X86441Y46242D01*
X86020Y45951D01*
X27897Y100250D01*
X27562Y100458D01*
X27235Y100676D01*
X27197Y100684D01*
X27165Y100704D01*
X26814Y100761D01*
X26314Y101968D01*
X25495Y103194D01*
X24453Y104235D01*
X23228Y105054D01*
X21867Y105618D01*
X20422Y105905D01*
X18948D01*
X17503Y105618D01*
X16142Y105054D01*
X14917Y104235D01*
X13875Y103194D01*
X13056Y101968D01*
X12492Y100607D01*
X12030Y100747D01*
Y136122D01*
X13091D01*
Y136024D01*
X21555D01*
Y136024D01*
X29429D01*
Y137733D01*
X29880Y137822D01*
X30597Y138301D01*
X35952Y143656D01*
X36319Y143504D01*
Y143504D01*
X52657D01*
Y150293D01*
X53059Y150560D01*
X53086Y150571D01*
X60982Y142675D01*
D02*
G37*
G36*
X163197Y153831D02*
X159801Y150435D01*
X159366Y149784D01*
X159213Y149016D01*
Y141073D01*
X158713Y140866D01*
X152860Y146719D01*
X153055Y147219D01*
X155131D01*
X155899Y147372D01*
X156551Y147807D01*
X158506Y149762D01*
X158941Y150413D01*
X159094Y151181D01*
Y154331D01*
X162990D01*
X163197Y153831D01*
D02*
G37*
G36*
X198580Y120473D02*
X198748Y119628D01*
X199226Y118911D01*
X200901Y117237D01*
X200710Y116775D01*
X195669D01*
X194824Y116607D01*
X194108Y116128D01*
X192040Y114060D01*
X191578Y114251D01*
Y119594D01*
X191994Y119871D01*
X192163Y119801D01*
Y122047D01*
Y124293D01*
X191994Y124223D01*
X191578Y124501D01*
Y127468D01*
X191994Y127745D01*
X192163Y127675D01*
Y129921D01*
Y132167D01*
X191994Y132097D01*
X191578Y132375D01*
Y135342D01*
X191994Y135619D01*
X192163Y135549D01*
Y137795D01*
X192913D01*
Y138545D01*
X195160D01*
X194992Y138949D01*
X195228Y139400D01*
X195285Y139449D01*
X198580D01*
Y120473D01*
D02*
G37*
G36*
X124423Y138596D02*
X126392Y136628D01*
X127108Y136149D01*
X127953Y135981D01*
X129757D01*
X130019Y135659D01*
X129763Y135236D01*
X121260D01*
Y131812D01*
X120760Y131660D01*
X120711Y131734D01*
X114127Y138318D01*
X114319Y138779D01*
X124301D01*
X124423Y138596D01*
D02*
G37*
G36*
X175553Y130825D02*
X175999Y131009D01*
X176282Y130585D01*
X173636Y127939D01*
X173157Y127223D01*
X172989Y126378D01*
Y124255D01*
X168307D01*
Y126279D01*
X163228D01*
Y129060D01*
X163728Y129160D01*
X163833Y128905D01*
X164275Y128330D01*
X164850Y127888D01*
X165521Y127610D01*
X166240Y127515D01*
X169980D01*
X170700Y127610D01*
X171370Y127888D01*
X171946Y128330D01*
X172388Y128905D01*
X172665Y129576D01*
X172760Y130295D01*
X172665Y131015D01*
X172562Y131264D01*
X172986Y131547D01*
X173465Y131068D01*
X174053Y130825D01*
Y133071D01*
X175553D01*
Y130825D01*
D02*
G37*
G36*
X91552Y109783D02*
X91720Y108939D01*
X92199Y108222D01*
X96457Y103964D01*
Y103522D01*
X96671Y102721D01*
X97086Y102003D01*
X97672Y101417D01*
X98391Y101002D01*
X99192Y100787D01*
X100021D01*
X100822Y101002D01*
X101540Y101417D01*
X102127Y102003D01*
X102541Y102721D01*
X102756Y103522D01*
Y104352D01*
X102541Y105153D01*
X102127Y105871D01*
X101540Y106457D01*
X100822Y106872D01*
X100021Y107087D01*
X99579D01*
X95968Y110698D01*
Y132855D01*
X96430Y133047D01*
X101608Y127868D01*
X102324Y127390D01*
X103169Y127221D01*
X107185D01*
Y125591D01*
Y118701D01*
X110280D01*
X110466Y118394D01*
X110201Y117913D01*
X108465D01*
Y108071D01*
X119647D01*
Y74847D01*
X117478Y72679D01*
X117043Y72028D01*
X116891Y71260D01*
Y62205D01*
X117043Y61437D01*
X117478Y60786D01*
X119996Y58268D01*
X120007Y58210D01*
X120486Y57494D01*
X121202Y57016D01*
X122047Y56847D01*
X127165D01*
X127379Y56890D01*
X130076D01*
Y55905D01*
X130244Y55061D01*
X130722Y54344D01*
X139090Y45977D01*
X138899Y45515D01*
X126378D01*
X125533Y45347D01*
X124817Y44868D01*
X121773Y41825D01*
X121383Y41929D01*
X120191D01*
X119553Y41758D01*
X116426Y44885D01*
X116772Y45241D01*
X117360Y44998D01*
Y46494D01*
X115864D01*
X116108Y45906D01*
X115751Y45560D01*
X105262Y56049D01*
X85889Y75422D01*
Y123040D01*
X86389Y123139D01*
X86580Y122678D01*
X87245Y122013D01*
X87833Y121770D01*
Y124016D01*
Y126262D01*
X87245Y126018D01*
X86580Y125354D01*
X86389Y124892D01*
X85889Y124992D01*
Y130914D01*
X86389Y131013D01*
X86580Y130552D01*
X87245Y129887D01*
X87833Y129644D01*
Y131890D01*
Y134136D01*
X87245Y133892D01*
X86580Y133228D01*
X86389Y132766D01*
X85889Y132866D01*
Y145770D01*
X91552D01*
Y109783D01*
D02*
G37*
G36*
X147600Y128288D02*
X150251D01*
X150431Y128108D01*
X150698Y127930D01*
X150753Y127796D01*
X151418Y127131D01*
X152006Y126888D01*
Y129134D01*
X153506D01*
Y126888D01*
X154094Y127131D01*
X154759Y127796D01*
X154871Y128067D01*
X155371Y127968D01*
Y126279D01*
X153740D01*
Y117815D01*
X159213D01*
Y116383D01*
X153168Y110337D01*
X152707Y110583D01*
X152795Y111024D01*
Y123228D01*
X152642Y123996D01*
X152207Y124648D01*
X151419Y125435D01*
X150768Y125870D01*
X150000Y126023D01*
X145713D01*
X144527Y127209D01*
Y127984D01*
X144913Y128301D01*
X144980Y128288D01*
X146100D01*
Y130295D01*
X147600D01*
Y128288D01*
D02*
G37*
G36*
X196611Y208630D02*
Y207874D01*
X196779Y207029D01*
X197258Y206313D01*
X219699Y183872D01*
X220415Y183393D01*
X221097Y183258D01*
X221332Y182889D01*
X221368Y182725D01*
X221170Y182383D01*
X221059Y181970D01*
X223976D01*
X226893D01*
X226783Y182383D01*
X226585Y182725D01*
X226874Y183225D01*
X229400D01*
X244643Y167983D01*
Y121641D01*
X244143Y121575D01*
X243998Y122116D01*
X243129Y124214D01*
X241993Y126180D01*
X240611Y127982D01*
X239005Y129587D01*
X237204Y130970D01*
X235237Y132105D01*
X233139Y132974D01*
X230946Y133562D01*
X229558Y133745D01*
Y139409D01*
X240158D01*
Y165394D01*
X211811D01*
Y154609D01*
X196260D01*
Y157480D01*
X206693D01*
Y165354D01*
X202716D01*
X202642Y165729D01*
X202206Y166380D01*
X201613Y166973D01*
Y168996D01*
X209055D01*
Y169283D01*
X209055Y169783D01*
X209555Y169783D01*
X211356D01*
Y173228D01*
Y176673D01*
X209055Y176673D01*
X209055Y177173D01*
Y177461D01*
X207145D01*
X207071Y177835D01*
X206636Y178486D01*
Y178507D01*
X207016Y178888D01*
X207517Y179754D01*
X207775Y180720D01*
Y181721D01*
X207517Y182687D01*
X207016Y183553D01*
X206309Y184260D01*
X205443Y184761D01*
X204476Y185020D01*
X203476D01*
X202510Y184761D01*
X201899Y184408D01*
X201604Y184290D01*
X201239Y184564D01*
X201026Y184884D01*
X195983Y189926D01*
Y208831D01*
X196111Y208909D01*
X196611Y208630D01*
D02*
G37*
G36*
X117284Y129484D02*
Y125197D01*
X117437Y124429D01*
X117872Y123778D01*
X119647Y122003D01*
Y117913D01*
X116907D01*
X116522Y118490D01*
X115650Y119362D01*
Y125591D01*
Y130465D01*
X116112Y130656D01*
X117284Y129484D01*
D02*
G37*
G36*
X137950Y116750D02*
X137695Y116547D01*
X137205Y116765D01*
Y117913D01*
X126617D01*
Y118967D01*
X127152Y119502D01*
X127630Y120218D01*
X127720Y120669D01*
X129921D01*
Y120669D01*
X137950D01*
Y116750D01*
D02*
G37*
G36*
X193675Y150840D02*
X194391Y150362D01*
X195236Y150194D01*
X211811D01*
Y139409D01*
X222410D01*
Y133090D01*
X221979Y132974D01*
X219881Y132105D01*
X217914Y130970D01*
X216113Y129587D01*
X214507Y127982D01*
X213125Y126180D01*
X211989Y124214D01*
X211120Y122116D01*
X210533Y119922D01*
X210236Y117671D01*
Y115400D01*
X210346Y114564D01*
X209895Y114279D01*
X209879Y114283D01*
X209435Y114947D01*
X202995Y121387D01*
Y139449D01*
X206693D01*
Y147323D01*
X194882D01*
X194882Y147323D01*
Y147323D01*
X194439Y147484D01*
X194252Y147672D01*
X193663Y147915D01*
Y145669D01*
X192163D01*
Y147915D01*
X191994Y147845D01*
X191578Y148123D01*
Y152284D01*
X192040Y152476D01*
X193675Y150840D01*
D02*
G37*
G36*
X143463Y122597D02*
X144114Y122161D01*
X144882Y122009D01*
X148780D01*
Y111855D01*
X143856Y106931D01*
X143421Y106280D01*
X143269Y105512D01*
Y92815D01*
X136066D01*
Y95785D01*
X136379Y96098D01*
X136793Y96816D01*
X137005Y97606D01*
X137030Y97620D01*
X137508Y97699D01*
X137761Y97087D01*
X138426Y96423D01*
X139014Y96179D01*
Y98425D01*
Y100671D01*
X138426Y100428D01*
X137761Y99763D01*
X137402Y98895D01*
X136902Y98843D01*
X136793Y99247D01*
X136379Y99965D01*
X135792Y100552D01*
X135074Y100967D01*
X134273Y101181D01*
X133444D01*
X132643Y100967D01*
X131924Y100552D01*
X131338Y99965D01*
X130923Y99247D01*
X130709Y98446D01*
Y97617D01*
X130923Y96816D01*
X131338Y96098D01*
X131650Y95785D01*
Y92815D01*
X130020D01*
Y84350D01*
Y83598D01*
X129558Y83407D01*
X127798Y85167D01*
Y105512D01*
X127630Y106357D01*
X127152Y107073D01*
X126654Y107571D01*
X126706Y108071D01*
X137205D01*
Y110784D01*
X137401D01*
X138246Y110952D01*
X138963Y111431D01*
X139247Y111715D01*
X139671Y111432D01*
X139486Y110986D01*
X140982D01*
Y112482D01*
X140537Y112298D01*
X140253Y112722D01*
X141719Y114187D01*
X142197Y114903D01*
X142365Y115748D01*
Y123041D01*
X142827Y123232D01*
X143463Y122597D01*
D02*
G37*
G36*
X187162Y127371D02*
Y108258D01*
X183205Y104301D01*
X182651D01*
X182028Y104923D01*
X181695Y105146D01*
Y108898D01*
X181862Y108979D01*
X181927Y108994D01*
Y111811D01*
Y114057D01*
X181783Y113998D01*
X181045Y113851D01*
X180329Y113372D01*
X180208Y113251D01*
X178223D01*
X178116Y113719D01*
X178115Y113751D01*
X178774Y114410D01*
X179018Y114998D01*
X176772D01*
Y116498D01*
X179018D01*
X178774Y117086D01*
X178110Y117751D01*
X177662Y117936D01*
X177564Y118427D01*
X186700Y127563D01*
X187162Y127371D01*
D02*
G37*
G36*
X156654Y107493D02*
Y96063D01*
X156807Y95295D01*
X157242Y94644D01*
X158638Y93248D01*
X158447Y92786D01*
X153771D01*
X153003Y92633D01*
X152352Y92198D01*
X151720Y91566D01*
X151220Y91690D01*
Y96701D01*
X151720Y96908D01*
X152205Y96423D01*
X152793Y96179D01*
Y98425D01*
Y100671D01*
X152205Y100428D01*
X151720Y99942D01*
X151220Y100149D01*
Y102712D01*
X156192Y107685D01*
X156654Y107493D01*
D02*
G37*
G36*
X165748Y113437D02*
Y113348D01*
X169291D01*
Y111848D01*
X165748D01*
Y110433D01*
X164961D01*
Y102165D01*
X168797D01*
X168988Y101703D01*
X164723Y97438D01*
X164287Y96787D01*
X164135Y96019D01*
Y94081D01*
X163673Y93890D01*
X160669Y96894D01*
Y109011D01*
X165286Y113629D01*
X165748Y113437D01*
D02*
G37*
G36*
X189524Y100710D02*
Y93951D01*
X189693Y93106D01*
X190171Y92390D01*
X192062Y90499D01*
X191855Y89999D01*
X187598D01*
X186830Y89846D01*
X186179Y89411D01*
X185634Y88866D01*
X185144Y88964D01*
X185073Y89133D01*
X184409Y89798D01*
X183821Y90041D01*
Y87795D01*
X182321D01*
Y90041D01*
X181733Y89798D01*
X181068Y89133D01*
X180922Y88779D01*
X178979D01*
Y93189D01*
X181695D01*
Y93957D01*
X181928Y94004D01*
X182644Y94482D01*
X189063Y100901D01*
X189524Y100710D01*
D02*
G37*
G36*
X211120Y110955D02*
X211989Y108857D01*
X213125Y106891D01*
X214507Y105089D01*
X216113Y103483D01*
X217914Y102101D01*
X219881Y100966D01*
X221979Y100097D01*
X224172Y99509D01*
X226424Y99213D01*
X228695D01*
X230946Y99509D01*
X233139Y100097D01*
X235237Y100966D01*
X237204Y102101D01*
X239005Y103483D01*
X240611Y105089D01*
X241993Y106891D01*
X243129Y108857D01*
X243998Y110955D01*
X244143Y111496D01*
X244643Y111430D01*
Y95796D01*
X236487Y87641D01*
X228080D01*
X223215Y92506D01*
X222498Y92985D01*
X221654Y93153D01*
X212332D01*
X210568Y94917D01*
X209852Y95395D01*
X209007Y95563D01*
X208233D01*
X208042Y96025D01*
X209435Y97418D01*
X209914Y98134D01*
X210082Y98979D01*
Y112899D01*
X210582Y112965D01*
X211120Y110955D01*
D02*
G37*
G36*
X127966Y78754D02*
X128683Y78275D01*
X129528Y78107D01*
X130020D01*
Y76083D01*
X131650D01*
Y70771D01*
X131819Y69926D01*
X132297Y69209D01*
X132628Y68879D01*
X132309Y68490D01*
X131870Y68783D01*
X131496Y68858D01*
Y69095D01*
X129373D01*
Y69940D01*
X129336Y70129D01*
X129527Y70845D01*
Y71675D01*
X129313Y72475D01*
X128898Y73194D01*
X128312Y73780D01*
X127594Y74195D01*
X126793Y74410D01*
X125963D01*
X125162Y74195D01*
X124444Y73780D01*
X124044Y73380D01*
X123583Y73626D01*
X123661Y74016D01*
Y82374D01*
X124161Y82560D01*
X127966Y78754D01*
D02*
G37*
G36*
X218874Y76131D02*
X218869Y76044D01*
X217263Y74438D01*
X215881Y72637D01*
X214745Y70670D01*
X213876Y68572D01*
X213288Y66379D01*
X213022Y64357D01*
X212642Y64281D01*
X211926Y63803D01*
X211130Y63007D01*
X210668Y63198D01*
Y83630D01*
X211169Y83837D01*
X218874Y76131D01*
D02*
G37*
G36*
X171700Y42391D02*
X171508Y41929D01*
X168638D01*
X168425Y41971D01*
X167450D01*
X159041Y50380D01*
X158325Y50859D01*
X157480Y51027D01*
X151179D01*
X150988Y51489D01*
X152597Y53098D01*
X153154Y52541D01*
X157352Y56739D01*
X171700Y42391D01*
D02*
G37*
G36*
X213563Y58582D02*
X213876Y57412D01*
X214745Y55314D01*
X215881Y53347D01*
X217263Y51546D01*
X218869Y49940D01*
X220670Y48558D01*
X222637Y47422D01*
X224735Y46553D01*
X226928Y45966D01*
X227922Y45835D01*
Y42892D01*
X227460Y42701D01*
X225435Y44726D01*
X224784Y45161D01*
X224016Y45314D01*
X216693D01*
X215925Y45161D01*
X215274Y44726D01*
X212245Y41698D01*
X211383Y41929D01*
X210191D01*
X209329Y41698D01*
X198185Y52842D01*
X198377Y53304D01*
X202800D01*
X203007Y52804D01*
X202722Y52519D01*
X202478Y51931D01*
X206971D01*
X206727Y52519D01*
X206442Y52804D01*
X206649Y53304D01*
X206757D01*
X207602Y53472D01*
X208319Y53951D01*
X213080Y58712D01*
X213563Y58582D01*
D02*
G37*
G36*
X146260Y38807D02*
Y32874D01*
X151933D01*
X152124Y32412D01*
X147511Y27798D01*
X79261D01*
X78560Y28499D01*
X78807Y28960D01*
X79134Y28895D01*
X109055D01*
X109900Y29063D01*
X110616Y29541D01*
X112348Y31273D01*
X112827Y31990D01*
X112995Y32835D01*
Y33448D01*
X113567Y33779D01*
X114181Y34392D01*
X114819Y34401D01*
X117514Y31707D01*
X118230Y31228D01*
X119075Y31060D01*
X122500D01*
X123345Y31228D01*
X124061Y31707D01*
X127306Y34951D01*
X127430Y34991D01*
X127932Y34967D01*
X128491Y34409D01*
X129344Y33916D01*
X130037Y33730D01*
Y37402D01*
X130787D01*
Y38151D01*
X134458D01*
X134277Y38828D01*
X134255Y38913D01*
X134494Y39328D01*
X137081D01*
X137320Y38913D01*
X137297Y38828D01*
X137116Y38151D01*
X140787D01*
X144458D01*
X144277Y38828D01*
X144255Y38913D01*
X144494Y39328D01*
X145739D01*
X146260Y38807D01*
D02*
G37*
G36*
X198303Y41772D02*
X198220Y41147D01*
X198007Y41024D01*
X197164Y40181D01*
X196568Y39149D01*
X196260Y37998D01*
Y36805D01*
X196483Y35972D01*
X196126Y35472D01*
X195449D01*
X195091Y35972D01*
X195315Y36805D01*
Y37998D01*
X195006Y39149D01*
X194410Y40181D01*
X193567Y41024D01*
X192535Y41620D01*
X191383Y41929D01*
X190831D01*
X184441Y48318D01*
X184633Y48780D01*
X191295D01*
X198303Y41772D01*
D02*
G37*
G36*
X13056Y79134D02*
X13875Y77909D01*
X14917Y76867D01*
X16142Y76048D01*
X17503Y75484D01*
X18948Y75197D01*
X20422D01*
X21867Y75484D01*
X23228Y76048D01*
X24453Y76867D01*
X25495Y77909D01*
X25847Y78435D01*
X28679D01*
X72030Y35084D01*
X71784Y34623D01*
X71457Y34688D01*
X70766D01*
X70493Y35348D01*
X70019Y35964D01*
X69403Y36438D01*
X68684Y36735D01*
X67914Y36837D01*
X62402D01*
X61631Y36735D01*
X60913Y36438D01*
X60296Y35964D01*
X59822Y35348D01*
X59549Y34688D01*
X34939D01*
X34666Y35348D01*
X34193Y35964D01*
X33576Y36438D01*
X32857Y36735D01*
X32087Y36837D01*
X31539D01*
Y41535D01*
X31370Y42380D01*
X30892Y43097D01*
X26325Y47664D01*
X26878Y48999D01*
X27165Y50444D01*
Y51918D01*
X26878Y53363D01*
X26314Y54724D01*
X25495Y55950D01*
X24453Y56991D01*
X23228Y57810D01*
X21867Y58374D01*
X20422Y58662D01*
X18948D01*
X17503Y58374D01*
X16142Y57810D01*
X14917Y56991D01*
X13875Y55950D01*
X13056Y54724D01*
X12492Y53363D01*
X12030Y53503D01*
Y80356D01*
X12492Y80495D01*
X13056Y79134D01*
D02*
G37*
G36*
Y94882D02*
X13875Y93657D01*
X14917Y92615D01*
X16142Y91796D01*
X17503Y91232D01*
X18948Y90945D01*
X20422D01*
X21867Y91232D01*
X23228Y91796D01*
X24453Y92615D01*
X25495Y93657D01*
X26314Y94882D01*
X26386Y95056D01*
X26875Y95162D01*
X84952Y40906D01*
X85286Y40699D01*
X85614Y40480D01*
X85651Y40472D01*
X85684Y40452D01*
X86072Y40389D01*
X86459Y40312D01*
X86662D01*
X86951Y39812D01*
X86568Y39149D01*
X86260Y37998D01*
Y36805D01*
X86568Y35654D01*
X87164Y34622D01*
X87976Y33810D01*
X87956Y33586D01*
X87882Y33310D01*
X83693D01*
X83619Y33586D01*
X83599Y33810D01*
X84410Y34622D01*
X85006Y35654D01*
X85315Y36805D01*
Y37998D01*
X85006Y39149D01*
X84410Y40181D01*
X83567Y41024D01*
X82535Y41620D01*
X81383Y41929D01*
X80191D01*
X79040Y41620D01*
X78007Y41024D01*
X77164Y40181D01*
X76568Y39149D01*
X76260Y37998D01*
Y37752D01*
X75798Y37561D01*
X31154Y82204D01*
X30438Y82683D01*
X29593Y82851D01*
X27165D01*
Y83414D01*
X26878Y84859D01*
X26314Y86220D01*
X25495Y87446D01*
X24453Y88487D01*
X23228Y89306D01*
X21867Y89870D01*
X20422Y90158D01*
X18948D01*
X17503Y89870D01*
X16142Y89306D01*
X14917Y88487D01*
X13875Y87446D01*
X13056Y86220D01*
X12492Y84859D01*
X12030Y84999D01*
Y96104D01*
X12492Y96243D01*
X13056Y94882D01*
D02*
G37*
G36*
X59822Y29613D02*
X60296Y28997D01*
X60913Y28523D01*
X61631Y28226D01*
X62402Y28124D01*
X67914D01*
X68684Y28226D01*
X69403Y28523D01*
X70019Y28997D01*
X70493Y29613D01*
X70528Y29699D01*
X71018Y29796D01*
X76398Y24417D01*
X76190Y23917D01*
X71457D01*
Y18969D01*
X70599Y18110D01*
X70100Y18143D01*
X70019Y18248D01*
X69403Y18721D01*
X68684Y19018D01*
X67914Y19120D01*
X62402D01*
X61631Y19018D01*
X60913Y18721D01*
X60296Y18248D01*
X59822Y17631D01*
X59549Y16972D01*
X34939D01*
X34666Y17631D01*
X34193Y18248D01*
X33576Y18721D01*
X32857Y19018D01*
X32087Y19120D01*
X26575D01*
X25804Y19018D01*
X25086Y18721D01*
X24469Y18248D01*
X23996Y17631D01*
X23698Y16913D01*
X23597Y16142D01*
Y15598D01*
X23097Y15354D01*
X22873Y15529D01*
Y19247D01*
X30750Y27124D01*
X31185Y27775D01*
X31254Y28124D01*
X32087D01*
X32857Y28226D01*
X33576Y28523D01*
X34193Y28997D01*
X34666Y29613D01*
X34939Y30273D01*
X59549D01*
X59822Y29613D01*
D02*
G37*
G36*
X148554Y22936D02*
X140818Y15200D01*
X79529D01*
X79134Y15453D01*
Y15740D01*
X79134Y16240D01*
X79634Y16240D01*
X81435D01*
Y19685D01*
X82935D01*
Y16240D01*
X85236D01*
Y16846D01*
X85623Y17163D01*
X86024Y17084D01*
X86559D01*
X86652Y17045D01*
Y19291D01*
Y21607D01*
X86475Y21725D01*
X85630Y21893D01*
X85590D01*
X85236Y22246D01*
X85236Y23130D01*
X85632Y23383D01*
X148294D01*
X148554Y22936D01*
D02*
G37*
G36*
X13056Y47638D02*
X13875Y46413D01*
X14917Y45371D01*
X16142Y44552D01*
X17503Y43988D01*
X18948Y43701D01*
X20422D01*
X21867Y43988D01*
X23202Y44541D01*
X27123Y40621D01*
Y36837D01*
X26575D01*
X25804Y36735D01*
X25086Y36438D01*
X24469Y35964D01*
X23996Y35348D01*
X23698Y34629D01*
X23597Y33858D01*
Y31102D01*
X23698Y30332D01*
X23996Y29613D01*
X24469Y28997D01*
X25086Y28523D01*
X25566Y28324D01*
X25713Y27764D01*
X19447Y21498D01*
X19012Y20847D01*
X18859Y20079D01*
Y15026D01*
X18359Y14819D01*
X12030Y21148D01*
Y48860D01*
X12492Y48999D01*
X13056Y47638D01*
D02*
G37*
G36*
X164974Y38203D02*
X165691Y37724D01*
X166260Y37611D01*
Y32874D01*
X167213D01*
Y24882D01*
X167335Y23957D01*
X167692Y23095D01*
X168260Y22355D01*
X172670Y17945D01*
X173410Y17377D01*
X174272Y17020D01*
X175197Y16899D01*
X222441D01*
X223366Y17020D01*
X224228Y17377D01*
X224968Y17945D01*
X233177Y26155D01*
X233639Y25963D01*
Y8943D01*
X231214Y6518D01*
X26660D01*
X25449Y7729D01*
X25656Y8229D01*
X142913D01*
X143681Y8382D01*
X144333Y8817D01*
X162443Y26927D01*
X162878Y27578D01*
X163031Y28346D01*
Y39493D01*
X163493Y39684D01*
X164974Y38203D01*
D02*
G37*
%LPC*%
G36*
X79490Y203034D02*
Y201537D01*
X80986D01*
X80743Y202126D01*
X80078Y202790D01*
X79490Y203034D01*
D02*
G37*
G36*
X77990D02*
X77402Y202790D01*
X76738Y202126D01*
X76494Y201537D01*
X77990D01*
Y203034D01*
D02*
G37*
G36*
X71616D02*
Y201537D01*
X73112D01*
X72869Y202126D01*
X72204Y202790D01*
X71616Y203034D01*
D02*
G37*
G36*
X70116D02*
X69528Y202790D01*
X68864Y202126D01*
X68620Y201537D01*
X70116D01*
Y203034D01*
D02*
G37*
G36*
X80986Y200037D02*
X79490D01*
Y198541D01*
X80078Y198785D01*
X80743Y199449D01*
X80986Y200037D01*
D02*
G37*
G36*
X77990D02*
X76494D01*
X76738Y199449D01*
X77402Y198785D01*
X77990Y198541D01*
Y200037D01*
D02*
G37*
G36*
X73112D02*
X71616D01*
Y198541D01*
X72204Y198785D01*
X72869Y199449D01*
X73112Y200037D01*
D02*
G37*
G36*
X70116D02*
X68620D01*
X68864Y199449D01*
X69528Y198785D01*
X70116Y198541D01*
Y200037D01*
D02*
G37*
G36*
X79490Y195159D02*
Y193663D01*
X80986D01*
X80743Y194252D01*
X80078Y194916D01*
X79490Y195159D01*
D02*
G37*
G36*
X77990D02*
X77402Y194916D01*
X76738Y194252D01*
X76494Y193663D01*
X77990D01*
Y195159D01*
D02*
G37*
G36*
X71616D02*
Y193663D01*
X73112D01*
X72869Y194252D01*
X72204Y194916D01*
X71616Y195159D01*
D02*
G37*
G36*
X70116D02*
X69528Y194916D01*
X68864Y194252D01*
X68620Y193663D01*
X70116D01*
Y195159D01*
D02*
G37*
G36*
X80986Y192163D02*
X79490D01*
Y190667D01*
X80078Y190911D01*
X80743Y191575D01*
X80986Y192163D01*
D02*
G37*
G36*
X77990D02*
X76494D01*
X76738Y191575D01*
X77402Y190911D01*
X77990Y190667D01*
Y192163D01*
D02*
G37*
G36*
X73112D02*
X71616D01*
Y190667D01*
X72204Y190911D01*
X72869Y191575D01*
X73112Y192163D01*
D02*
G37*
G36*
X70116D02*
X68620D01*
X68864Y191575D01*
X69528Y190911D01*
X70116Y190667D01*
Y192163D01*
D02*
G37*
G36*
X246813Y240927D02*
Y235002D01*
X252738D01*
X252499Y236204D01*
X251994Y237422D01*
X251262Y238518D01*
X250329Y239451D01*
X249233Y240183D01*
X248015Y240688D01*
X246813Y240927D01*
D02*
G37*
G36*
X245313D02*
X244111Y240688D01*
X242893Y240183D01*
X241796Y239451D01*
X240864Y238518D01*
X240132Y237422D01*
X239627Y236204D01*
X239388Y235002D01*
X245313D01*
Y240927D01*
D02*
G37*
G36*
X14549Y235471D02*
X8624D01*
Y229546D01*
X9826Y229785D01*
X11044Y230289D01*
X12140Y231022D01*
X13073Y231954D01*
X13805Y233050D01*
X14310Y234268D01*
X14549Y235471D01*
D02*
G37*
G36*
X71616Y231230D02*
Y228309D01*
X74537D01*
X74351Y229003D01*
X73859Y229856D01*
X73163Y230552D01*
X72310Y231044D01*
X71616Y231230D01*
D02*
G37*
G36*
X70116D02*
X69423Y231044D01*
X68570Y230552D01*
X67873Y229856D01*
X67381Y229003D01*
X67195Y228309D01*
X70116D01*
Y231230D01*
D02*
G37*
G36*
X252738Y233502D02*
X246813D01*
Y227577D01*
X248015Y227816D01*
X249233Y228321D01*
X250329Y229053D01*
X251262Y229985D01*
X251994Y231082D01*
X252499Y232300D01*
X252738Y233502D01*
D02*
G37*
G36*
X245313D02*
X239388D01*
X239627Y232300D01*
X240132Y231082D01*
X240864Y229985D01*
X241796Y229053D01*
X242893Y228321D01*
X244111Y227816D01*
X245313Y227577D01*
Y233502D01*
D02*
G37*
G36*
X225315Y232087D02*
X216260D01*
Y225348D01*
X215760Y225244D01*
X215395Y225789D01*
X215084Y226101D01*
X215315Y226963D01*
Y228155D01*
X215006Y229307D01*
X214410Y230339D01*
X213567Y231182D01*
X212535Y231778D01*
X211383Y232087D01*
X210191D01*
X209040Y231778D01*
X208007Y231182D01*
X207164Y230339D01*
X206568Y229307D01*
X206260Y228155D01*
Y226963D01*
X206568Y225812D01*
X207164Y224779D01*
X208007Y223936D01*
X209040Y223340D01*
X210191Y223032D01*
X211383D01*
X211573Y223082D01*
X211969Y222778D01*
Y215709D01*
X211644Y215521D01*
X210936Y214813D01*
X210436Y213947D01*
X210177Y212981D01*
Y211980D01*
X210436Y211014D01*
X210936Y210148D01*
X211644Y209440D01*
X212510Y208940D01*
X213476Y208681D01*
X214476D01*
X215443Y208940D01*
X216309Y209440D01*
X217016Y210148D01*
X217517Y211014D01*
X217776Y211980D01*
Y212981D01*
X217517Y213947D01*
X217016Y214813D01*
X216309Y215521D01*
X215983Y215709D01*
Y222646D01*
X216260Y223031D01*
X216483Y223032D01*
X221969D01*
Y215709D01*
X221644Y215521D01*
X220936Y214813D01*
X220436Y213947D01*
X220177Y212981D01*
Y211980D01*
X220436Y211014D01*
X220936Y210148D01*
X221644Y209440D01*
X222510Y208940D01*
X223476Y208681D01*
X224477D01*
X225443Y208940D01*
X226309Y209440D01*
X227016Y210148D01*
X227517Y211014D01*
X227776Y211980D01*
Y212981D01*
X227517Y213947D01*
X227016Y214813D01*
X226309Y215521D01*
X225983Y215709D01*
Y224370D01*
X225831Y225138D01*
X225395Y225789D01*
X225315Y225870D01*
Y232087D01*
D02*
G37*
G36*
X191383D02*
X190191D01*
X189040Y231778D01*
X188007Y231182D01*
X187164Y230339D01*
X186568Y229307D01*
X186260Y228155D01*
Y226963D01*
X186568Y225812D01*
X187164Y224779D01*
X188007Y223936D01*
X189040Y223340D01*
X190191Y223032D01*
X191383D01*
X192535Y223340D01*
X193567Y223936D01*
X194410Y224779D01*
X195006Y225812D01*
X195315Y226963D01*
Y228155D01*
X195006Y229307D01*
X194410Y230339D01*
X193567Y231182D01*
X192535Y231778D01*
X191383Y232087D01*
D02*
G37*
G36*
X181383D02*
X180191D01*
X179040Y231778D01*
X178007Y231182D01*
X177164Y230339D01*
X176568Y229307D01*
X176260Y228155D01*
Y226963D01*
X176568Y225812D01*
X177164Y224779D01*
X178007Y223936D01*
X179040Y223340D01*
X180191Y223032D01*
X181383D01*
X182535Y223340D01*
X183567Y223936D01*
X184410Y224779D01*
X185006Y225812D01*
X185315Y226963D01*
Y228155D01*
X185006Y229307D01*
X184410Y230339D01*
X183567Y231182D01*
X182535Y231778D01*
X181383Y232087D01*
D02*
G37*
G36*
X171383D02*
X170191D01*
X169040Y231778D01*
X168007Y231182D01*
X167164Y230339D01*
X166568Y229307D01*
X166260Y228155D01*
Y226963D01*
X166568Y225812D01*
X167164Y224779D01*
X168007Y223936D01*
X169040Y223340D01*
X170191Y223032D01*
X171383D01*
X172535Y223340D01*
X173567Y223936D01*
X174410Y224779D01*
X175006Y225812D01*
X175315Y226963D01*
Y228155D01*
X175006Y229307D01*
X174410Y230339D01*
X173567Y231182D01*
X172535Y231778D01*
X171383Y232087D01*
D02*
G37*
G36*
X161383D02*
X160191D01*
X159040Y231778D01*
X158007Y231182D01*
X157164Y230339D01*
X156568Y229307D01*
X156260Y228155D01*
Y226963D01*
X156568Y225812D01*
X157164Y224779D01*
X158007Y223936D01*
X159040Y223340D01*
X160191Y223032D01*
X161383D01*
X162535Y223340D01*
X163567Y223936D01*
X164410Y224779D01*
X165006Y225812D01*
X165315Y226963D01*
Y228155D01*
X165006Y229307D01*
X164410Y230339D01*
X163567Y231182D01*
X162535Y231778D01*
X161383Y232087D01*
D02*
G37*
G36*
X151383D02*
X150191D01*
X149040Y231778D01*
X148007Y231182D01*
X147164Y230339D01*
X146568Y229307D01*
X146260Y228155D01*
Y226963D01*
X146568Y225812D01*
X147164Y224779D01*
X148007Y223936D01*
X149040Y223340D01*
X150191Y223032D01*
X151383D01*
X152535Y223340D01*
X153567Y223936D01*
X154410Y224779D01*
X155006Y225812D01*
X155315Y226963D01*
Y228155D01*
X155006Y229307D01*
X154410Y230339D01*
X153567Y231182D01*
X152535Y231778D01*
X151383Y232087D01*
D02*
G37*
G36*
X135394D02*
X126339D01*
Y223032D01*
X135394D01*
Y232087D01*
D02*
G37*
G36*
X121462D02*
X120270D01*
X119119Y231778D01*
X118086Y231182D01*
X117243Y230339D01*
X116647Y229307D01*
X116339Y228155D01*
Y226963D01*
X116647Y225812D01*
X117243Y224779D01*
X118086Y223936D01*
X119119Y223340D01*
X120270Y223032D01*
X121462D01*
X122614Y223340D01*
X123646Y223936D01*
X124489Y224779D01*
X125085Y225812D01*
X125394Y226963D01*
Y228155D01*
X125085Y229307D01*
X124489Y230339D01*
X123646Y231182D01*
X122614Y231778D01*
X121462Y232087D01*
D02*
G37*
G36*
X8659Y206986D02*
X7343D01*
Y205405D01*
X6949D01*
X6711Y205357D01*
X5961D01*
X5868Y205396D01*
Y203150D01*
Y200903D01*
X5961Y200942D01*
X6902D01*
X7343Y200570D01*
Y199407D01*
X8659D01*
Y203197D01*
Y206986D01*
D02*
G37*
G36*
X246813Y203034D02*
Y201537D01*
X248309D01*
X248066Y202126D01*
X247401Y202790D01*
X246813Y203034D01*
D02*
G37*
G36*
X245313D02*
X244725Y202790D01*
X244060Y202126D01*
X243817Y201537D01*
X245313D01*
Y203034D01*
D02*
G37*
G36*
X238939D02*
Y201537D01*
X240435D01*
X240192Y202126D01*
X239527Y202790D01*
X238939Y203034D01*
D02*
G37*
G36*
X237439D02*
X236851Y202790D01*
X236186Y202126D01*
X235943Y201537D01*
X237439D01*
Y203034D01*
D02*
G37*
G36*
X248309Y200037D02*
X246813D01*
Y198541D01*
X247401Y198785D01*
X248066Y199449D01*
X248309Y200037D01*
D02*
G37*
G36*
X245313D02*
X243817D01*
X244060Y199449D01*
X244725Y198785D01*
X245313Y198541D01*
Y200037D01*
D02*
G37*
G36*
X240435D02*
X238939D01*
Y198541D01*
X239527Y198785D01*
X240192Y199449D01*
X240435Y200037D01*
D02*
G37*
G36*
X237439D02*
X235943D01*
X236186Y199449D01*
X236851Y198785D01*
X237439Y198541D01*
Y200037D01*
D02*
G37*
G36*
X246813Y195159D02*
Y193663D01*
X248309D01*
X248066Y194252D01*
X247401Y194916D01*
X246813Y195159D01*
D02*
G37*
G36*
X245313D02*
X244725Y194916D01*
X244060Y194252D01*
X243817Y193663D01*
X245313D01*
Y195159D01*
D02*
G37*
G36*
X238939D02*
Y193663D01*
X240435D01*
X240192Y194252D01*
X239527Y194916D01*
X238939Y195159D01*
D02*
G37*
G36*
X237439D02*
X236851Y194916D01*
X236186Y194252D01*
X235943Y193663D01*
X237439D01*
Y195159D01*
D02*
G37*
G36*
X248309Y192163D02*
X246813D01*
Y190667D01*
X247401Y190911D01*
X248066Y191575D01*
X248309Y192163D01*
D02*
G37*
G36*
X245313D02*
X243817D01*
X244060Y191575D01*
X244725Y190911D01*
X245313Y190667D01*
Y192163D01*
D02*
G37*
G36*
X240435D02*
X238939D01*
Y190667D01*
X239527Y190911D01*
X240192Y191575D01*
X240435Y192163D01*
D02*
G37*
G36*
X237439D02*
X235943D01*
X236186Y191575D01*
X236851Y190911D01*
X237439Y190667D01*
Y192163D01*
D02*
G37*
G36*
X244845Y84923D02*
Y83427D01*
X246341D01*
X246097Y84015D01*
X245433Y84680D01*
X244845Y84923D01*
D02*
G37*
G36*
X243344D02*
X242756Y84680D01*
X242092Y84015D01*
X241848Y83427D01*
X243344D01*
Y84923D01*
D02*
G37*
G36*
X223191D02*
Y83427D01*
X224687D01*
X224444Y84015D01*
X223779Y84680D01*
X223191Y84923D01*
D02*
G37*
G36*
X221691D02*
X221103Y84680D01*
X220438Y84015D01*
X220195Y83427D01*
X221691D01*
Y84923D01*
D02*
G37*
G36*
X246341Y81927D02*
X244845D01*
Y80431D01*
X245433Y80675D01*
X246097Y81339D01*
X246341Y81927D01*
D02*
G37*
G36*
X243344D02*
X241848D01*
X242092Y81339D01*
X242756Y80675D01*
X243344Y80431D01*
Y81927D01*
D02*
G37*
G36*
X224687D02*
X223191D01*
Y80431D01*
X223779Y80675D01*
X224444Y81339D01*
X224687Y81927D01*
D02*
G37*
G36*
X248781Y75081D02*
Y73585D01*
X250278D01*
X250034Y74173D01*
X249370Y74837D01*
X248781Y75081D01*
D02*
G37*
G36*
X247282D02*
X246693Y74837D01*
X246029Y74173D01*
X245785Y73585D01*
X247282D01*
Y75081D01*
D02*
G37*
G36*
X250278Y72085D02*
X248781D01*
Y70588D01*
X249370Y70832D01*
X250034Y71497D01*
X250278Y72085D01*
D02*
G37*
G36*
X247282D02*
X245785D01*
X246029Y71497D01*
X246693Y70832D01*
X247282Y70588D01*
Y72085D01*
D02*
G37*
G36*
X250750Y65238D02*
Y63742D01*
X252246D01*
X252003Y64330D01*
X251338Y64995D01*
X250750Y65238D01*
D02*
G37*
G36*
X252246Y62242D02*
X250750D01*
Y60746D01*
X251338Y60989D01*
X252003Y61654D01*
X252246Y62242D01*
D02*
G37*
G36*
X250750Y55396D02*
Y53900D01*
X252246D01*
X252003Y54488D01*
X251338Y55152D01*
X250750Y55396D01*
D02*
G37*
G36*
X249250D02*
X248662Y55152D01*
X247997Y54488D01*
X247754Y53900D01*
X249250D01*
Y55396D01*
D02*
G37*
G36*
X252246Y52400D02*
X250750D01*
Y50903D01*
X251338Y51147D01*
X252003Y51811D01*
X252246Y52400D01*
D02*
G37*
G36*
X249250D02*
X247754D01*
X247997Y51811D01*
X248662Y51147D01*
X249250Y50903D01*
Y52400D01*
D02*
G37*
G36*
X246813Y47522D02*
Y46026D01*
X248309D01*
X248066Y46614D01*
X247401Y47278D01*
X246813Y47522D01*
D02*
G37*
G36*
X245313D02*
X244725Y47278D01*
X244060Y46614D01*
X243817Y46026D01*
X245313D01*
Y47522D01*
D02*
G37*
G36*
X248309Y44526D02*
X246813D01*
Y43029D01*
X247401Y43273D01*
X248066Y43938D01*
X248309Y44526D01*
D02*
G37*
G36*
X245313D02*
X243817D01*
X244060Y43938D01*
X244725Y43273D01*
X245313Y43029D01*
Y44526D01*
D02*
G37*
G36*
X242876Y41616D02*
Y40120D01*
X244372D01*
X244129Y40708D01*
X243464Y41373D01*
X242876Y41616D01*
D02*
G37*
G36*
X241376D02*
X240788Y41373D01*
X240123Y40708D01*
X239880Y40120D01*
X241376D01*
Y41616D01*
D02*
G37*
G36*
X244372Y38620D02*
X242876D01*
Y37124D01*
X243464Y37367D01*
X244129Y38032D01*
X244372Y38620D01*
D02*
G37*
G36*
X241376D02*
X239880D01*
X240123Y38032D01*
X240788Y37367D01*
X241376Y37124D01*
Y38620D01*
D02*
G37*
G36*
X247282Y14549D02*
X246079Y14310D01*
X244861Y13805D01*
X243765Y13073D01*
X242833Y12140D01*
X242100Y11044D01*
X241596Y9826D01*
X241357Y8624D01*
X247282D01*
Y14549D01*
D02*
G37*
G36*
X112955Y199097D02*
Y197600D01*
X114451D01*
X114207Y198188D01*
X113543Y198853D01*
X112955Y199097D01*
D02*
G37*
G36*
X111455D02*
X110867Y198853D01*
X110202Y198188D01*
X109959Y197600D01*
X111455D01*
Y199097D01*
D02*
G37*
G36*
X105081D02*
Y197600D01*
X106577D01*
X106333Y198188D01*
X105669Y198853D01*
X105081Y199097D01*
D02*
G37*
G36*
X103581D02*
X102993Y198853D01*
X102328Y198188D01*
X102085Y197600D01*
X103581D01*
Y199097D01*
D02*
G37*
G36*
X149213Y200825D02*
X145669D01*
X142126D01*
Y198228D01*
X142830D01*
X143148Y197842D01*
X143068Y197441D01*
Y196906D01*
X143029Y196813D01*
X147591D01*
X147709Y196990D01*
X147877Y197835D01*
Y198228D01*
X149213D01*
Y200825D01*
D02*
G37*
G36*
X114451Y196100D02*
X112955D01*
Y194604D01*
X113543Y194848D01*
X114207Y195512D01*
X114451Y196100D01*
D02*
G37*
G36*
X111455D02*
X109959D01*
X110202Y195512D01*
X110867Y194848D01*
X111455Y194604D01*
Y196100D01*
D02*
G37*
G36*
X106577D02*
X105081D01*
Y194604D01*
X105669Y194848D01*
X106333Y195512D01*
X106577Y196100D01*
D02*
G37*
G36*
X103581D02*
X102085D01*
X102328Y195512D01*
X102993Y194848D01*
X103581Y194604D01*
Y196100D01*
D02*
G37*
G36*
X147522Y195313D02*
X146026D01*
Y193817D01*
X146614Y194060D01*
X147278Y194725D01*
X147522Y195313D01*
D02*
G37*
G36*
X144526D02*
X143029D01*
X143273Y194725D01*
X143938Y194060D01*
X144526Y193817D01*
Y195313D01*
D02*
G37*
G36*
X112955Y191223D02*
Y189726D01*
X114451D01*
X114207Y190314D01*
X113543Y190979D01*
X112955Y191223D01*
D02*
G37*
G36*
X111455D02*
X110867Y190979D01*
X110202Y190314D01*
X109959Y189726D01*
X111455D01*
Y191223D01*
D02*
G37*
G36*
X105081D02*
Y189726D01*
X106577D01*
X106333Y190314D01*
X105669Y190979D01*
X105081Y191223D01*
D02*
G37*
G36*
X103581D02*
X102993Y190979D01*
X102328Y190314D01*
X102085Y189726D01*
X103581D01*
Y191223D01*
D02*
G37*
G36*
X114451Y188226D02*
X112955D01*
Y186730D01*
X113543Y186974D01*
X114207Y187638D01*
X114451Y188226D01*
D02*
G37*
G36*
X111455D02*
X109959D01*
X110202Y187638D01*
X110867Y186974D01*
X111455Y186730D01*
Y188226D01*
D02*
G37*
G36*
X106577D02*
X105081D01*
Y186730D01*
X105669Y186974D01*
X106333Y187638D01*
X106577Y188226D01*
D02*
G37*
G36*
X103581D02*
X102085D01*
X102328Y187638D01*
X102993Y186974D01*
X103581Y186730D01*
Y188226D01*
D02*
G37*
G36*
X144451Y187285D02*
Y185789D01*
X145947D01*
X145703Y186377D01*
X145039Y187042D01*
X144451Y187285D01*
D02*
G37*
G36*
X142951D02*
X142363Y187042D01*
X141698Y186377D01*
X141455Y185789D01*
X142951D01*
Y187285D01*
D02*
G37*
G36*
X145947Y184289D02*
X144451D01*
Y182793D01*
X145039Y183037D01*
X145703Y183701D01*
X145947Y184289D01*
D02*
G37*
G36*
X142951D02*
X141455D01*
X141698Y183701D01*
X142363Y183037D01*
X142951Y182793D01*
Y184289D01*
D02*
G37*
G36*
X125553Y184256D02*
Y182089D01*
X127720D01*
X127610Y182501D01*
X127213Y183188D01*
X126652Y183749D01*
X125966Y184145D01*
X125553Y184256D01*
D02*
G37*
G36*
X115553D02*
Y182089D01*
X117720D01*
X117610Y182501D01*
X117213Y183188D01*
X116652Y183749D01*
X115966Y184145D01*
X115553Y184256D01*
D02*
G37*
G36*
X124053Y184256D02*
X123641Y184145D01*
X122954Y183749D01*
X122393Y183188D01*
X121997Y182501D01*
X121886Y182089D01*
X124053D01*
Y184256D01*
D02*
G37*
G36*
X114053D02*
X113641Y184145D01*
X112954Y183749D01*
X112393Y183188D01*
X111997Y182501D01*
X111886Y182089D01*
X114053D01*
Y184256D01*
D02*
G37*
G36*
X124053Y180589D02*
X121886D01*
X121997Y180176D01*
X122393Y179489D01*
X122954Y178928D01*
X123641Y178532D01*
X124053Y178421D01*
Y180589D01*
D02*
G37*
G36*
X114053D02*
X111886D01*
X111997Y180176D01*
X112393Y179489D01*
X112954Y178928D01*
X113641Y178532D01*
X114053Y178421D01*
Y180589D01*
D02*
G37*
G36*
X127720D02*
X125553D01*
Y178421D01*
X125966Y178532D01*
X126652Y178928D01*
X127213Y179489D01*
X127610Y180176D01*
X127720Y180589D01*
D02*
G37*
G36*
X117720D02*
X115553D01*
Y178421D01*
X115966Y178532D01*
X116652Y178928D01*
X117213Y179489D01*
X117610Y180176D01*
X117720Y180589D01*
D02*
G37*
G36*
X85303Y185138D02*
X84303D01*
X83337Y184879D01*
X82470Y184379D01*
X81763Y183671D01*
X81263Y182805D01*
X81004Y181839D01*
Y180838D01*
X81263Y179872D01*
X81763Y179006D01*
X82470Y178298D01*
X83337Y177798D01*
X84303Y177539D01*
X85303D01*
X86270Y177798D01*
X87136Y178298D01*
X87843Y179006D01*
X88343Y179872D01*
X88602Y180838D01*
Y181839D01*
X88343Y182805D01*
X87843Y183671D01*
X87136Y184379D01*
X86270Y184879D01*
X85303Y185138D01*
D02*
G37*
G36*
X138073Y176415D02*
X136577D01*
Y174919D01*
X137165Y175163D01*
X137829Y175827D01*
X138073Y176415D01*
D02*
G37*
G36*
X121616Y175868D02*
Y174372D01*
X123112D01*
X122869Y174960D01*
X122204Y175625D01*
X121616Y175868D01*
D02*
G37*
G36*
X123112Y172872D02*
X121616D01*
Y171376D01*
X122204Y171619D01*
X122869Y172284D01*
X123112Y172872D01*
D02*
G37*
G36*
X130671Y165632D02*
Y164136D01*
X132167D01*
X131924Y164724D01*
X131259Y165388D01*
X130671Y165632D01*
D02*
G37*
G36*
X129171D02*
X128583Y165388D01*
X127919Y164724D01*
X127675Y164136D01*
X129171D01*
Y165632D01*
D02*
G37*
G36*
X103821Y144132D02*
X102325D01*
Y142636D01*
X102913Y142879D01*
X103577Y143544D01*
X103821Y144132D01*
D02*
G37*
G36*
X100825D02*
X99329D01*
X99572Y143544D01*
X100237Y142879D01*
X100825Y142636D01*
Y144132D01*
D02*
G37*
G36*
X105549Y140041D02*
X104961Y139798D01*
X104297Y139133D01*
X104053Y138545D01*
X105549D01*
Y140041D01*
D02*
G37*
G36*
Y137045D02*
X104053D01*
X104297Y136457D01*
X104961Y135793D01*
X105549Y135549D01*
Y137045D01*
D02*
G37*
G36*
X179884Y175475D02*
Y173978D01*
X181380D01*
X181136Y174566D01*
X180472Y175231D01*
X179884Y175475D01*
D02*
G37*
G36*
X178384D02*
X177796Y175231D01*
X177131Y174566D01*
X176888Y173978D01*
X178384D01*
Y175475D01*
D02*
G37*
G36*
X181380Y172478D02*
X179884D01*
Y170982D01*
X180472Y171226D01*
X181136Y171890D01*
X181380Y172478D01*
D02*
G37*
G36*
X178384D02*
X176888D01*
X177131Y171890D01*
X177796Y171226D01*
X178384Y170982D01*
Y172478D01*
D02*
G37*
G36*
X33502Y169963D02*
X32914Y169719D01*
X32249Y169055D01*
X32006Y168466D01*
X33502D01*
Y169963D01*
D02*
G37*
G36*
X42913Y166573D02*
X40120D01*
Y163976D01*
X42913D01*
Y166573D01*
D02*
G37*
G36*
X65303Y185138D02*
X64303D01*
X63337Y184879D01*
X62470Y184379D01*
X61763Y183671D01*
X61263Y182805D01*
X61004Y181839D01*
Y180838D01*
X61263Y179872D01*
X61763Y179006D01*
X62470Y178298D01*
X63337Y177798D01*
X64303Y177539D01*
X65303D01*
X66270Y177798D01*
X67136Y178298D01*
X67843Y179006D01*
X68343Y179872D01*
X68602Y180838D01*
Y181839D01*
X68343Y182805D01*
X67843Y183671D01*
X67136Y184379D01*
X66270Y184879D01*
X65303Y185138D01*
D02*
G37*
G36*
X118388Y154762D02*
X116892D01*
Y153266D01*
X117480Y153509D01*
X118144Y154174D01*
X118388Y154762D01*
D02*
G37*
G36*
X79959Y134136D02*
X79371Y133892D01*
X78706Y133228D01*
X78462Y132640D01*
X79959D01*
Y134136D01*
D02*
G37*
G36*
X39785Y137008D02*
X38955D01*
X38154Y136793D01*
X37436Y136379D01*
X36850Y135792D01*
X36435Y135074D01*
X36220Y134273D01*
Y133444D01*
X36435Y132643D01*
X36850Y131924D01*
X37436Y131338D01*
X38154Y130923D01*
X38955Y130709D01*
X39785D01*
X40586Y130923D01*
X41304Y131338D01*
X41890Y131924D01*
X42305Y132643D01*
X42520Y133444D01*
Y134273D01*
X42305Y135074D01*
X41890Y135792D01*
X41304Y136379D01*
X40586Y136793D01*
X39785Y137008D01*
D02*
G37*
G36*
X79959Y131140D02*
X78462D01*
X78706Y130552D01*
X79371Y129887D01*
X79959Y129644D01*
Y131140D01*
D02*
G37*
G36*
Y126262D02*
X79371Y126018D01*
X78706Y125354D01*
X78462Y124766D01*
X79959D01*
Y126262D01*
D02*
G37*
G36*
X39785Y129134D02*
X38955D01*
X38154Y128919D01*
X37436Y128505D01*
X36850Y127918D01*
X36435Y127200D01*
X36220Y126399D01*
Y125570D01*
X36435Y124769D01*
X36850Y124050D01*
X37436Y123464D01*
X38154Y123049D01*
X38955Y122835D01*
X39785D01*
X40586Y123049D01*
X41304Y123464D01*
X41890Y124050D01*
X42305Y124769D01*
X42520Y125570D01*
Y126399D01*
X42305Y127200D01*
X41890Y127918D01*
X41304Y128505D01*
X40586Y128919D01*
X39785Y129134D01*
D02*
G37*
G36*
X26341Y124293D02*
Y122797D01*
X27837D01*
X27593Y123385D01*
X26929Y124050D01*
X26341Y124293D01*
D02*
G37*
G36*
X24841D02*
X24252Y124050D01*
X23588Y123385D01*
X23344Y122797D01*
X24841D01*
Y124293D01*
D02*
G37*
G36*
X18466D02*
Y122797D01*
X19963D01*
X19719Y123385D01*
X19055Y124050D01*
X18466Y124293D01*
D02*
G37*
G36*
X16966D02*
X16378Y124050D01*
X15714Y123385D01*
X15470Y122797D01*
X16966D01*
Y124293D01*
D02*
G37*
G36*
X79959Y123266D02*
X78462D01*
X78706Y122678D01*
X79371Y122013D01*
X79959Y121770D01*
Y123266D01*
D02*
G37*
G36*
X27837Y121297D02*
X26341D01*
Y119801D01*
X26929Y120045D01*
X27593Y120709D01*
X27837Y121297D01*
D02*
G37*
G36*
X24841D02*
X23344D01*
X23588Y120709D01*
X24252Y120045D01*
X24841Y119801D01*
Y121297D01*
D02*
G37*
G36*
X19963D02*
X18466D01*
Y119801D01*
X19055Y120045D01*
X19719Y120709D01*
X19963Y121297D01*
D02*
G37*
G36*
X16966D02*
X15470D01*
X15714Y120709D01*
X16378Y120045D01*
X16966Y119801D01*
Y121297D01*
D02*
G37*
G36*
X39785Y121260D02*
X38955D01*
X38154Y121045D01*
X37436Y120631D01*
X36850Y120044D01*
X36435Y119326D01*
X36220Y118525D01*
Y117696D01*
X36435Y116894D01*
X36850Y116176D01*
X37436Y115590D01*
X38154Y115175D01*
X38955Y114961D01*
X39785D01*
X40586Y115175D01*
X41304Y115590D01*
X41890Y116176D01*
X42305Y116894D01*
X42520Y117696D01*
Y118525D01*
X42305Y119326D01*
X41890Y120044D01*
X41304Y120631D01*
X40586Y121045D01*
X39785Y121260D01*
D02*
G37*
G36*
X26341Y116419D02*
Y114923D01*
X27837D01*
X27593Y115511D01*
X26929Y116176D01*
X26341Y116419D01*
D02*
G37*
G36*
X24841D02*
X24252Y116176D01*
X23588Y115511D01*
X23344Y114923D01*
X24841D01*
Y116419D01*
D02*
G37*
G36*
X18466D02*
Y114923D01*
X19963D01*
X19719Y115511D01*
X19055Y116176D01*
X18466Y116419D01*
D02*
G37*
G36*
X16966D02*
X16378Y116176D01*
X15714Y115511D01*
X15470Y114923D01*
X16966D01*
Y116419D01*
D02*
G37*
G36*
X27837Y113423D02*
X26341D01*
Y111927D01*
X26929Y112171D01*
X27593Y112835D01*
X27837Y113423D01*
D02*
G37*
G36*
X24841D02*
X23344D01*
X23588Y112835D01*
X24252Y112171D01*
X24841Y111927D01*
Y113423D01*
D02*
G37*
G36*
X19963D02*
X18466D01*
Y111927D01*
X19055Y112171D01*
X19719Y112835D01*
X19963Y113423D01*
D02*
G37*
G36*
X16966D02*
X15470D01*
X15714Y112835D01*
X16378Y112171D01*
X16966Y111927D01*
Y113423D01*
D02*
G37*
G36*
X40120Y112482D02*
Y110986D01*
X41616D01*
X41373Y111574D01*
X40708Y112239D01*
X40120Y112482D01*
D02*
G37*
G36*
X38620D02*
X38032Y112239D01*
X37367Y111574D01*
X37124Y110986D01*
X38620D01*
Y112482D01*
D02*
G37*
G36*
X41616Y109486D02*
X40120D01*
Y107990D01*
X40708Y108234D01*
X41373Y108898D01*
X41616Y109486D01*
D02*
G37*
G36*
X38620D02*
X37124D01*
X37367Y108898D01*
X38032Y108234D01*
X38620Y107990D01*
Y109486D01*
D02*
G37*
G36*
X40120Y104608D02*
Y103112D01*
X41616D01*
X41373Y103700D01*
X40708Y104365D01*
X40120Y104608D01*
D02*
G37*
G36*
X38620D02*
X38032Y104365D01*
X37367Y103700D01*
X37124Y103112D01*
X38620D01*
Y104608D01*
D02*
G37*
G36*
X41616Y101612D02*
X40120D01*
Y100116D01*
X40708Y100360D01*
X41373Y101024D01*
X41616Y101612D01*
D02*
G37*
G36*
X38620D02*
X37124D01*
X37367Y101024D01*
X38032Y100360D01*
X38620Y100116D01*
Y101612D01*
D02*
G37*
G36*
X81459Y57364D02*
Y55868D01*
X82955D01*
X82711Y56456D01*
X82047Y57121D01*
X81459Y57364D01*
D02*
G37*
G36*
X79959D02*
X79371Y57121D01*
X78706Y56456D01*
X78462Y55868D01*
X79959D01*
Y57364D01*
D02*
G37*
G36*
X89333Y57364D02*
Y55868D01*
X90829D01*
X90585Y56456D01*
X89921Y57121D01*
X89333Y57364D01*
D02*
G37*
G36*
X87833D02*
X87245Y57121D01*
X86580Y56456D01*
X86336Y55868D01*
X87833D01*
Y57364D01*
D02*
G37*
G36*
X82955Y54368D02*
X81459D01*
Y52872D01*
X82047Y53115D01*
X82711Y53780D01*
X82955Y54368D01*
D02*
G37*
G36*
X79959D02*
X78462D01*
X78706Y53780D01*
X79371Y53115D01*
X79959Y52872D01*
Y54368D01*
D02*
G37*
G36*
X95707Y54368D02*
X94210D01*
X94454Y53780D01*
X95119Y53115D01*
X95707Y52872D01*
Y54368D01*
D02*
G37*
G36*
X90829D02*
X89333D01*
Y52872D01*
X89921Y53115D01*
X90585Y53780D01*
X90829Y54368D01*
D02*
G37*
G36*
X87833D02*
X86336D01*
X86580Y53780D01*
X87245Y53115D01*
X87833Y52872D01*
Y54368D01*
D02*
G37*
G36*
X97207Y49490D02*
Y47994D01*
X98703D01*
X98459Y48582D01*
X97795Y49247D01*
X97207Y49490D01*
D02*
G37*
G36*
X95707D02*
X95119Y49247D01*
X94454Y48582D01*
X94210Y47994D01*
X95707D01*
Y49490D01*
D02*
G37*
G36*
X89333D02*
Y47994D01*
X90829D01*
X90585Y48582D01*
X89921Y49247D01*
X89333Y49490D01*
D02*
G37*
G36*
X87833D02*
X87245Y49247D01*
X86580Y48582D01*
X86336Y47994D01*
X87833D01*
Y49490D01*
D02*
G37*
G36*
X195160Y137045D02*
X193663D01*
Y135549D01*
X194252Y135793D01*
X194916Y136457D01*
X195160Y137045D01*
D02*
G37*
G36*
X193663Y132167D02*
Y130671D01*
X195160D01*
X194916Y131259D01*
X194252Y131924D01*
X193663Y132167D01*
D02*
G37*
G36*
X195160Y129171D02*
X193663D01*
Y127675D01*
X194252Y127919D01*
X194916Y128583D01*
X195160Y129171D01*
D02*
G37*
G36*
X193663Y124293D02*
Y122797D01*
X195160D01*
X194916Y123385D01*
X194252Y124050D01*
X193663Y124293D01*
D02*
G37*
G36*
X195160Y121297D02*
X193663D01*
Y119801D01*
X194252Y120045D01*
X194916Y120709D01*
X195160Y121297D01*
D02*
G37*
G36*
X89333Y134136D02*
Y132640D01*
X90829D01*
X90585Y133228D01*
X89921Y133892D01*
X89333Y134136D01*
D02*
G37*
G36*
X90829Y131140D02*
X89333D01*
Y129644D01*
X89921Y129887D01*
X90585Y130552D01*
X90829Y131140D01*
D02*
G37*
G36*
X89333Y126262D02*
Y124766D01*
X90829D01*
X90585Y125354D01*
X89921Y126018D01*
X89333Y126262D01*
D02*
G37*
G36*
X90829Y123266D02*
X89333D01*
Y121770D01*
X89921Y122013D01*
X90585Y122678D01*
X90829Y123266D01*
D02*
G37*
G36*
X103112Y122325D02*
Y120829D01*
X104608D01*
X104365Y121417D01*
X103700Y122081D01*
X103112Y122325D01*
D02*
G37*
G36*
X101612D02*
X101024Y122081D01*
X100360Y121417D01*
X100116Y120829D01*
X101612D01*
Y122325D01*
D02*
G37*
G36*
X104608Y119329D02*
X103112D01*
Y117833D01*
X103700Y118076D01*
X104365Y118741D01*
X104608Y119329D01*
D02*
G37*
G36*
X101612D02*
X100116D01*
X100360Y118741D01*
X101024Y118076D01*
X101612Y117833D01*
Y119329D01*
D02*
G37*
G36*
X116892Y106577D02*
Y105081D01*
X118388D01*
X118144Y105669D01*
X117480Y106333D01*
X116892Y106577D01*
D02*
G37*
G36*
X115392D02*
X114804Y106333D01*
X114139Y105669D01*
X113896Y105081D01*
X115392D01*
Y106577D01*
D02*
G37*
G36*
X109018D02*
Y105081D01*
X110514D01*
X110270Y105669D01*
X109606Y106333D01*
X109018Y106577D01*
D02*
G37*
G36*
X107518D02*
X106930Y106333D01*
X106265Y105669D01*
X106022Y105081D01*
X107518D01*
Y106577D01*
D02*
G37*
G36*
X118388Y103581D02*
X116892D01*
Y102085D01*
X117480Y102328D01*
X118144Y102993D01*
X118388Y103581D01*
D02*
G37*
G36*
X115392D02*
X113896D01*
X114139Y102993D01*
X114804Y102328D01*
X115392Y102085D01*
Y103581D01*
D02*
G37*
G36*
X110514D02*
X109018D01*
Y102085D01*
X109606Y102328D01*
X110270Y102993D01*
X110514Y103581D01*
D02*
G37*
G36*
X107518D02*
X106022D01*
X106265Y102993D01*
X106930Y102328D01*
X107518Y102085D01*
Y103581D01*
D02*
G37*
G36*
X116892Y90829D02*
Y89333D01*
X118388D01*
X118144Y89921D01*
X117480Y90585D01*
X116892Y90829D01*
D02*
G37*
G36*
X115392D02*
X114804Y90585D01*
X114139Y89921D01*
X113896Y89333D01*
X115392D01*
Y90829D01*
D02*
G37*
G36*
X110986D02*
Y89333D01*
X112482D01*
X112239Y89921D01*
X111574Y90585D01*
X110986Y90829D01*
D02*
G37*
G36*
X109486D02*
X108898Y90585D01*
X108234Y89921D01*
X107990Y89333D01*
X109486D01*
Y90829D01*
D02*
G37*
G36*
X103112D02*
Y89333D01*
X104608D01*
X104365Y89921D01*
X103700Y90585D01*
X103112Y90829D01*
D02*
G37*
G36*
X101612D02*
X101024Y90585D01*
X100360Y89921D01*
X100116Y89333D01*
X101612D01*
Y90829D01*
D02*
G37*
G36*
X95238D02*
Y89333D01*
X96734D01*
X96491Y89921D01*
X95826Y90585D01*
X95238Y90829D01*
D02*
G37*
G36*
X93738D02*
X93150Y90585D01*
X92486Y89921D01*
X92242Y89333D01*
X93738D01*
Y90829D01*
D02*
G37*
G36*
X118388Y87833D02*
X116892D01*
Y86336D01*
X117480Y86580D01*
X118144Y87245D01*
X118388Y87833D01*
D02*
G37*
G36*
X115392D02*
X113896D01*
X114139Y87245D01*
X114804Y86580D01*
X115392Y86336D01*
Y87833D01*
D02*
G37*
G36*
X112482D02*
X110986D01*
Y86336D01*
X111574Y86580D01*
X112239Y87245D01*
X112482Y87833D01*
D02*
G37*
G36*
X109486D02*
X107990D01*
X108234Y87245D01*
X108898Y86580D01*
X109486Y86336D01*
Y87833D01*
D02*
G37*
G36*
X104608D02*
X103112D01*
Y86336D01*
X103700Y86580D01*
X104365Y87245D01*
X104608Y87833D01*
D02*
G37*
G36*
X101612D02*
X100116D01*
X100360Y87245D01*
X101024Y86580D01*
X101612Y86336D01*
Y87833D01*
D02*
G37*
G36*
X96734D02*
X95238D01*
Y86336D01*
X95826Y86580D01*
X96491Y87245D01*
X96734Y87833D01*
D02*
G37*
G36*
X93738D02*
X92242D01*
X92486Y87245D01*
X93150Y86580D01*
X93738Y86336D01*
Y87833D01*
D02*
G37*
G36*
X116892Y82955D02*
Y81459D01*
X118388D01*
X118144Y82047D01*
X117480Y82711D01*
X116892Y82955D01*
D02*
G37*
G36*
X115392D02*
X114804Y82711D01*
X114139Y82047D01*
X113896Y81459D01*
X115392D01*
Y82955D01*
D02*
G37*
G36*
X110986D02*
Y81459D01*
X112482D01*
X112239Y82047D01*
X111574Y82711D01*
X110986Y82955D01*
D02*
G37*
G36*
X109486D02*
X108898Y82711D01*
X108234Y82047D01*
X107990Y81459D01*
X109486D01*
Y82955D01*
D02*
G37*
G36*
X103112D02*
Y81459D01*
X104608D01*
X104365Y82047D01*
X103700Y82711D01*
X103112Y82955D01*
D02*
G37*
G36*
X101612D02*
X101024Y82711D01*
X100360Y82047D01*
X100116Y81459D01*
X101612D01*
Y82955D01*
D02*
G37*
G36*
X95238D02*
Y81459D01*
X96734D01*
X96491Y82047D01*
X95826Y82711D01*
X95238Y82955D01*
D02*
G37*
G36*
X93738D02*
X93150Y82711D01*
X92486Y82047D01*
X92242Y81459D01*
X93738D01*
Y82955D01*
D02*
G37*
G36*
X118388Y79959D02*
X116892D01*
Y78462D01*
X117480Y78706D01*
X118144Y79371D01*
X118388Y79959D01*
D02*
G37*
G36*
X115392D02*
X113896D01*
X114139Y79371D01*
X114804Y78706D01*
X115392Y78462D01*
Y79959D01*
D02*
G37*
G36*
X112482D02*
X110986D01*
Y78462D01*
X111574Y78706D01*
X112239Y79371D01*
X112482Y79959D01*
D02*
G37*
G36*
X109486D02*
X107990D01*
X108234Y79371D01*
X108898Y78706D01*
X109486Y78462D01*
Y79959D01*
D02*
G37*
G36*
X104608D02*
X103112D01*
Y78462D01*
X103700Y78706D01*
X104365Y79371D01*
X104608Y79959D01*
D02*
G37*
G36*
X101612D02*
X100116D01*
X100360Y79371D01*
X101024Y78706D01*
X101612Y78462D01*
Y79959D01*
D02*
G37*
G36*
X96734D02*
X95238D01*
Y78462D01*
X95826Y78706D01*
X96491Y79371D01*
X96734Y79959D01*
D02*
G37*
G36*
X93738D02*
X92242D01*
X92486Y79371D01*
X93150Y78706D01*
X93738Y78462D01*
Y79959D01*
D02*
G37*
G36*
X110986Y75081D02*
Y73585D01*
X112482D01*
X112239Y74173D01*
X111574Y74837D01*
X110986Y75081D01*
D02*
G37*
G36*
X109486D02*
X108898Y74837D01*
X108234Y74173D01*
X107990Y73585D01*
X109486D01*
Y75081D01*
D02*
G37*
G36*
X103112D02*
Y73585D01*
X104608D01*
X104365Y74173D01*
X103700Y74837D01*
X103112Y75081D01*
D02*
G37*
G36*
X101612D02*
X101024Y74837D01*
X100360Y74173D01*
X100116Y73585D01*
X101612D01*
Y75081D01*
D02*
G37*
G36*
X95238D02*
Y73585D01*
X96734D01*
X96491Y74173D01*
X95826Y74837D01*
X95238Y75081D01*
D02*
G37*
G36*
X93738D02*
X93150Y74837D01*
X92486Y74173D01*
X92242Y73585D01*
X93738D01*
Y75081D01*
D02*
G37*
G36*
X112482Y72085D02*
X110986D01*
Y70588D01*
X111574Y70832D01*
X112239Y71497D01*
X112482Y72085D01*
D02*
G37*
G36*
X109486D02*
X107990D01*
X108234Y71497D01*
X108898Y70832D01*
X109486Y70588D01*
Y72085D01*
D02*
G37*
G36*
X104608D02*
X103112D01*
Y70588D01*
X103700Y70832D01*
X104365Y71497D01*
X104608Y72085D01*
D02*
G37*
G36*
X101612D02*
X100116D01*
X100360Y71497D01*
X101024Y70832D01*
X101612Y70588D01*
Y72085D01*
D02*
G37*
G36*
X96734D02*
X95238D01*
Y70588D01*
X95826Y70832D01*
X96491Y71497D01*
X96734Y72085D01*
D02*
G37*
G36*
X93738D02*
X92242D01*
X92486Y71497D01*
X93150Y70832D01*
X93738Y70588D01*
Y72085D01*
D02*
G37*
G36*
X110986Y67207D02*
Y65711D01*
X112482D01*
X112239Y66299D01*
X111574Y66963D01*
X110986Y67207D01*
D02*
G37*
G36*
X109486D02*
X108898Y66963D01*
X108234Y66299D01*
X107990Y65711D01*
X109486D01*
Y67207D01*
D02*
G37*
G36*
X103112D02*
Y65711D01*
X104608D01*
X104365Y66299D01*
X103700Y66963D01*
X103112Y67207D01*
D02*
G37*
G36*
X101612D02*
X101024Y66963D01*
X100360Y66299D01*
X100116Y65711D01*
X101612D01*
Y67207D01*
D02*
G37*
G36*
X112482Y64211D02*
X110986D01*
Y62714D01*
X111574Y62958D01*
X112239Y63623D01*
X112482Y64211D01*
D02*
G37*
G36*
X109486D02*
X107990D01*
X108234Y63623D01*
X108898Y62958D01*
X109486Y62714D01*
Y64211D01*
D02*
G37*
G36*
X104608D02*
X103112D01*
Y62714D01*
X103700Y62958D01*
X104365Y63623D01*
X104608Y64211D01*
D02*
G37*
G36*
X101612D02*
X100116D01*
X100360Y63623D01*
X101024Y62958D01*
X101612Y62714D01*
Y64211D01*
D02*
G37*
G36*
X118860Y57364D02*
Y55868D01*
X120356D01*
X120113Y56456D01*
X119448Y57121D01*
X118860Y57364D01*
D02*
G37*
G36*
X117360D02*
X116772Y57121D01*
X116108Y56456D01*
X115864Y55868D01*
X117360D01*
Y57364D01*
D02*
G37*
G36*
X112955Y57364D02*
Y55868D01*
X114451D01*
X114207Y56456D01*
X113543Y57121D01*
X112955Y57364D01*
D02*
G37*
G36*
X111455D02*
X110867Y57121D01*
X110202Y56456D01*
X109959Y55868D01*
X111455D01*
Y57364D01*
D02*
G37*
G36*
X120356Y54368D02*
X118860D01*
Y52872D01*
X119448Y53115D01*
X120113Y53780D01*
X120356Y54368D01*
D02*
G37*
G36*
X117360D02*
X115864D01*
X116108Y53780D01*
X116772Y53115D01*
X117360Y52872D01*
Y54368D01*
D02*
G37*
G36*
X114451Y54368D02*
X112955D01*
Y52872D01*
X113543Y53115D01*
X114207Y53780D01*
X114451Y54368D01*
D02*
G37*
G36*
X111455D02*
X109959D01*
X110202Y53780D01*
X110867Y53115D01*
X111455Y52872D01*
Y54368D01*
D02*
G37*
G36*
X126734Y51459D02*
Y49963D01*
X128230D01*
X127987Y50551D01*
X127322Y51215D01*
X126734Y51459D01*
D02*
G37*
G36*
X125234D02*
X124646Y51215D01*
X123982Y50551D01*
X123738Y49963D01*
X125234D01*
Y51459D01*
D02*
G37*
G36*
X118860Y49490D02*
Y47994D01*
X120356D01*
X120113Y48582D01*
X119448Y49247D01*
X118860Y49490D01*
D02*
G37*
G36*
X117360D02*
X116772Y49247D01*
X116108Y48582D01*
X115864Y47994D01*
X117360D01*
Y49490D01*
D02*
G37*
G36*
X128230Y48463D02*
X126734D01*
Y46966D01*
X127322Y47210D01*
X127987Y47875D01*
X128230Y48463D01*
D02*
G37*
G36*
X125234D02*
X123738D01*
X123982Y47875D01*
X124646Y47210D01*
X125234Y46966D01*
Y48463D01*
D02*
G37*
G36*
X120356Y46494D02*
X118860D01*
Y44998D01*
X119448Y45241D01*
X120113Y45906D01*
X120356Y46494D01*
D02*
G37*
G36*
X214726Y184137D02*
Y181970D01*
X216893D01*
X216783Y182383D01*
X216386Y183070D01*
X215826Y183630D01*
X215139Y184027D01*
X214726Y184137D01*
D02*
G37*
G36*
X213226Y184137D02*
X212814Y184027D01*
X212127Y183630D01*
X211566Y183070D01*
X211170Y182383D01*
X211059Y181970D01*
X213226D01*
Y184137D01*
D02*
G37*
G36*
Y180470D02*
X211059D01*
X211170Y180058D01*
X211566Y179371D01*
X212127Y178810D01*
X212814Y178414D01*
X213226Y178303D01*
Y180470D01*
D02*
G37*
G36*
X223226D02*
X221059D01*
X221170Y180058D01*
X221566Y179371D01*
X222127Y178810D01*
X222814Y178414D01*
X223226Y178303D01*
Y180470D01*
D02*
G37*
G36*
X226893D02*
X224726D01*
Y178303D01*
X225139Y178414D01*
X225826Y178810D01*
X226386Y179371D01*
X226783Y180058D01*
X226893Y180470D01*
D02*
G37*
G36*
X216893D02*
X214726D01*
Y178303D01*
X215139Y178414D01*
X215826Y178810D01*
X216386Y179371D01*
X216783Y180058D01*
X216893Y180470D01*
D02*
G37*
G36*
X217285Y175475D02*
Y173978D01*
X218782D01*
X218538Y174566D01*
X217874Y175231D01*
X217285Y175475D01*
D02*
G37*
G36*
X218782Y172478D02*
X217285D01*
Y170982D01*
X217874Y171226D01*
X218538Y171890D01*
X218782Y172478D01*
D02*
G37*
G36*
X212856Y176673D02*
Y173228D01*
Y169783D01*
X215158D01*
Y171021D01*
X215693D01*
X215785Y170982D01*
Y173228D01*
Y175475D01*
X215693Y175436D01*
X215158D01*
Y176673D01*
X212856D01*
D02*
G37*
G36*
X225160Y171537D02*
Y170041D01*
X226656D01*
X226412Y170629D01*
X225747Y171294D01*
X225160Y171537D01*
D02*
G37*
G36*
X223659D02*
X223071Y171294D01*
X222407Y170629D01*
X222163Y170041D01*
X223659D01*
Y171537D01*
D02*
G37*
G36*
X226656Y168541D02*
X225160D01*
Y167045D01*
X225747Y167289D01*
X226412Y167953D01*
X226656Y168541D01*
D02*
G37*
G36*
X223659D02*
X222163D01*
X222407Y167953D01*
X223071Y167289D01*
X223659Y167045D01*
Y168541D01*
D02*
G37*
G36*
X213348Y138073D02*
Y136577D01*
X214845D01*
X214601Y137165D01*
X213936Y137829D01*
X213348Y138073D01*
D02*
G37*
G36*
X211848D02*
X211260Y137829D01*
X210596Y137165D01*
X210352Y136577D01*
X211848D01*
Y138073D01*
D02*
G37*
G36*
X214845Y135077D02*
X213348D01*
Y133581D01*
X213936Y133824D01*
X214601Y134489D01*
X214845Y135077D01*
D02*
G37*
G36*
X211848D02*
X210352D01*
X210596Y134489D01*
X211260Y133824D01*
X211848Y133581D01*
Y135077D01*
D02*
G37*
G36*
X207443Y134136D02*
Y132640D01*
X208939D01*
X208696Y133228D01*
X208031Y133892D01*
X207443Y134136D01*
D02*
G37*
G36*
X205943D02*
X205355Y133892D01*
X204690Y133228D01*
X204447Y132640D01*
X205943D01*
Y134136D01*
D02*
G37*
G36*
X208939Y131140D02*
X207443D01*
Y129644D01*
X208031Y129887D01*
X208696Y130552D01*
X208939Y131140D01*
D02*
G37*
G36*
X205943D02*
X204447D01*
X204690Y130552D01*
X205355Y129887D01*
X205943Y129644D01*
Y131140D01*
D02*
G37*
G36*
X207443Y126262D02*
Y124766D01*
X208939D01*
X208696Y125354D01*
X208031Y126018D01*
X207443Y126262D01*
D02*
G37*
G36*
X205943D02*
X205355Y126018D01*
X204690Y125354D01*
X204447Y124766D01*
X205943D01*
Y126262D01*
D02*
G37*
G36*
X208939Y123266D02*
X207443D01*
Y121770D01*
X208031Y122013D01*
X208696Y122678D01*
X208939Y123266D01*
D02*
G37*
G36*
X205943D02*
X204447D01*
X204690Y122678D01*
X205355Y122013D01*
X205943Y121770D01*
Y123266D01*
D02*
G37*
G36*
X142482Y112482D02*
Y110986D01*
X143978D01*
X143735Y111574D01*
X143070Y112239D01*
X142482Y112482D01*
D02*
G37*
G36*
X143978Y109486D02*
X142482D01*
Y107990D01*
X143070Y108234D01*
X143735Y108898D01*
X143978Y109486D01*
D02*
G37*
G36*
X140982D02*
X139486D01*
X139730Y108898D01*
X140394Y108234D01*
X140982Y107990D01*
Y109486D01*
D02*
G37*
G36*
X140514Y106577D02*
Y105081D01*
X142010D01*
X141766Y105669D01*
X141102Y106333D01*
X140514Y106577D01*
D02*
G37*
G36*
X139014D02*
X138426Y106333D01*
X137761Y105669D01*
X137518Y105081D01*
X139014D01*
Y106577D01*
D02*
G37*
G36*
X142010Y103581D02*
X140514D01*
Y102085D01*
X141102Y102328D01*
X141766Y102993D01*
X142010Y103581D01*
D02*
G37*
G36*
X139014D02*
X137518D01*
X137761Y102993D01*
X138426Y102328D01*
X139014Y102085D01*
Y103581D01*
D02*
G37*
G36*
X140514Y100671D02*
Y99175D01*
X142010D01*
X141766Y99763D01*
X141102Y100428D01*
X140514Y100671D01*
D02*
G37*
G36*
X142010Y97675D02*
X140514D01*
Y96179D01*
X141102Y96423D01*
X141766Y97087D01*
X142010Y97675D01*
D02*
G37*
G36*
X183427Y114057D02*
Y112561D01*
X184923D01*
X184680Y113149D01*
X184015Y113814D01*
X183427Y114057D01*
D02*
G37*
G36*
X184923Y111061D02*
X183427D01*
Y109565D01*
X184015Y109808D01*
X184680Y110473D01*
X184923Y111061D01*
D02*
G37*
G36*
X154293Y100671D02*
Y99175D01*
X155789D01*
X155546Y99763D01*
X154881Y100428D01*
X154293Y100671D01*
D02*
G37*
G36*
X155789Y97675D02*
X154293D01*
Y96179D01*
X154881Y96423D01*
X155546Y97087D01*
X155789Y97675D01*
D02*
G37*
G36*
X206971Y50431D02*
X205474D01*
Y48935D01*
X206063Y49178D01*
X206727Y49843D01*
X206971Y50431D01*
D02*
G37*
G36*
X203974D02*
X202478D01*
X202722Y49843D01*
X203386Y49178D01*
X203974Y48935D01*
Y50431D01*
D02*
G37*
G36*
X211380Y49490D02*
Y47994D01*
X212876D01*
X212632Y48582D01*
X211968Y49247D01*
X211380Y49490D01*
D02*
G37*
G36*
X209880D02*
X209292Y49247D01*
X208627Y48582D01*
X208384Y47994D01*
X209880D01*
Y49490D01*
D02*
G37*
G36*
X212876Y46494D02*
X211380D01*
Y44998D01*
X211968Y45241D01*
X212632Y45906D01*
X212876Y46494D01*
D02*
G37*
G36*
X209880D02*
X208384D01*
X208627Y45906D01*
X209292Y45241D01*
X209880Y44998D01*
Y46494D01*
D02*
G37*
G36*
X144458Y36652D02*
X141537D01*
Y33730D01*
X142231Y33916D01*
X143084Y34409D01*
X143780Y35105D01*
X144273Y35958D01*
X144458Y36652D01*
D02*
G37*
G36*
X134458D02*
X131537D01*
Y33730D01*
X132231Y33916D01*
X133084Y34409D01*
X133780Y35105D01*
X134273Y35958D01*
X134458Y36652D01*
D02*
G37*
G36*
X140037D02*
X137116D01*
X137302Y35958D01*
X137794Y35105D01*
X138491Y34409D01*
X139344Y33916D01*
X140037Y33730D01*
Y36652D01*
D02*
G37*
G36*
X20435Y73604D02*
Y67679D01*
X26360D01*
X26121Y68881D01*
X25616Y70099D01*
X24884Y71196D01*
X23952Y72128D01*
X22855Y72860D01*
X21637Y73365D01*
X20435Y73604D01*
D02*
G37*
G36*
X18935D02*
X17733Y73365D01*
X16515Y72860D01*
X15419Y72128D01*
X14486Y71196D01*
X13754Y70099D01*
X13249Y68881D01*
X13010Y67679D01*
X18935D01*
Y73604D01*
D02*
G37*
G36*
X26360Y66179D02*
X20435D01*
Y60254D01*
X21637Y60493D01*
X22855Y60998D01*
X23952Y61730D01*
X24884Y62663D01*
X25616Y63759D01*
X26121Y64977D01*
X26360Y66179D01*
D02*
G37*
G36*
X18935D02*
X13010D01*
X13249Y64977D01*
X13754Y63759D01*
X14486Y62663D01*
X15419Y61730D01*
X16515Y60998D01*
X17733Y60493D01*
X18935Y60254D01*
Y66179D01*
D02*
G37*
G36*
X128703Y21931D02*
Y20435D01*
X130199D01*
X129955Y21023D01*
X129291Y21688D01*
X128703Y21931D01*
D02*
G37*
G36*
X127203D02*
X126615Y21688D01*
X125950Y21023D01*
X125707Y20435D01*
X127203D01*
Y21931D01*
D02*
G37*
G36*
X122797D02*
Y20435D01*
X124293D01*
X124050Y21023D01*
X123385Y21688D01*
X122797Y21931D01*
D02*
G37*
G36*
X121297D02*
X120709Y21688D01*
X120045Y21023D01*
X119801Y20435D01*
X121297D01*
Y21931D01*
D02*
G37*
G36*
X116892D02*
Y20435D01*
X118388D01*
X118144Y21023D01*
X117480Y21688D01*
X116892Y21931D01*
D02*
G37*
G36*
X115392D02*
X114804Y21688D01*
X114139Y21023D01*
X113896Y20435D01*
X115392D01*
Y21931D01*
D02*
G37*
G36*
X110986D02*
Y20435D01*
X112482D01*
X112239Y21023D01*
X111574Y21688D01*
X110986Y21931D01*
D02*
G37*
G36*
X109486D02*
X108898Y21688D01*
X108234Y21023D01*
X107990Y20435D01*
X109486D01*
Y21931D01*
D02*
G37*
G36*
X105081D02*
Y20435D01*
X106577D01*
X106333Y21023D01*
X105669Y21688D01*
X105081Y21931D01*
D02*
G37*
G36*
X103581D02*
X102993Y21688D01*
X102328Y21023D01*
X102085Y20435D01*
X103581D01*
Y21931D01*
D02*
G37*
G36*
X88152Y21538D02*
Y20041D01*
X89648D01*
X89404Y20629D01*
X88740Y21294D01*
X88152Y21538D01*
D02*
G37*
G36*
X130199Y18935D02*
X128703D01*
Y17439D01*
X129291Y17683D01*
X129955Y18347D01*
X130199Y18935D01*
D02*
G37*
G36*
X127203D02*
X125707D01*
X125950Y18347D01*
X126615Y17683D01*
X127203Y17439D01*
Y18935D01*
D02*
G37*
G36*
X124293D02*
X122797D01*
Y17439D01*
X123385Y17683D01*
X124050Y18347D01*
X124293Y18935D01*
D02*
G37*
G36*
X121297D02*
X119801D01*
X120045Y18347D01*
X120709Y17683D01*
X121297Y17439D01*
Y18935D01*
D02*
G37*
G36*
X118388D02*
X116892D01*
Y17439D01*
X117480Y17683D01*
X118144Y18347D01*
X118388Y18935D01*
D02*
G37*
G36*
X115392D02*
X113896D01*
X114139Y18347D01*
X114804Y17683D01*
X115392Y17439D01*
Y18935D01*
D02*
G37*
G36*
X112482D02*
X110986D01*
Y17439D01*
X111574Y17683D01*
X112239Y18347D01*
X112482Y18935D01*
D02*
G37*
G36*
X109486D02*
X107990D01*
X108234Y18347D01*
X108898Y17683D01*
X109486Y17439D01*
Y18935D01*
D02*
G37*
G36*
X106577D02*
X105081D01*
Y17439D01*
X105669Y17683D01*
X106333Y18347D01*
X106577Y18935D01*
D02*
G37*
G36*
X103581D02*
X102085D01*
X102328Y18347D01*
X102993Y17683D01*
X103581Y17439D01*
Y18935D01*
D02*
G37*
G36*
X89648Y18541D02*
X88152D01*
Y17045D01*
X88740Y17289D01*
X89404Y17953D01*
X89648Y18541D01*
D02*
G37*
G36*
X164136Y21931D02*
Y20435D01*
X165632D01*
X165388Y21023D01*
X164724Y21688D01*
X164136Y21931D01*
D02*
G37*
G36*
X162636D02*
X162048Y21688D01*
X161383Y21023D01*
X161140Y20435D01*
X162636D01*
Y21931D01*
D02*
G37*
G36*
X165632Y18935D02*
X164136D01*
Y17439D01*
X164724Y17683D01*
X165388Y18347D01*
X165632Y18935D01*
D02*
G37*
G36*
X162636D02*
X161140D01*
X161383Y18347D01*
X162048Y17683D01*
X162636Y17439D01*
Y18935D01*
D02*
G37*
G36*
X225160Y14057D02*
Y12561D01*
X226656D01*
X226412Y13149D01*
X225747Y13814D01*
X225160Y14057D01*
D02*
G37*
G36*
X223659D02*
X223071Y13814D01*
X222407Y13149D01*
X222163Y12561D01*
X223659D01*
Y14057D01*
D02*
G37*
G36*
X219254D02*
Y12561D01*
X220750D01*
X220507Y13149D01*
X219842Y13814D01*
X219254Y14057D01*
D02*
G37*
G36*
X217754D02*
X217166Y13814D01*
X216501Y13149D01*
X216258Y12561D01*
X217754D01*
Y14057D01*
D02*
G37*
G36*
X213348D02*
Y12561D01*
X214845D01*
X214601Y13149D01*
X213936Y13814D01*
X213348Y14057D01*
D02*
G37*
G36*
X211848D02*
X211260Y13814D01*
X210596Y13149D01*
X210352Y12561D01*
X211848D01*
Y14057D01*
D02*
G37*
G36*
X207443D02*
Y12561D01*
X208939D01*
X208696Y13149D01*
X208031Y13814D01*
X207443Y14057D01*
D02*
G37*
G36*
X205943D02*
X205355Y13814D01*
X204690Y13149D01*
X204447Y12561D01*
X205943D01*
Y14057D01*
D02*
G37*
G36*
X201537D02*
Y12561D01*
X203034D01*
X202790Y13149D01*
X202126Y13814D01*
X201537Y14057D01*
D02*
G37*
G36*
X200037D02*
X199449Y13814D01*
X198785Y13149D01*
X198541Y12561D01*
X200037D01*
Y14057D01*
D02*
G37*
G36*
X226656Y11061D02*
X225160D01*
Y9565D01*
X225747Y9808D01*
X226412Y10473D01*
X226656Y11061D01*
D02*
G37*
G36*
X223659D02*
X222163D01*
X222407Y10473D01*
X223071Y9808D01*
X223659Y9565D01*
Y11061D01*
D02*
G37*
G36*
X220750D02*
X219254D01*
Y9565D01*
X219842Y9808D01*
X220507Y10473D01*
X220750Y11061D01*
D02*
G37*
G36*
X217754D02*
X216258D01*
X216501Y10473D01*
X217166Y9808D01*
X217754Y9565D01*
Y11061D01*
D02*
G37*
G36*
X214845D02*
X213348D01*
Y9565D01*
X213936Y9808D01*
X214601Y10473D01*
X214845Y11061D01*
D02*
G37*
G36*
X211848D02*
X210352D01*
X210596Y10473D01*
X211260Y9808D01*
X211848Y9565D01*
Y11061D01*
D02*
G37*
G36*
X208939D02*
X207443D01*
Y9565D01*
X208031Y9808D01*
X208696Y10473D01*
X208939Y11061D01*
D02*
G37*
G36*
X205943D02*
X204447D01*
X204690Y10473D01*
X205355Y9808D01*
X205943Y9565D01*
Y11061D01*
D02*
G37*
G36*
X203034D02*
X201537D01*
Y9565D01*
X202126Y9808D01*
X202790Y10473D01*
X203034Y11061D01*
D02*
G37*
G36*
X200037D02*
X198541D01*
X198785Y10473D01*
X199449Y9808D01*
X200037Y9565D01*
Y11061D01*
D02*
G37*
%LPD*%
D11*
X220787Y37402D02*
X220787D01*
X214882Y31496D02*
X220787Y37402D01*
X207874Y31496D02*
X214882D01*
X139370Y173622D02*
X146968Y181220D01*
X139370Y165551D02*
Y173622D01*
X137795Y161220D02*
Y163976D01*
X139370Y165551D01*
X146968Y181220D02*
X153976D01*
X183940Y62992D02*
X190945D01*
X170079Y75984D02*
Y89370D01*
X175591Y70473D02*
X179528D01*
X170079Y75984D02*
X175591Y70473D01*
X167323Y76378D02*
Y87402D01*
X175197Y54724D02*
Y68504D01*
X167323Y76378D02*
X175197Y68504D01*
X164961Y75984D02*
Y86614D01*
X173622Y52756D02*
Y67323D01*
X164961Y75984D02*
X173622Y67323D01*
X168110Y69291D02*
X169305D01*
X171653Y66943D01*
Y51575D02*
Y66943D01*
X162598Y74803D02*
X168110Y69291D01*
X162598Y74803D02*
Y85433D01*
X166142Y93307D02*
X170079Y89370D01*
X158661Y96063D02*
X167323Y87402D01*
X160796Y90779D02*
X164961Y86614D01*
X153771Y90779D02*
X160796D01*
X161811Y86221D02*
X162598Y85433D01*
X149213Y103543D02*
X161221Y115551D01*
X149213Y86221D02*
Y103543D01*
X161221Y115551D02*
Y149016D01*
X158661Y96063D02*
Y109843D01*
X166142Y93307D02*
Y96019D01*
X155905Y78544D02*
X156693Y79331D01*
X155905Y68178D02*
X163060Y61024D01*
X155905Y68178D02*
Y78544D01*
X159449Y66929D02*
Y72835D01*
Y66929D02*
X163386Y62992D01*
X166929D01*
X151338Y135039D02*
X153150D01*
X151083Y135295D02*
X151338Y135039D01*
X146850Y135295D02*
X151083D01*
X152362Y129528D02*
X152756Y129134D01*
X151850Y129528D02*
X152362D01*
X151083Y130295D02*
X151850Y129528D01*
X146850Y130295D02*
X151083D01*
X122441Y63386D02*
X122835D01*
X123228Y62992D01*
X127165D01*
X142913Y55512D02*
X143621Y54804D01*
Y54673D02*
X144082Y54211D01*
X148421D01*
X143621Y54673D02*
Y54804D01*
X148421Y54211D02*
X148560Y54072D01*
X162205Y68504D02*
X162992Y67717D01*
Y67390D02*
Y67717D01*
X163453Y66929D02*
X166929D01*
X162992Y67390D02*
X163453Y66929D01*
X202559Y64370D02*
X203543Y65354D01*
X202098Y63780D02*
X202559Y64241D01*
Y64370D01*
X198819Y63780D02*
X202098D01*
X181496Y86221D02*
X183071Y87795D01*
X161024Y28346D02*
Y41339D01*
X143701Y47244D02*
X155118D01*
X161024Y41339D01*
X134252Y56693D02*
Y63780D01*
Y56693D02*
X143701Y47244D01*
X151969Y64961D02*
X175197Y41732D01*
Y30709D02*
Y41732D01*
X176772Y33465D02*
X179134Y31102D01*
X201969D01*
X152756Y66929D02*
X176772Y42913D01*
X175197Y30709D02*
X179921Y25984D01*
X176772Y33465D02*
Y42913D01*
X148425Y66929D02*
X152756D01*
X144488Y64961D02*
X151969D01*
X145696Y71233D02*
X150815D01*
X162992Y59055D01*
X140748Y76181D02*
X145696Y71233D01*
X140748Y76181D02*
Y80315D01*
X29331Y28543D02*
Y32480D01*
X20866Y20079D02*
X29331Y28543D01*
X20866Y14567D02*
Y20079D01*
Y14567D02*
X25197Y10236D01*
X142913D01*
X161024Y28346D01*
X131102Y66929D02*
X134252Y63780D01*
X127165Y66929D02*
X131102D01*
X181496Y79921D02*
Y86221D01*
X180709Y79134D02*
X181496Y79921D01*
X176772Y78347D02*
X180247D01*
X180709Y78808D01*
Y79134D01*
X183465Y76378D02*
Y83858D01*
X187598Y87992D01*
X179527Y72441D02*
X183465Y76378D01*
X185039Y83484D02*
X188169Y86614D01*
X179528Y70473D02*
X185039Y75984D01*
Y83484D01*
X186614Y83071D02*
X188779Y85236D01*
X184252Y72067D02*
X186614Y74429D01*
Y83071D01*
X184252Y67126D02*
Y72067D01*
X166142Y96019D02*
X173627Y103504D01*
X175970Y72441D02*
X179527D01*
X172649Y75762D02*
X175970Y72441D01*
X172649Y75762D02*
Y98297D01*
X175197Y54724D02*
X189518Y40403D01*
X187598Y87992D02*
X204528D01*
X184252Y67126D02*
X184252Y67126D01*
X184252Y66929D02*
Y67126D01*
X188779Y85236D02*
X202559D01*
X203543Y86614D02*
X206693Y83465D01*
X188169Y86614D02*
X203543D01*
X202559Y85236D02*
X205118Y82677D01*
X204528Y87992D02*
X208661Y83858D01*
X206693Y63386D02*
Y83465D01*
X205118Y73819D02*
Y82677D01*
X202559Y71260D02*
X205118Y73819D01*
X202756Y59449D02*
X206693Y63386D01*
X193701Y59449D02*
X202756D01*
X193307Y59843D02*
X193701Y59449D01*
X192981Y59843D02*
X193307D01*
X192520Y60304D02*
Y63780D01*
Y60304D02*
X192981Y59843D01*
X191329Y57480D02*
X204724D01*
X188770Y60039D02*
X191329Y57480D01*
X204724D02*
X208661Y61417D01*
Y83858D01*
X172649Y98297D02*
X175308Y100955D01*
X153051Y90059D02*
X153771Y90779D01*
X153051Y83335D02*
Y90059D01*
X144488Y84632D02*
X146541Y82579D01*
X152295D01*
X144488Y84632D02*
Y90158D01*
X145276Y90945D01*
Y105512D01*
X150787Y111024D01*
Y123228D01*
X156693Y86221D02*
X161811D01*
X163060Y61024D02*
X166929D01*
X162992Y59055D02*
X166929D01*
X140748Y79921D02*
Y88583D01*
X144488Y66929D02*
X148425D01*
X148425Y66929D01*
X149213Y79331D02*
X156693D01*
X152295Y82579D02*
X153051Y83335D01*
X181819Y102294D02*
X184320D01*
X173627Y103504D02*
X180609D01*
X181819Y102294D01*
X175308Y100955D02*
X177754D01*
X188294Y65619D02*
Y81995D01*
X189370Y83071D01*
X187833Y65157D02*
X188294Y65619D01*
X184449Y65157D02*
X187833D01*
X185039Y150789D02*
X186221Y149608D01*
X185039Y150789D02*
Y153740D01*
X186221Y129921D02*
Y149608D01*
X173622Y117323D02*
X186221Y129921D01*
X166142Y117323D02*
X173622D01*
X158661Y109843D02*
X166142Y117323D01*
X169291Y161024D02*
Y207795D01*
X173976Y212480D01*
X158661Y169094D02*
Y207166D01*
X153543Y163976D02*
X158661Y169094D01*
Y207166D02*
X163976Y212480D01*
X111024Y156693D02*
X114567Y160236D01*
X127165D01*
X111024Y138583D02*
Y156693D01*
X91221Y150347D02*
Y154530D01*
X93701Y157010D01*
Y174854D01*
X119291Y125197D02*
X121653Y122835D01*
Y74016D02*
Y122835D01*
X118898Y71260D02*
X121653Y74016D01*
X139370Y134646D02*
X142520Y131496D01*
Y126378D02*
X144882Y124016D01*
X142520Y126378D02*
Y131496D01*
X144882Y124016D02*
X150000D01*
X150787Y123228D01*
X139370Y134646D02*
Y137680D01*
X139682Y137992D01*
X135827Y143701D02*
X139682Y139845D01*
X134252Y143701D02*
X135827D01*
X139682Y137992D02*
Y139845D01*
X111024Y138583D02*
X119291Y130315D01*
Y125197D02*
Y130315D01*
X161221Y149016D02*
X165748Y153543D01*
X118898Y62205D02*
Y71260D01*
X173622Y52756D02*
X185827Y40551D01*
X197972Y33465D02*
X200787Y36280D01*
X186614Y33465D02*
X197972D01*
X185827Y34252D02*
X186614Y33465D01*
X200787Y36280D02*
Y37402D01*
X185827Y34252D02*
Y40551D01*
X171653Y51575D02*
X180663Y42565D01*
Y37526D02*
X180787Y37402D01*
X180663Y37526D02*
Y42565D01*
X189518Y40056D02*
Y40403D01*
Y40056D02*
X190787Y38787D01*
Y37402D02*
Y38787D01*
X127165Y160236D02*
X129921Y157480D01*
X139370D01*
X141142Y155709D01*
Y154921D02*
Y155709D01*
Y154921D02*
X142126Y153937D01*
X118898Y62205D02*
X122047Y59055D01*
X177165Y55905D02*
X182283Y50787D01*
X177165Y55905D02*
Y64567D01*
X179527Y57087D02*
X182677Y53937D01*
X179989Y64961D02*
X184252D01*
X179921Y66535D02*
X180315Y66929D01*
X179527Y57087D02*
Y64499D01*
X179134Y66535D02*
X179921D01*
X179527Y64499D02*
X179989Y64961D01*
X177165Y64567D02*
X179134Y66535D01*
X180315Y66929D02*
X184252D01*
X201969Y31102D02*
X203543Y29528D01*
X179921Y25984D02*
X218504D01*
X227165Y34646D01*
X203543Y29528D02*
X217717D01*
X94803Y175957D02*
Y181339D01*
X93701Y174854D02*
X94803Y175957D01*
X192126Y50787D02*
X200000Y42913D01*
X201969D01*
X182283Y50787D02*
X192126D01*
X220787Y37402D02*
X221767Y36422D01*
Y34532D02*
Y36422D01*
Y34532D02*
X221918Y34381D01*
Y33729D02*
Y34381D01*
X217717Y29528D02*
X221918Y33729D01*
X216693Y43307D02*
X224016D01*
X210787Y37402D02*
X216693Y43307D01*
X224016D02*
X227165Y40157D01*
Y34646D02*
Y40157D01*
X182677Y53937D02*
X194252D01*
X210787Y37402D01*
X205512Y33858D02*
X207874Y31496D01*
X205512Y33858D02*
Y39370D01*
X201969Y42913D02*
X205512Y39370D01*
X184252Y64961D02*
X184449Y65157D01*
X198228Y83071D02*
X199114Y82185D01*
X189370Y83071D02*
X198228D01*
X199114Y71260D02*
X202559D01*
X199114Y78347D02*
Y82185D01*
X188766Y60039D02*
X188770D01*
X184252Y61024D02*
X187781D01*
X188766Y60039D01*
X142126Y153937D02*
X149002D01*
X151364Y156299D01*
X155723D01*
X157087Y154935D01*
Y151181D02*
Y154935D01*
X155131Y149226D02*
X157087Y151181D01*
X148331Y145685D02*
X148668Y146023D01*
X150781Y149226D02*
X155131D01*
X148668Y146023D02*
Y147113D01*
X150781Y149226D01*
X188583Y167520D02*
Y207874D01*
X185039Y163976D02*
X188583Y167520D01*
X183976Y212480D02*
X188583Y207874D01*
X193976Y189094D02*
X199606Y183465D01*
X193976Y189094D02*
Y212480D01*
X48425Y154232D02*
X52264D01*
X62402Y144095D01*
X79151D01*
X81221Y146163D01*
X71221Y150347D02*
X76221D01*
X69845Y155905D02*
X71221Y154530D01*
X56693Y155905D02*
X69845D01*
X71221Y150347D02*
Y154530D01*
X204469Y177815D02*
Y180728D01*
X203976Y181220D02*
X204469Y180728D01*
Y177815D02*
X205217Y177067D01*
Y173228D02*
Y177067D01*
X199606Y166142D02*
X200787Y164961D01*
X199606Y166142D02*
Y183465D01*
X200787Y161417D02*
Y164961D01*
X185039Y161220D02*
Y163976D01*
X153543Y161220D02*
Y163976D01*
X9449Y146850D02*
Y153937D01*
X7480Y155905D02*
X9449Y153937D01*
X7480Y155905D02*
Y173228D01*
X9843Y169685D02*
Y174016D01*
Y169685D02*
X17323Y162205D01*
Y146752D02*
Y162205D01*
X22441Y155512D02*
X25197Y152756D01*
Y146752D02*
Y152756D01*
X22441Y155512D02*
Y164173D01*
X11417Y175197D02*
X22441Y164173D01*
X50000Y162598D02*
Y176535D01*
Y162598D02*
X56693Y155905D01*
X50000Y176535D02*
X54803Y181339D01*
X45276Y191339D02*
Y210630D01*
X50787Y216142D01*
X42167Y188230D02*
X45276Y191339D01*
X42913Y192520D02*
Y213779D01*
X41339Y190945D02*
X42913Y192520D01*
Y213779D02*
X47638Y218504D01*
X200787Y227559D02*
X203976Y224370D01*
Y212480D02*
Y224370D01*
X213976Y212480D02*
Y224370D01*
X210787Y227559D02*
X213976Y224370D01*
X220787Y227559D02*
X223976Y224370D01*
Y212480D02*
Y224370D01*
X106378Y222047D02*
X115354D01*
X124803Y212598D01*
X100866Y227559D02*
X106378Y222047D01*
X81102Y222835D02*
X86221Y217717D01*
X24409Y207087D02*
X40157Y222835D01*
X81102D01*
X86221Y217717D02*
X89685D01*
X94803Y212598D01*
X45276Y220866D02*
X73228D01*
X81398Y212697D01*
X39409Y215000D02*
X45276Y220866D01*
X47638Y218504D02*
X68898D01*
X74803Y212598D01*
X90810Y222047D02*
X96322Y216535D01*
X80866Y227559D02*
X86378Y222047D01*
X90810D01*
X100866Y216535D02*
X104803Y212598D01*
X96322Y216535D02*
X100866D01*
X90866Y227559D02*
X99134Y219291D01*
X108110D01*
X114803Y212598D01*
X104803Y181286D02*
X107185Y178904D01*
X104803Y181286D02*
Y181339D01*
X107185Y177067D02*
Y178904D01*
X107511Y177067D02*
X107972Y176606D01*
Y173228D02*
Y176606D01*
X107185Y177067D02*
X107511D01*
X81221Y146163D02*
Y150347D01*
X35138Y154232D02*
X40551D01*
X25197Y164173D02*
X35138Y154232D01*
X25197Y164173D02*
Y176872D01*
X86221Y150347D02*
X91221D01*
X6693Y177165D02*
X9843Y174016D01*
X11417Y175197D02*
Y175652D01*
X9409Y177659D02*
X11417Y175652D01*
X9409Y177659D02*
Y181842D01*
X24409Y177659D02*
X25197Y176872D01*
X24409Y177659D02*
Y181842D01*
X5315Y175394D02*
X7480Y173228D01*
X5315Y175394D02*
Y189919D01*
X6693Y177165D02*
Y187008D01*
X10236Y190551D01*
X21654D01*
X5315Y189919D02*
X14409Y199014D01*
Y203197D01*
X21654Y190551D02*
X29409Y198307D01*
Y203197D01*
X24409D02*
Y207087D01*
X19409Y203197D02*
X24409D01*
X81398Y212697D02*
X84705D01*
X84803Y212598D01*
X39409Y203197D02*
Y215000D01*
X34409Y203197D02*
X39409D01*
X50787Y216142D02*
X61260D01*
X64803Y212598D01*
X33858Y190945D02*
X41339D01*
X31102Y188189D02*
X33858Y190945D01*
X21573Y188189D02*
X31102D01*
X19409Y186026D02*
X21573Y188189D01*
X19409Y181842D02*
Y186026D01*
X14409Y181842D02*
X19409D01*
X36614Y188230D02*
X42167D01*
X34409Y186026D02*
X36614Y188230D01*
X34409Y181842D02*
Y186026D01*
X29409Y181842D02*
X34409D01*
D14*
X212106Y173228D02*
D03*
X205217D02*
D03*
X192224Y78347D02*
D03*
X199114D02*
D03*
X192224Y71260D02*
D03*
X199114D02*
D03*
X140748Y88583D02*
D03*
X133858D02*
D03*
Y80315D02*
D03*
X140748D02*
D03*
X164469Y122047D02*
D03*
X157579D02*
D03*
X75295Y19685D02*
D03*
X82185D02*
D03*
X107972Y173228D02*
D03*
X114862D02*
D03*
D15*
X176772Y84646D02*
D03*
Y78347D02*
D03*
X57480Y171260D02*
D03*
Y164961D02*
D03*
X64961Y171260D02*
D03*
Y164961D02*
D03*
X125591Y131102D02*
D03*
Y124803D02*
D03*
X169291Y106299D02*
D03*
Y112598D02*
D03*
X134252Y131102D02*
D03*
Y124803D02*
D03*
X175984Y145276D02*
D03*
Y138976D02*
D03*
X145669Y207874D02*
D03*
Y201575D02*
D03*
X39370Y173622D02*
D03*
Y167323D02*
D03*
D16*
X184252Y66929D02*
D03*
Y64961D02*
D03*
Y62992D02*
D03*
Y61024D02*
D03*
Y59055D02*
D03*
X166929D02*
D03*
Y61024D02*
D03*
Y62992D02*
D03*
Y64961D02*
D03*
Y66929D02*
D03*
X144488D02*
D03*
Y64961D02*
D03*
Y62992D02*
D03*
Y61024D02*
D03*
Y59055D02*
D03*
X127165D02*
D03*
Y61024D02*
D03*
Y62992D02*
D03*
Y64961D02*
D03*
Y66929D02*
D03*
D17*
X192520Y63780D02*
D03*
X198819D02*
D03*
D18*
X134252Y143701D02*
D03*
X118504D02*
D03*
X114961Y112992D02*
D03*
X130709D02*
D03*
D19*
X111417Y129429D02*
D03*
Y122539D02*
D03*
X149213Y86221D02*
D03*
Y79331D02*
D03*
X156693D02*
D03*
Y86221D02*
D03*
X48425Y147343D02*
D03*
Y154232D02*
D03*
X40551D02*
D03*
Y147343D02*
D03*
X9449Y139961D02*
D03*
Y146850D02*
D03*
X17323Y139862D02*
D03*
Y146752D02*
D03*
X25197Y139862D02*
D03*
Y146752D02*
D03*
D20*
X198472Y96043D02*
D03*
Y101043D02*
D03*
Y106043D02*
D03*
Y111043D02*
D03*
X177118D02*
D03*
Y106043D02*
D03*
Y101043D02*
D03*
Y96043D02*
D03*
D21*
X153015Y58526D02*
D03*
X148560Y54072D02*
D03*
D22*
X146850Y145295D02*
D03*
Y140295D02*
D03*
Y135295D02*
D03*
Y130295D02*
D03*
X168110Y145295D02*
D03*
Y140295D02*
D03*
Y135295D02*
D03*
Y130295D02*
D03*
D23*
X225984Y152402D02*
D03*
D24*
X200787Y161417D02*
D03*
Y143386D02*
D03*
D25*
X29331Y32480D02*
D03*
Y14764D02*
D03*
X65158D02*
D03*
Y32480D02*
D03*
D26*
X71221Y171701D02*
D03*
X76221D02*
D03*
X81221D02*
D03*
X86221D02*
D03*
X91221D02*
D03*
X96221D02*
D03*
X101221D02*
D03*
Y150347D02*
D03*
X96221D02*
D03*
X91221D02*
D03*
X86221D02*
D03*
X81221D02*
D03*
X76221D02*
D03*
X71221D02*
D03*
X39409Y203197D02*
D03*
X34409D02*
D03*
X29409D02*
D03*
X24409D02*
D03*
X19409D02*
D03*
X14409D02*
D03*
X9409D02*
D03*
Y181842D02*
D03*
X14409D02*
D03*
X19409D02*
D03*
X24409D02*
D03*
X29409D02*
D03*
X34409D02*
D03*
X39409D02*
D03*
D27*
X137795Y161220D02*
D03*
Y153740D02*
D03*
X145669Y157480D02*
D03*
X185039Y161220D02*
D03*
Y153740D02*
D03*
X192913Y157480D02*
D03*
X153543Y161220D02*
D03*
Y153740D02*
D03*
X161417Y157480D02*
D03*
X169291Y161024D02*
D03*
Y153543D02*
D03*
X177165Y157283D02*
D03*
D49*
X19685Y51181D02*
X29331Y41535D01*
Y32480D02*
Y41535D01*
X19685Y51181D02*
X19685D01*
X176772Y84646D02*
Y96043D01*
X140354Y62795D02*
X147733D01*
X103701Y54488D02*
X120787Y37402D01*
X83681Y74508D02*
X103701Y54488D01*
X19685Y98425D02*
X25884Y98636D01*
X26390Y98637D02*
X86459Y42520D01*
X111515D01*
X25884Y98636D02*
X25904Y98637D01*
X26390D01*
X9449Y139961D02*
X17323D01*
X21260D01*
X145276Y196063D02*
Y197441D01*
X145669Y197835D01*
Y201575D01*
X140551Y67844D02*
Y71653D01*
X139370Y66663D02*
X140551Y67844D01*
X139370Y63779D02*
Y66663D01*
X127165Y66929D02*
Y69940D01*
X126378Y70727D02*
Y71260D01*
Y70727D02*
X127165Y69940D01*
X139370Y63779D02*
X140354Y62795D01*
X149707Y60821D02*
X150720D01*
X153015Y58526D01*
X147733Y62795D02*
X149707Y60821D01*
X176378Y115748D02*
X176772D01*
X173228Y112598D02*
X176378Y115748D01*
X169291Y112598D02*
X173228D01*
X181890Y111811D02*
X182677D01*
X181122Y111043D02*
X181890Y111811D01*
X177118Y111043D02*
X181122D01*
X216535Y173228D02*
X216535Y173228D01*
X212106Y173228D02*
X216535D01*
X174803Y133071D02*
Y134055D01*
X175984Y135236D01*
Y138976D01*
X34252Y167717D02*
X34646Y167323D01*
X39370D01*
X5118Y203150D02*
X6902D01*
X6949Y203197D01*
X9409D01*
X118701Y173622D02*
X120866D01*
X118307Y173228D02*
X118701Y173622D01*
X114862Y173228D02*
X118307D01*
X101575Y144882D02*
Y145809D01*
X101221Y146163D02*
X101575Y145809D01*
X101221Y146163D02*
Y150347D01*
X58661Y159449D02*
Y160039D01*
X57480Y161221D02*
X58661Y160039D01*
X57480Y161221D02*
Y164961D01*
X64567Y159843D02*
Y160827D01*
X64961Y161221D01*
Y164961D01*
X86024Y19291D02*
X87402D01*
X85630Y19685D02*
X86024Y19291D01*
X82185Y19685D02*
X85630D01*
X166535Y39764D02*
X168425D01*
X157480Y48819D02*
X166535Y39764D01*
X144882Y48819D02*
X157480D01*
X168425Y39764D02*
X170787Y37402D01*
X157874Y29134D02*
Y41339D01*
X153543Y45669D02*
X157874Y41339D01*
X142520Y45669D02*
X153543D01*
X132283Y55905D02*
X142520Y45669D01*
X125787Y38248D02*
X129075Y41535D01*
X136614Y57087D02*
X144882Y48819D01*
X129075Y41535D02*
X146653D01*
X152756Y43307D02*
X155512Y40551D01*
X125787Y36555D02*
Y38248D01*
X132283Y55905D02*
Y59842D01*
X126378Y43307D02*
X152756D01*
X122500Y33268D02*
X125787Y36555D01*
X136614Y57087D02*
Y69387D01*
X120787Y37402D02*
Y37716D01*
X126378Y43307D01*
X119075Y33268D02*
X122500D01*
X78346Y25591D02*
X148425D01*
X155512Y32677D02*
Y40551D01*
X146653Y41535D02*
X150787Y37402D01*
X148425Y25591D02*
X155512Y32677D01*
X135922Y70079D02*
X136614Y69387D01*
X133858Y70771D02*
X134550Y70079D01*
X135922D01*
X133858Y70771D02*
Y80315D01*
Y88583D02*
Y98032D01*
X141732Y12992D02*
X157874Y29134D01*
X198520Y106043D02*
Y111043D01*
X125591Y84252D02*
X129528Y80315D01*
X133858D01*
X125591Y84252D02*
Y105512D01*
X124409Y106693D02*
X125591Y105512D01*
X184320Y102294D02*
X189370Y107343D01*
X180609Y98583D02*
X184320Y102294D01*
X181083Y96043D02*
X191339Y106299D01*
X177118Y96043D02*
X181083D01*
X191339Y106299D02*
Y110236D01*
X195669Y114567D01*
X202756D01*
X203937Y113386D01*
Y105556D02*
Y113386D01*
X201964Y103583D02*
X203937Y105556D01*
X193772Y102295D02*
X195060Y103583D01*
X201964D01*
X193772Y94416D02*
Y102295D01*
Y94416D02*
X194834Y93356D01*
X191732Y93951D02*
X194100Y91584D01*
X191732Y93951D02*
Y103150D01*
X194100Y91584D02*
X206544D01*
X194834Y93356D02*
X209007D01*
X211417Y90945D01*
X206544Y91584D02*
X230315Y67813D01*
X211417Y90945D02*
X221654D01*
X230315Y62992D02*
Y67813D01*
X198472Y96043D02*
Y101043D01*
X221654Y90945D02*
X227165Y85433D01*
X237402D01*
X204938Y96043D02*
X207874Y98979D01*
X198472Y96043D02*
X204938D01*
X191732Y103150D02*
X194626Y106043D01*
X198472D02*
X198520D01*
X194626D02*
X198472D01*
X175984Y145276D02*
Y148425D01*
X182087Y154527D01*
Y155804D01*
X182778Y156496D01*
X187300D02*
X189370Y154426D01*
Y107343D02*
Y154426D01*
X182778Y156496D02*
X187300D01*
X188821Y157480D02*
X192913D01*
X174213Y157283D02*
X181060D01*
X182045Y158268D02*
X188034D01*
X181060Y157283D02*
X182045Y158268D01*
X188034D02*
X188821Y157480D01*
X177118Y97891D02*
X177810Y98583D01*
X177118Y96043D02*
Y97891D01*
X177810Y98583D02*
X180609D01*
X168303Y106299D02*
X175867D01*
X200787Y120473D02*
X207874Y113386D01*
Y98979D02*
Y113386D01*
X237402Y85433D02*
X246850Y94882D01*
Y168898D01*
X230315Y185433D02*
X246850Y168898D01*
X221260Y185433D02*
X230315D01*
X198819Y207874D02*
X221260Y185433D01*
X198819Y207874D02*
Y216142D01*
X196063Y218898D02*
X198819Y216142D01*
X183465Y218898D02*
X196063D01*
X179134Y214567D02*
X183465Y218898D01*
X71457Y32480D02*
X78346Y25591D01*
X65158Y32480D02*
X71457D01*
X29331D02*
X65158D01*
X83681Y74508D02*
Y157518D01*
X115295Y37047D02*
X119075Y33268D01*
X115295Y37047D02*
Y38740D01*
X111515Y42520D02*
X115295Y38740D01*
X93760Y109783D02*
Y153838D01*
Y109783D02*
X99606Y103937D01*
X94452Y154530D02*
X99018D01*
X71221Y169978D02*
X83681Y157518D01*
X71221Y169978D02*
Y171701D01*
X161417Y157480D02*
X174016D01*
X156769D02*
X161417D01*
X174016D02*
X174213Y157283D01*
X135827Y181102D02*
Y201181D01*
X122934Y168210D02*
X135827Y181102D01*
X99018Y154530D02*
X112698Y168210D01*
X122934D01*
X93760Y153838D02*
X94452Y154530D01*
X96221Y150347D02*
X96260Y150307D01*
Y136339D02*
Y150307D01*
Y136339D02*
X103169Y129429D01*
X124409Y106693D02*
Y119882D01*
X125591Y121063D01*
X137401Y112992D02*
X140157Y115748D01*
X130709Y112992D02*
X137401D01*
X140157Y115748D02*
Y129528D01*
X134252Y131102D02*
X138583D01*
X140157Y129528D01*
X118504Y150000D02*
X122244Y153740D01*
X118504Y143701D02*
Y150000D01*
X122244Y153740D02*
X137795D01*
X130709Y138189D02*
X134252Y134646D01*
X125984Y140157D02*
X127953Y138189D01*
X130709D01*
X125984Y140157D02*
Y146850D01*
X128740Y149606D01*
X142126D01*
X134252Y131102D02*
Y134646D01*
X130315Y131102D02*
X130315Y131102D01*
X125591Y131102D02*
X130315D01*
X130315Y131102D02*
X134252D01*
X129528Y124803D02*
X129528Y124803D01*
X134252D01*
X125591Y124803D02*
X129528D01*
X125591Y121063D02*
Y124803D01*
X142126Y149606D02*
X147244D01*
X142126Y143149D02*
Y149606D01*
Y143149D02*
X144980Y140295D01*
X146850D01*
X148968Y151330D02*
X150936D01*
X147244Y149606D02*
X148968Y151330D01*
X153347Y153740D02*
X153543D01*
X150936Y151330D02*
X153347Y153740D01*
X192913Y154725D02*
Y157480D01*
X165748Y153543D02*
X169291D01*
X148331Y145295D02*
X151162D01*
X146850D02*
X148331D01*
X112694Y119196D02*
Y121657D01*
X111990Y122360D02*
X112694Y121657D01*
Y119196D02*
X114961Y116929D01*
Y112992D02*
Y116929D01*
X122047Y59055D02*
X127165D01*
X231496Y60848D02*
Y61811D01*
X230315Y62992D02*
X231496Y61811D01*
X75987Y12992D02*
X141732D01*
X75295Y13684D02*
Y19685D01*
Y13684D02*
X75987Y12992D01*
X29331Y14764D02*
X61221D01*
X70374D02*
X73228Y17618D01*
X73622D02*
X75295Y19291D01*
X73228Y17618D02*
X73622D01*
X61221Y14764D02*
X70374D01*
X19685Y82677D02*
X25656Y80643D01*
X29593D01*
X79134Y31102D01*
X109055D01*
X103169Y129429D02*
X111417D01*
X184252Y56952D02*
X185692Y55512D01*
X206757D01*
X184252Y56952D02*
Y59055D01*
X192224Y67421D02*
Y71260D01*
X192520Y63780D02*
Y67126D01*
X192224Y67421D02*
X192520Y67126D01*
X192224Y71260D02*
Y75098D01*
X192224Y75098D02*
Y78347D01*
Y75098D02*
X192224Y75098D01*
X229564Y62242D02*
X230315Y62992D01*
X206757Y55512D02*
X213487Y62242D01*
X229564D01*
X150318Y157480D02*
X151105Y158268D01*
X155981D01*
X156769Y157480D01*
X145669D02*
X150318D01*
X151162Y145295D02*
X157579Y138878D01*
X131102Y61024D02*
X132283Y59842D01*
X127165Y61024D02*
X131102D01*
X200787Y120473D02*
Y143386D01*
X157579Y122047D02*
Y138878D01*
X175984Y145276D02*
X180315D01*
X183071Y142520D01*
Y134252D02*
Y142520D01*
X175197Y126378D02*
X183071Y134252D01*
X174505Y122047D02*
X175197Y122739D01*
X164469Y122047D02*
X174505D01*
X175197Y122739D02*
Y126378D01*
X146558Y212480D02*
X153976D01*
X168336Y145069D02*
X175778D01*
X175984Y145276D01*
X168110Y145295D02*
X168336Y145069D01*
X109055Y31102D02*
X110787Y32835D01*
Y37402D01*
X48425Y147343D02*
X48819D01*
X74803Y181339D02*
X101339Y207874D01*
X145669D01*
X36516Y147343D02*
X40551D01*
X29035Y139862D02*
X36516Y147343D01*
X25197Y139862D02*
X29035D01*
X40551Y147343D02*
X48425D01*
X21260Y139961D02*
X21358Y139862D01*
X25197D01*
X192913Y154725D02*
X195236Y152402D01*
X225984D01*
X61024Y171260D02*
X64961D01*
X61024Y171260D02*
X61024Y171260D01*
X57480Y171260D02*
X61024D01*
X50787Y184252D02*
Y211811D01*
X39409Y181842D02*
X48378D01*
X50787Y184252D01*
X145866Y211789D02*
X146558Y212480D01*
X145866Y208071D02*
Y211789D01*
X145669Y207874D02*
X145866Y208071D01*
X39370Y177362D02*
X39409Y177401D01*
Y181842D01*
X39370Y173622D02*
Y177362D01*
X51544Y212568D02*
X54773D01*
X54803Y212598D01*
X50787Y211811D02*
X51544Y212568D01*
X72441Y177104D02*
Y178885D01*
X74803Y181247D02*
Y181339D01*
X72441Y178885D02*
X74803Y181247D01*
X71221Y175884D02*
X72441Y177104D01*
X71221Y171701D02*
Y175884D01*
X70780Y171260D02*
X71221Y171701D01*
X64961Y171260D02*
X70780D01*
X54803Y201339D02*
Y212598D01*
Y201339D02*
X74803Y181339D01*
D50*
X232283Y3937D02*
X236221Y7874D01*
X9449Y20079D02*
Y139961D01*
X25591Y3937D02*
X232283D01*
X9449Y20079D02*
X25591Y3937D01*
X235965Y47331D02*
Y56379D01*
X236221Y7874D02*
Y47075D01*
X231496Y60848D02*
X235965Y56379D01*
Y47331D02*
X236221Y47075D01*
X173976Y181220D02*
X179134Y186378D01*
Y214567D01*
X175591Y218110D02*
X179134Y214567D01*
X153976Y212480D02*
X157756D01*
X163386Y218110D01*
X175591D01*
D51*
X225984Y116535D02*
Y152402D01*
Y108661D02*
Y116535D01*
Y108661D02*
X227559Y116535D01*
X231496Y29528D02*
Y60848D01*
X222441Y20472D02*
X231496Y29528D01*
X170787Y24882D02*
X175197Y20472D01*
X222441D01*
X170787Y24882D02*
Y37402D01*
D52*
X220787D02*
D03*
X210787D02*
D03*
X200787D02*
D03*
X190787D02*
D03*
X180787D02*
D03*
X120866Y227559D02*
D03*
X100866D02*
D03*
X90866D02*
D03*
X80866D02*
D03*
X70866D02*
D03*
X60866D02*
D03*
X50866D02*
D03*
X40866D02*
D03*
X110866D02*
D03*
X140787Y37402D02*
D03*
X130787D02*
D03*
X120787D02*
D03*
X110787D02*
D03*
X100787D02*
D03*
X90787D02*
D03*
X80787D02*
D03*
X210787Y227559D02*
D03*
X200787D02*
D03*
X190787D02*
D03*
X180787D02*
D03*
X170787D02*
D03*
X160787D02*
D03*
X150787D02*
D03*
D53*
X170787Y37402D02*
D03*
X130866Y227559D02*
D03*
X150787Y37402D02*
D03*
X220787Y227559D02*
D03*
D54*
X153976Y212480D02*
D03*
X163976D02*
D03*
X173976D02*
D03*
X183976D02*
D03*
X193976D02*
D03*
X203976D02*
D03*
X213976D02*
D03*
X223976D02*
D03*
Y181220D02*
D03*
X213976D02*
D03*
X203976D02*
D03*
X193976D02*
D03*
X183976D02*
D03*
X173976D02*
D03*
X163976D02*
D03*
X54803Y212598D02*
D03*
X64803D02*
D03*
X74803D02*
D03*
X84803D02*
D03*
X94803D02*
D03*
X104803D02*
D03*
X114803D02*
D03*
X124803D02*
D03*
Y181339D02*
D03*
X114803D02*
D03*
X104803D02*
D03*
X94803D02*
D03*
X84803D02*
D03*
X74803D02*
D03*
X64803D02*
D03*
D55*
X153976Y181220D02*
D03*
X54803Y181339D02*
D03*
D56*
X248031Y7874D02*
D03*
X246063Y234252D02*
D03*
X7874Y7874D02*
D03*
Y236221D02*
D03*
X19685Y98425D02*
D03*
X19685Y51181D02*
D03*
X19685Y66929D02*
D03*
Y82677D02*
D03*
D57*
X230315Y62992D02*
D03*
X227559Y116535D02*
D03*
D58*
X212598Y135827D02*
D03*
X206693Y131890D02*
D03*
Y124016D02*
D03*
X94488Y72835D02*
D03*
Y80709D02*
D03*
X39370Y102362D02*
D03*
Y110236D02*
D03*
X116142Y104331D02*
D03*
X108268D02*
D03*
X116142Y88583D02*
D03*
Y80709D02*
D03*
X118110Y47244D02*
D03*
Y55118D02*
D03*
X127953Y19685D02*
D03*
X122047D02*
D03*
X116142D02*
D03*
X110236D02*
D03*
X104331D02*
D03*
X204724Y51181D02*
D03*
X210630Y47244D02*
D03*
X153543Y98425D02*
D03*
X141732Y110236D02*
D03*
X139764Y98425D02*
D03*
X242126Y39370D02*
D03*
X222441Y82677D02*
D03*
X246063Y45276D02*
D03*
X250000Y53150D02*
D03*
Y62992D02*
D03*
X248031Y72835D02*
D03*
X244094Y82677D02*
D03*
X224410Y11811D02*
D03*
X218504D02*
D03*
X212598D02*
D03*
X206693D02*
D03*
X200787D02*
D03*
X163386Y19685D02*
D03*
X125984Y49213D02*
D03*
X139764Y104331D02*
D03*
X80709Y55118D02*
D03*
X102362Y120079D02*
D03*
X106299Y137795D02*
D03*
X179134Y173228D02*
D03*
X224410Y169291D02*
D03*
X17717Y122047D02*
D03*
Y114173D02*
D03*
X25591D02*
D03*
Y122047D02*
D03*
X70866Y200787D02*
D03*
Y192913D02*
D03*
X78740D02*
D03*
Y200787D02*
D03*
X104331Y196850D02*
D03*
Y188976D02*
D03*
X112205D02*
D03*
Y196850D02*
D03*
X238189Y200787D02*
D03*
Y192913D02*
D03*
X246063D02*
D03*
Y200787D02*
D03*
X135827Y177165D02*
D03*
X143701Y185039D02*
D03*
X80709Y131890D02*
D03*
Y124016D02*
D03*
X88583D02*
D03*
Y131890D02*
D03*
X122047Y163386D02*
D03*
X116142Y155512D02*
D03*
X129921Y163386D02*
D03*
X192913Y145669D02*
D03*
Y137795D02*
D03*
Y129921D02*
D03*
Y122047D02*
D03*
X104331Y47244D02*
D03*
X112205Y55118D02*
D03*
X88583D02*
D03*
Y47244D02*
D03*
X96457D02*
D03*
Y55118D02*
D03*
X39370Y133858D02*
D03*
Y125984D02*
D03*
Y118110D02*
D03*
X110236Y72835D02*
D03*
X102362D02*
D03*
X110236Y64961D02*
D03*
X102362D02*
D03*
X94488Y88583D02*
D03*
X102362D02*
D03*
Y80709D02*
D03*
X110236D02*
D03*
Y88583D02*
D03*
X145276Y196063D02*
D03*
X159449Y72835D02*
D03*
X140551Y71653D02*
D03*
X126378Y71260D02*
D03*
X153150Y135039D02*
D03*
X152756Y129134D02*
D03*
X122441Y63386D02*
D03*
X142913Y55512D02*
D03*
X162205Y68504D02*
D03*
X203543Y65354D02*
D03*
X183071Y87795D02*
D03*
X176772Y115748D02*
D03*
X182677Y111811D02*
D03*
X216535Y173228D02*
D03*
X174803Y133071D02*
D03*
X34252Y167717D02*
D03*
X5118Y203150D02*
D03*
X120866Y173622D02*
D03*
X101575Y144882D02*
D03*
X58661Y159449D02*
D03*
X64567Y159843D02*
D03*
X87402Y19291D02*
D03*
X133858Y98032D02*
D03*
X135827Y201181D02*
D03*
X99606Y103937D02*
D03*
M02*
