G04*
G04 #@! TF.GenerationSoftware,Altium Limited,Altium Designer,21.4.1 (30)*
G04*
G04 Layer_Color=8421504*
%FSLAX25Y25*%
%MOIN*%
G70*
G04*
G04 #@! TF.SameCoordinates,C77C1ACD-4D57-4A05-B96A-415324BACB4A*
G04*
G04*
G04 #@! TF.FilePolarity,Positive*
G04*
G01*
G75*
%ADD14R,0.04528X0.05315*%
%ADD15R,0.05512X0.05118*%
%ADD16R,0.05512X0.01181*%
%ADD17R,0.05118X0.05512*%
%ADD18R,0.09843X0.06693*%
%ADD19R,0.05315X0.04528*%
%ADD20R,0.06004X0.02559*%
G04:AMPARAMS|DCode=21|XSize=55.12mil|YSize=51.18mil|CornerRadius=0mil|HoleSize=0mil|Usage=FLASHONLY|Rotation=135.000|XOffset=0mil|YOffset=0mil|HoleType=Round|Shape=Rectangle|*
%AMROTATEDRECTD21*
4,1,4,0.03758,-0.00139,0.00139,-0.03758,-0.03758,0.00139,-0.00139,0.03758,0.03758,-0.00139,0.0*
%
%ADD21ROTATEDRECTD21*%

%ADD22O,0.06102X0.02362*%
%ADD23R,0.25197X0.22835*%
%ADD24R,0.08661X0.04724*%
G04:AMPARAMS|DCode=25|XSize=55.12mil|YSize=82.68mil|CornerRadius=13.78mil|HoleSize=0mil|Usage=FLASHONLY|Rotation=90.000|XOffset=0mil|YOffset=0mil|HoleType=Round|Shape=RoundedRectangle|*
%AMROUNDEDRECTD25*
21,1,0.05512,0.05512,0,0,90.0*
21,1,0.02756,0.08268,0,0,90.0*
1,1,0.02756,0.02756,0.01378*
1,1,0.02756,0.02756,-0.01378*
1,1,0.02756,-0.02756,-0.01378*
1,1,0.02756,-0.02756,0.01378*
%
%ADD25ROUNDEDRECTD25*%
%ADD26R,0.02559X0.06004*%
%ADD27R,0.03543X0.03150*%
D14*
X212106Y173228D02*
D03*
X205217D02*
D03*
X192224Y78347D02*
D03*
X199114D02*
D03*
X192224Y71260D02*
D03*
X199114D02*
D03*
X140748Y88583D02*
D03*
X133858D02*
D03*
Y80315D02*
D03*
X140748D02*
D03*
X164469Y122047D02*
D03*
X157579D02*
D03*
X75295Y19685D02*
D03*
X82185D02*
D03*
X107972Y173228D02*
D03*
X114862D02*
D03*
D15*
X176772Y84646D02*
D03*
Y78347D02*
D03*
X57480Y171260D02*
D03*
Y164961D02*
D03*
X64961Y171260D02*
D03*
Y164961D02*
D03*
X125591Y131102D02*
D03*
Y124803D02*
D03*
X169291Y106299D02*
D03*
Y112598D02*
D03*
X134252Y131102D02*
D03*
Y124803D02*
D03*
X175984Y145276D02*
D03*
Y138976D02*
D03*
X145669Y207874D02*
D03*
Y201575D02*
D03*
X39370Y173622D02*
D03*
Y167323D02*
D03*
D16*
X184252Y66929D02*
D03*
Y64961D02*
D03*
Y62992D02*
D03*
Y61024D02*
D03*
Y59055D02*
D03*
X166929D02*
D03*
Y61024D02*
D03*
Y62992D02*
D03*
Y64961D02*
D03*
Y66929D02*
D03*
X144488D02*
D03*
Y64961D02*
D03*
Y62992D02*
D03*
Y61024D02*
D03*
Y59055D02*
D03*
X127165D02*
D03*
Y61024D02*
D03*
Y62992D02*
D03*
Y64961D02*
D03*
Y66929D02*
D03*
D17*
X192520Y63780D02*
D03*
X198819D02*
D03*
D18*
X134252Y143701D02*
D03*
X118504D02*
D03*
X114961Y112992D02*
D03*
X130709D02*
D03*
D19*
X111417Y129429D02*
D03*
Y122539D02*
D03*
X149213Y86221D02*
D03*
Y79331D02*
D03*
X156693D02*
D03*
Y86221D02*
D03*
X48425Y147343D02*
D03*
Y154232D02*
D03*
X40551D02*
D03*
Y147343D02*
D03*
X9449Y139961D02*
D03*
Y146850D02*
D03*
X17323Y139862D02*
D03*
Y146752D02*
D03*
X25197Y139862D02*
D03*
Y146752D02*
D03*
D20*
X198472Y96043D02*
D03*
Y101043D02*
D03*
Y106043D02*
D03*
Y111043D02*
D03*
X177118D02*
D03*
Y106043D02*
D03*
Y101043D02*
D03*
Y96043D02*
D03*
D21*
X153015Y58526D02*
D03*
X148560Y54072D02*
D03*
D22*
X146850Y145295D02*
D03*
Y140295D02*
D03*
Y135295D02*
D03*
Y130295D02*
D03*
X168110Y145295D02*
D03*
Y140295D02*
D03*
Y135295D02*
D03*
Y130295D02*
D03*
D23*
X225984Y152402D02*
D03*
D24*
X200787Y161417D02*
D03*
Y143386D02*
D03*
D25*
X29331Y32480D02*
D03*
Y14764D02*
D03*
X65158D02*
D03*
Y32480D02*
D03*
D26*
X71221Y171701D02*
D03*
X76221D02*
D03*
X81221D02*
D03*
X86221D02*
D03*
X91221D02*
D03*
X96221D02*
D03*
X101221D02*
D03*
Y150347D02*
D03*
X96221D02*
D03*
X91221D02*
D03*
X86221D02*
D03*
X81221D02*
D03*
X76221D02*
D03*
X71221D02*
D03*
X39409Y203197D02*
D03*
X34409D02*
D03*
X29409D02*
D03*
X24409D02*
D03*
X19409D02*
D03*
X14409D02*
D03*
X9409D02*
D03*
Y181842D02*
D03*
X14409D02*
D03*
X19409D02*
D03*
X24409D02*
D03*
X29409D02*
D03*
X34409D02*
D03*
X39409D02*
D03*
D27*
X137795Y161220D02*
D03*
Y153740D02*
D03*
X145669Y157480D02*
D03*
X185039Y161220D02*
D03*
Y153740D02*
D03*
X192913Y157480D02*
D03*
X153543Y161220D02*
D03*
Y153740D02*
D03*
X161417Y157480D02*
D03*
X169291Y161024D02*
D03*
Y153543D02*
D03*
X177165Y157283D02*
D03*
M02*
