G04*
G04 #@! TF.GenerationSoftware,Altium Limited,Altium Designer,21.4.1 (30)*
G04*
G04 Layer_Color=2752767*
%FSLAX25Y25*%
%MOIN*%
G70*
G04*
G04 #@! TF.SameCoordinates,C77C1ACD-4D57-4A05-B96A-415324BACB4A*
G04*
G04*
G04 #@! TF.FilePolarity,Positive*
G04*
G01*
G75*
%ADD60C,0.00200*%
%ADD61C,0.00267*%
D60*
X219987Y36601D02*
Y38201D01*
X221587D01*
Y36601D01*
X219987D01*
X209987D02*
Y38201D01*
X211587D01*
Y36601D01*
X209987D01*
X199987D02*
Y38201D01*
X201587D01*
Y36601D01*
X199987D01*
X189987D02*
Y38201D01*
X191587D01*
Y36601D01*
X189987D01*
X179987D02*
Y38201D01*
X181587D01*
Y36601D01*
X179987D01*
X169987D02*
Y38201D01*
X171587D01*
Y36601D01*
X169987D01*
X248031Y7074D02*
X247232Y8674D01*
X248832D01*
X248031Y7074D01*
X246063Y233452D02*
X245263Y235052D01*
X246863D01*
X246063Y233452D01*
X7874Y7074D02*
X7074Y8674D01*
X8674D01*
X7874Y7074D01*
X230315Y62192D02*
X230715Y62592D01*
X231115D01*
X230715Y62992D01*
X231115Y63392D01*
X230715D01*
X230315Y63792D01*
X229915Y63392D01*
X229515D01*
X229915Y62992D01*
X229515Y62592D01*
X229915D01*
X230315Y62192D01*
X7874Y235420D02*
X7074Y237020D01*
X8674D01*
X7874Y235420D01*
X130066Y226759D02*
Y228359D01*
X131666D01*
Y226759D01*
X130066D01*
X120066D02*
Y228359D01*
X121666D01*
Y226759D01*
X120066D01*
X100066D02*
Y228359D01*
X101666D01*
Y226759D01*
X100066D01*
X90066D02*
Y228359D01*
X91666D01*
Y226759D01*
X90066D01*
X80066D02*
Y228359D01*
X81666D01*
Y226759D01*
X80066D01*
X70066D02*
Y228359D01*
X71666D01*
Y226759D01*
X70066D01*
X60066D02*
Y228359D01*
X61666D01*
Y226759D01*
X60066D01*
X50066D02*
Y228359D01*
X51666D01*
Y226759D01*
X50066D01*
X40066D02*
Y228359D01*
X41666D01*
Y226759D01*
X40066D01*
X110066D02*
Y228359D01*
X111666D01*
Y226759D01*
X110066D01*
X19685Y97625D02*
X18885Y99225D01*
X20485D01*
X19685Y97625D01*
X19685Y50381D02*
X18885Y51981D01*
X20485D01*
X19685Y50381D01*
X19685Y66129D02*
X18885Y67729D01*
X20485D01*
X19685Y66129D01*
Y81877D02*
X18885Y83477D01*
X20485D01*
X19685Y81877D01*
X227559Y115735D02*
X227959Y116135D01*
X228359D01*
X227959Y116535D01*
X228359Y116935D01*
X227959D01*
X227559Y117335D01*
X227159Y116935D01*
X226759D01*
X227159Y116535D01*
X226759Y116135D01*
X227159D01*
X227559Y115735D01*
X149987Y36601D02*
Y38201D01*
X151587D01*
Y36601D01*
X149987D01*
X139987D02*
Y38201D01*
X141587D01*
Y36601D01*
X139987D01*
X129987D02*
Y38201D01*
X131587D01*
Y36601D01*
X129987D01*
X119987D02*
Y38201D01*
X121587D01*
Y36601D01*
X119987D01*
X109987D02*
Y38201D01*
X111587D01*
Y36601D01*
X109987D01*
X99987D02*
Y38201D01*
X101587D01*
Y36601D01*
X99987D01*
X89987D02*
Y38201D01*
X91587D01*
Y36601D01*
X89987D01*
X79987D02*
Y38201D01*
X81587D01*
Y36601D01*
X79987D01*
X219987Y226759D02*
Y228359D01*
X221587D01*
Y226759D01*
X219987D01*
X209987D02*
Y228359D01*
X211587D01*
Y226759D01*
X209987D01*
X199987D02*
Y228359D01*
X201587D01*
Y226759D01*
X199987D01*
X189987D02*
Y228359D01*
X191587D01*
Y226759D01*
X189987D01*
X179987D02*
Y228359D01*
X181587D01*
Y226759D01*
X179987D01*
X169987D02*
Y228359D01*
X171587D01*
Y226759D01*
X169987D01*
X159987D02*
Y228359D01*
X161587D01*
Y226759D01*
X159987D01*
X149987D02*
Y228359D01*
X151587D01*
Y226759D01*
X149987D01*
X211798Y135027D02*
X212198Y135827D01*
X211798Y136627D01*
X212598Y136227D01*
X213398Y136627D01*
X212998Y135827D01*
X213398Y135027D01*
X212598Y135427D01*
X211798Y135027D01*
X205893Y131090D02*
X206293Y131890D01*
X205893Y132690D01*
X206693Y132290D01*
X207493Y132690D01*
X207093Y131890D01*
X207493Y131090D01*
X206693Y131490D01*
X205893Y131090D01*
Y123216D02*
X206293Y124016D01*
X205893Y124816D01*
X206693Y124416D01*
X207493Y124816D01*
X207093Y124016D01*
X207493Y123216D01*
X206693Y123616D01*
X205893Y123216D01*
X93688Y72035D02*
X94088Y72835D01*
X93688Y73635D01*
X94488Y73235D01*
X95288Y73635D01*
X94888Y72835D01*
X95288Y72035D01*
X94488Y72435D01*
X93688Y72035D01*
Y79909D02*
X94088Y80709D01*
X93688Y81509D01*
X94488Y81109D01*
X95288Y81509D01*
X94888Y80709D01*
X95288Y79909D01*
X94488Y80309D01*
X93688Y79909D01*
X38570Y101562D02*
X38970Y102362D01*
X38570Y103162D01*
X39370Y102762D01*
X40170Y103162D01*
X39770Y102362D01*
X40170Y101562D01*
X39370Y101962D01*
X38570Y101562D01*
Y109436D02*
X38970Y110236D01*
X38570Y111036D01*
X39370Y110636D01*
X40170Y111036D01*
X39770Y110236D01*
X40170Y109436D01*
X39370Y109836D01*
X38570Y109436D01*
X115342Y103531D02*
X115742Y104331D01*
X115342Y105131D01*
X116142Y104731D01*
X116942Y105131D01*
X116542Y104331D01*
X116942Y103531D01*
X116142Y103931D01*
X115342Y103531D01*
X107468D02*
X107868Y104331D01*
X107468Y105131D01*
X108268Y104731D01*
X109068Y105131D01*
X108668Y104331D01*
X109068Y103531D01*
X108268Y103931D01*
X107468Y103531D01*
X115342Y87783D02*
X115742Y88583D01*
X115342Y89383D01*
X116142Y88983D01*
X116942Y89383D01*
X116542Y88583D01*
X116942Y87783D01*
X116142Y88183D01*
X115342Y87783D01*
Y79909D02*
X115742Y80709D01*
X115342Y81509D01*
X116142Y81109D01*
X116942Y81509D01*
X116542Y80709D01*
X116942Y79909D01*
X116142Y80309D01*
X115342Y79909D01*
X117310Y46444D02*
X117710Y47244D01*
X117310Y48044D01*
X118110Y47644D01*
X118910Y48044D01*
X118510Y47244D01*
X118910Y46444D01*
X118110Y46844D01*
X117310Y46444D01*
Y54318D02*
X117710Y55118D01*
X117310Y55918D01*
X118110Y55518D01*
X118910Y55918D01*
X118510Y55118D01*
X118910Y54318D01*
X118110Y54718D01*
X117310Y54318D01*
X127153Y18885D02*
X127553Y19685D01*
X127153Y20485D01*
X127953Y20085D01*
X128753Y20485D01*
X128353Y19685D01*
X128753Y18885D01*
X127953Y19285D01*
X127153Y18885D01*
X121247D02*
X121647Y19685D01*
X121247Y20485D01*
X122047Y20085D01*
X122847Y20485D01*
X122447Y19685D01*
X122847Y18885D01*
X122047Y19285D01*
X121247Y18885D01*
X115342D02*
X115742Y19685D01*
X115342Y20485D01*
X116142Y20085D01*
X116942Y20485D01*
X116542Y19685D01*
X116942Y18885D01*
X116142Y19285D01*
X115342Y18885D01*
X109436D02*
X109836Y19685D01*
X109436Y20485D01*
X110236Y20085D01*
X111036Y20485D01*
X110636Y19685D01*
X111036Y18885D01*
X110236Y19285D01*
X109436Y18885D01*
X103531D02*
X103931Y19685D01*
X103531Y20485D01*
X104331Y20085D01*
X105131Y20485D01*
X104731Y19685D01*
X105131Y18885D01*
X104331Y19285D01*
X103531Y18885D01*
X203924Y50381D02*
X204324Y51181D01*
X203924Y51981D01*
X204724Y51581D01*
X205524Y51981D01*
X205124Y51181D01*
X205524Y50381D01*
X204724Y50781D01*
X203924Y50381D01*
X209830Y46444D02*
X210230Y47244D01*
X209830Y48044D01*
X210630Y47644D01*
X211430Y48044D01*
X211030Y47244D01*
X211430Y46444D01*
X210630Y46844D01*
X209830Y46444D01*
X152743Y97625D02*
X153143Y98425D01*
X152743Y99225D01*
X153543Y98825D01*
X154343Y99225D01*
X153943Y98425D01*
X154343Y97625D01*
X153543Y98025D01*
X152743Y97625D01*
X140932Y109436D02*
X141332Y110236D01*
X140932Y111036D01*
X141732Y110636D01*
X142532Y111036D01*
X142132Y110236D01*
X142532Y109436D01*
X141732Y109836D01*
X140932Y109436D01*
X138964Y97625D02*
X139364Y98425D01*
X138964Y99225D01*
X139764Y98825D01*
X140564Y99225D01*
X140164Y98425D01*
X140564Y97625D01*
X139764Y98025D01*
X138964Y97625D01*
X241326Y38570D02*
X241726Y39370D01*
X241326Y40170D01*
X242126Y39770D01*
X242926Y40170D01*
X242526Y39370D01*
X242926Y38570D01*
X242126Y38970D01*
X241326Y38570D01*
X221641Y81877D02*
X222041Y82677D01*
X221641Y83477D01*
X222441Y83077D01*
X223241Y83477D01*
X222841Y82677D01*
X223241Y81877D01*
X222441Y82277D01*
X221641Y81877D01*
X245263Y44476D02*
X245663Y45276D01*
X245263Y46076D01*
X246063Y45676D01*
X246863Y46076D01*
X246463Y45276D01*
X246863Y44476D01*
X246063Y44876D01*
X245263Y44476D01*
X249200Y52350D02*
X249600Y53150D01*
X249200Y53950D01*
X250000Y53550D01*
X250800Y53950D01*
X250400Y53150D01*
X250800Y52350D01*
X250000Y52750D01*
X249200Y52350D01*
Y62192D02*
X249600Y62992D01*
X249200Y63792D01*
X250000Y63392D01*
X250800Y63792D01*
X250400Y62992D01*
X250800Y62192D01*
X250000Y62592D01*
X249200Y62192D01*
X247232Y72035D02*
X247632Y72835D01*
X247232Y73635D01*
X248031Y73235D01*
X248832Y73635D01*
X248431Y72835D01*
X248832Y72035D01*
X248031Y72435D01*
X247232Y72035D01*
X243295Y81877D02*
X243694Y82677D01*
X243295Y83477D01*
X244094Y83077D01*
X244895Y83477D01*
X244495Y82677D01*
X244895Y81877D01*
X244094Y82277D01*
X243295Y81877D01*
X223609Y11011D02*
X224009Y11811D01*
X223609Y12611D01*
X224410Y12211D01*
X225209Y12611D01*
X224810Y11811D01*
X225209Y11011D01*
X224410Y11411D01*
X223609Y11011D01*
X217704D02*
X218104Y11811D01*
X217704Y12611D01*
X218504Y12211D01*
X219304Y12611D01*
X218904Y11811D01*
X219304Y11011D01*
X218504Y11411D01*
X217704Y11011D01*
X211798D02*
X212198Y11811D01*
X211798Y12611D01*
X212598Y12211D01*
X213398Y12611D01*
X212998Y11811D01*
X213398Y11011D01*
X212598Y11411D01*
X211798Y11011D01*
X205893D02*
X206293Y11811D01*
X205893Y12611D01*
X206693Y12211D01*
X207493Y12611D01*
X207093Y11811D01*
X207493Y11011D01*
X206693Y11411D01*
X205893Y11011D01*
X199987D02*
X200387Y11811D01*
X199987Y12611D01*
X200787Y12211D01*
X201587Y12611D01*
X201187Y11811D01*
X201587Y11011D01*
X200787Y11411D01*
X199987Y11011D01*
X162586Y18885D02*
X162986Y19685D01*
X162586Y20485D01*
X163386Y20085D01*
X164186Y20485D01*
X163786Y19685D01*
X164186Y18885D01*
X163386Y19285D01*
X162586Y18885D01*
X125184Y48413D02*
X125584Y49213D01*
X125184Y50013D01*
X125984Y49613D01*
X126784Y50013D01*
X126384Y49213D01*
X126784Y48413D01*
X125984Y48813D01*
X125184Y48413D01*
X138964Y103531D02*
X139364Y104331D01*
X138964Y105131D01*
X139764Y104731D01*
X140564Y105131D01*
X140164Y104331D01*
X140564Y103531D01*
X139764Y103931D01*
X138964Y103531D01*
X79909Y54318D02*
X80309Y55118D01*
X79909Y55918D01*
X80709Y55518D01*
X81509Y55918D01*
X81109Y55118D01*
X81509Y54318D01*
X80709Y54718D01*
X79909Y54318D01*
X101562Y119279D02*
X101962Y120079D01*
X101562Y120879D01*
X102362Y120479D01*
X103162Y120879D01*
X102762Y120079D01*
X103162Y119279D01*
X102362Y119679D01*
X101562Y119279D01*
X105499Y136995D02*
X105899Y137795D01*
X105499Y138595D01*
X106299Y138195D01*
X107099Y138595D01*
X106699Y137795D01*
X107099Y136995D01*
X106299Y137395D01*
X105499Y136995D01*
X178334Y172428D02*
X178734Y173228D01*
X178334Y174028D01*
X179134Y173628D01*
X179934Y174028D01*
X179534Y173228D01*
X179934Y172428D01*
X179134Y172828D01*
X178334Y172428D01*
X223609Y168491D02*
X224009Y169291D01*
X223609Y170091D01*
X224410Y169691D01*
X225209Y170091D01*
X224810Y169291D01*
X225209Y168491D01*
X224410Y168891D01*
X223609Y168491D01*
X16917Y121247D02*
X17316Y122047D01*
X16917Y122847D01*
X17717Y122447D01*
X18517Y122847D01*
X18116Y122047D01*
X18517Y121247D01*
X17717Y121647D01*
X16917Y121247D01*
Y113373D02*
X17316Y114173D01*
X16917Y114973D01*
X17717Y114573D01*
X18517Y114973D01*
X18116Y114173D01*
X18517Y113373D01*
X17717Y113773D01*
X16917Y113373D01*
X24791D02*
X25191Y114173D01*
X24791Y114973D01*
X25591Y114573D01*
X26391Y114973D01*
X25991Y114173D01*
X26391Y113373D01*
X25591Y113773D01*
X24791Y113373D01*
Y121247D02*
X25191Y122047D01*
X24791Y122847D01*
X25591Y122447D01*
X26391Y122847D01*
X25991Y122047D01*
X26391Y121247D01*
X25591Y121647D01*
X24791Y121247D01*
X70066Y199987D02*
X70466Y200787D01*
X70066Y201587D01*
X70866Y201187D01*
X71666Y201587D01*
X71266Y200787D01*
X71666Y199987D01*
X70866Y200387D01*
X70066Y199987D01*
Y192113D02*
X70466Y192913D01*
X70066Y193713D01*
X70866Y193313D01*
X71666Y193713D01*
X71266Y192913D01*
X71666Y192113D01*
X70866Y192513D01*
X70066Y192113D01*
X77940D02*
X78340Y192913D01*
X77940Y193713D01*
X78740Y193313D01*
X79540Y193713D01*
X79140Y192913D01*
X79540Y192113D01*
X78740Y192513D01*
X77940Y192113D01*
Y199987D02*
X78340Y200787D01*
X77940Y201587D01*
X78740Y201187D01*
X79540Y201587D01*
X79140Y200787D01*
X79540Y199987D01*
X78740Y200387D01*
X77940Y199987D01*
X103531Y196050D02*
X103931Y196850D01*
X103531Y197650D01*
X104331Y197250D01*
X105131Y197650D01*
X104731Y196850D01*
X105131Y196050D01*
X104331Y196450D01*
X103531Y196050D01*
Y188176D02*
X103931Y188976D01*
X103531Y189776D01*
X104331Y189376D01*
X105131Y189776D01*
X104731Y188976D01*
X105131Y188176D01*
X104331Y188576D01*
X103531Y188176D01*
X111405D02*
X111805Y188976D01*
X111405Y189776D01*
X112205Y189376D01*
X113005Y189776D01*
X112605Y188976D01*
X113005Y188176D01*
X112205Y188576D01*
X111405Y188176D01*
Y196050D02*
X111805Y196850D01*
X111405Y197650D01*
X112205Y197250D01*
X113005Y197650D01*
X112605Y196850D01*
X113005Y196050D01*
X112205Y196450D01*
X111405Y196050D01*
X237389Y199987D02*
X237789Y200787D01*
X237389Y201587D01*
X238189Y201187D01*
X238989Y201587D01*
X238589Y200787D01*
X238989Y199987D01*
X238189Y200387D01*
X237389Y199987D01*
Y192113D02*
X237789Y192913D01*
X237389Y193713D01*
X238189Y193313D01*
X238989Y193713D01*
X238589Y192913D01*
X238989Y192113D01*
X238189Y192513D01*
X237389Y192113D01*
X245263D02*
X245663Y192913D01*
X245263Y193713D01*
X246063Y193313D01*
X246863Y193713D01*
X246463Y192913D01*
X246863Y192113D01*
X246063Y192513D01*
X245263Y192113D01*
Y199987D02*
X245663Y200787D01*
X245263Y201587D01*
X246063Y201187D01*
X246863Y201587D01*
X246463Y200787D01*
X246863Y199987D01*
X246063Y200387D01*
X245263Y199987D01*
X135027Y176365D02*
X135427Y177165D01*
X135027Y177965D01*
X135827Y177565D01*
X136627Y177965D01*
X136227Y177165D01*
X136627Y176365D01*
X135827Y176765D01*
X135027Y176365D01*
X142901Y184239D02*
X143301Y185039D01*
X142901Y185839D01*
X143701Y185439D01*
X144501Y185839D01*
X144101Y185039D01*
X144501Y184239D01*
X143701Y184639D01*
X142901Y184239D01*
X79909Y131090D02*
X80309Y131890D01*
X79909Y132690D01*
X80709Y132290D01*
X81509Y132690D01*
X81109Y131890D01*
X81509Y131090D01*
X80709Y131490D01*
X79909Y131090D01*
Y123216D02*
X80309Y124016D01*
X79909Y124816D01*
X80709Y124416D01*
X81509Y124816D01*
X81109Y124016D01*
X81509Y123216D01*
X80709Y123616D01*
X79909Y123216D01*
X87783D02*
X88183Y124016D01*
X87783Y124816D01*
X88583Y124416D01*
X89383Y124816D01*
X88983Y124016D01*
X89383Y123216D01*
X88583Y123616D01*
X87783Y123216D01*
Y131090D02*
X88183Y131890D01*
X87783Y132690D01*
X88583Y132290D01*
X89383Y132690D01*
X88983Y131890D01*
X89383Y131090D01*
X88583Y131490D01*
X87783Y131090D01*
X121247Y162586D02*
X121647Y163386D01*
X121247Y164186D01*
X122047Y163786D01*
X122847Y164186D01*
X122447Y163386D01*
X122847Y162586D01*
X122047Y162986D01*
X121247Y162586D01*
X115342Y154712D02*
X115742Y155512D01*
X115342Y156312D01*
X116142Y155912D01*
X116942Y156312D01*
X116542Y155512D01*
X116942Y154712D01*
X116142Y155112D01*
X115342Y154712D01*
X129121Y162586D02*
X129521Y163386D01*
X129121Y164186D01*
X129921Y163786D01*
X130721Y164186D01*
X130321Y163386D01*
X130721Y162586D01*
X129921Y162986D01*
X129121Y162586D01*
X192113Y144869D02*
X192513Y145669D01*
X192113Y146469D01*
X192913Y146069D01*
X193713Y146469D01*
X193313Y145669D01*
X193713Y144869D01*
X192913Y145269D01*
X192113Y144869D01*
Y136995D02*
X192513Y137795D01*
X192113Y138595D01*
X192913Y138195D01*
X193713Y138595D01*
X193313Y137795D01*
X193713Y136995D01*
X192913Y137395D01*
X192113Y136995D01*
Y129121D02*
X192513Y129921D01*
X192113Y130721D01*
X192913Y130321D01*
X193713Y130721D01*
X193313Y129921D01*
X193713Y129121D01*
X192913Y129521D01*
X192113Y129121D01*
Y121247D02*
X192513Y122047D01*
X192113Y122847D01*
X192913Y122447D01*
X193713Y122847D01*
X193313Y122047D01*
X193713Y121247D01*
X192913Y121647D01*
X192113Y121247D01*
X103531Y46444D02*
X103931Y47244D01*
X103531Y48044D01*
X104331Y47644D01*
X105131Y48044D01*
X104731Y47244D01*
X105131Y46444D01*
X104331Y46844D01*
X103531Y46444D01*
X111405Y54318D02*
X111805Y55118D01*
X111405Y55918D01*
X112205Y55518D01*
X113005Y55918D01*
X112605Y55118D01*
X113005Y54318D01*
X112205Y54718D01*
X111405Y54318D01*
X87783D02*
X88183Y55118D01*
X87783Y55918D01*
X88583Y55518D01*
X89383Y55918D01*
X88983Y55118D01*
X89383Y54318D01*
X88583Y54718D01*
X87783Y54318D01*
Y46444D02*
X88183Y47244D01*
X87783Y48044D01*
X88583Y47644D01*
X89383Y48044D01*
X88983Y47244D01*
X89383Y46444D01*
X88583Y46844D01*
X87783Y46444D01*
X95657D02*
X96057Y47244D01*
X95657Y48044D01*
X96457Y47644D01*
X97257Y48044D01*
X96857Y47244D01*
X97257Y46444D01*
X96457Y46844D01*
X95657Y46444D01*
Y54318D02*
X96057Y55118D01*
X95657Y55918D01*
X96457Y55518D01*
X97257Y55918D01*
X96857Y55118D01*
X97257Y54318D01*
X96457Y54718D01*
X95657Y54318D01*
X38570Y133058D02*
X38970Y133858D01*
X38570Y134658D01*
X39370Y134258D01*
X40170Y134658D01*
X39770Y133858D01*
X40170Y133058D01*
X39370Y133458D01*
X38570Y133058D01*
Y125184D02*
X38970Y125984D01*
X38570Y126784D01*
X39370Y126384D01*
X40170Y126784D01*
X39770Y125984D01*
X40170Y125184D01*
X39370Y125584D01*
X38570Y125184D01*
Y117310D02*
X38970Y118110D01*
X38570Y118910D01*
X39370Y118510D01*
X40170Y118910D01*
X39770Y118110D01*
X40170Y117310D01*
X39370Y117710D01*
X38570Y117310D01*
X109436Y72035D02*
X109836Y72835D01*
X109436Y73635D01*
X110236Y73235D01*
X111036Y73635D01*
X110636Y72835D01*
X111036Y72035D01*
X110236Y72435D01*
X109436Y72035D01*
X101562D02*
X101962Y72835D01*
X101562Y73635D01*
X102362Y73235D01*
X103162Y73635D01*
X102762Y72835D01*
X103162Y72035D01*
X102362Y72435D01*
X101562Y72035D01*
X109436Y64161D02*
X109836Y64961D01*
X109436Y65761D01*
X110236Y65361D01*
X111036Y65761D01*
X110636Y64961D01*
X111036Y64161D01*
X110236Y64561D01*
X109436Y64161D01*
X101562D02*
X101962Y64961D01*
X101562Y65761D01*
X102362Y65361D01*
X103162Y65761D01*
X102762Y64961D01*
X103162Y64161D01*
X102362Y64561D01*
X101562Y64161D01*
X93688Y87783D02*
X94088Y88583D01*
X93688Y89383D01*
X94488Y88983D01*
X95288Y89383D01*
X94888Y88583D01*
X95288Y87783D01*
X94488Y88183D01*
X93688Y87783D01*
X101562D02*
X101962Y88583D01*
X101562Y89383D01*
X102362Y88983D01*
X103162Y89383D01*
X102762Y88583D01*
X103162Y87783D01*
X102362Y88183D01*
X101562Y87783D01*
Y79909D02*
X101962Y80709D01*
X101562Y81509D01*
X102362Y81109D01*
X103162Y81509D01*
X102762Y80709D01*
X103162Y79909D01*
X102362Y80309D01*
X101562Y79909D01*
X109436D02*
X109836Y80709D01*
X109436Y81509D01*
X110236Y81109D01*
X111036Y81509D01*
X110636Y80709D01*
X111036Y79909D01*
X110236Y80309D01*
X109436Y79909D01*
Y87783D02*
X109836Y88583D01*
X109436Y89383D01*
X110236Y88983D01*
X111036Y89383D01*
X110636Y88583D01*
X111036Y87783D01*
X110236Y88183D01*
X109436Y87783D01*
X144476Y195263D02*
X144876Y196063D01*
X144476Y196863D01*
X145276Y196463D01*
X146076Y196863D01*
X145676Y196063D01*
X146076Y195263D01*
X145276Y195663D01*
X144476Y195263D01*
X158649Y72035D02*
X159049Y72835D01*
X158649Y73635D01*
X159449Y73235D01*
X160249Y73635D01*
X159849Y72835D01*
X160249Y72035D01*
X159449Y72435D01*
X158649Y72035D01*
X139751Y70854D02*
X140151Y71653D01*
X139751Y72453D01*
X140551Y72053D01*
X141351Y72453D01*
X140951Y71653D01*
X141351Y70854D01*
X140551Y71254D01*
X139751Y70854D01*
X125578Y70460D02*
X125978Y71260D01*
X125578Y72060D01*
X126378Y71660D01*
X127178Y72060D01*
X126778Y71260D01*
X127178Y70460D01*
X126378Y70860D01*
X125578Y70460D01*
X152350Y134239D02*
X152750Y135039D01*
X152350Y135839D01*
X153150Y135439D01*
X153950Y135839D01*
X153550Y135039D01*
X153950Y134239D01*
X153150Y134639D01*
X152350Y134239D01*
X151956Y128334D02*
X152356Y129134D01*
X151956Y129934D01*
X152756Y129534D01*
X153556Y129934D01*
X153156Y129134D01*
X153556Y128334D01*
X152756Y128734D01*
X151956Y128334D01*
X121641Y62586D02*
X122041Y63386D01*
X121641Y64186D01*
X122441Y63786D01*
X123241Y64186D01*
X122841Y63386D01*
X123241Y62586D01*
X122441Y62986D01*
X121641Y62586D01*
X142113Y54712D02*
X142513Y55512D01*
X142113Y56312D01*
X142913Y55912D01*
X143713Y56312D01*
X143313Y55512D01*
X143713Y54712D01*
X142913Y55112D01*
X142113Y54712D01*
X161405Y67704D02*
X161805Y68504D01*
X161405Y69304D01*
X162205Y68904D01*
X163005Y69304D01*
X162605Y68504D01*
X163005Y67704D01*
X162205Y68104D01*
X161405Y67704D01*
X202743Y64554D02*
X203143Y65354D01*
X202743Y66154D01*
X203543Y65754D01*
X204343Y66154D01*
X203943Y65354D01*
X204343Y64554D01*
X203543Y64954D01*
X202743Y64554D01*
X182271Y86995D02*
X182671Y87795D01*
X182271Y88595D01*
X183071Y88195D01*
X183871Y88595D01*
X183471Y87795D01*
X183871Y86995D01*
X183071Y87395D01*
X182271Y86995D01*
X175972Y114948D02*
X176372Y115748D01*
X175972Y116548D01*
X176772Y116148D01*
X177572Y116548D01*
X177172Y115748D01*
X177572Y114948D01*
X176772Y115348D01*
X175972Y114948D01*
X181877Y111011D02*
X182277Y111811D01*
X181877Y112611D01*
X182677Y112211D01*
X183477Y112611D01*
X183077Y111811D01*
X183477Y111011D01*
X182677Y111411D01*
X181877Y111011D01*
X215735Y172428D02*
X216135Y173228D01*
X215735Y174028D01*
X216535Y173628D01*
X217335Y174028D01*
X216935Y173228D01*
X217335Y172428D01*
X216535Y172828D01*
X215735Y172428D01*
X174003Y132271D02*
X174403Y133071D01*
X174003Y133871D01*
X174803Y133471D01*
X175603Y133871D01*
X175203Y133071D01*
X175603Y132271D01*
X174803Y132671D01*
X174003Y132271D01*
X33452Y166917D02*
X33852Y167717D01*
X33452Y168517D01*
X34252Y168116D01*
X35052Y168517D01*
X34652Y167717D01*
X35052Y166917D01*
X34252Y167316D01*
X33452Y166917D01*
X4318Y202350D02*
X4718Y203150D01*
X4318Y203950D01*
X5118Y203550D01*
X5918Y203950D01*
X5518Y203150D01*
X5918Y202350D01*
X5118Y202750D01*
X4318Y202350D01*
X120066Y172822D02*
X120466Y173622D01*
X120066Y174422D01*
X120866Y174022D01*
X121666Y174422D01*
X121266Y173622D01*
X121666Y172822D01*
X120866Y173222D01*
X120066Y172822D01*
X100775Y144082D02*
X101175Y144882D01*
X100775Y145682D01*
X101575Y145282D01*
X102375Y145682D01*
X101975Y144882D01*
X102375Y144082D01*
X101575Y144482D01*
X100775Y144082D01*
X57861Y158649D02*
X58261Y159449D01*
X57861Y160249D01*
X58661Y159849D01*
X59461Y160249D01*
X59061Y159449D01*
X59461Y158649D01*
X58661Y159049D01*
X57861Y158649D01*
X63767Y159043D02*
X64167Y159843D01*
X63767Y160643D01*
X64567Y160242D01*
X65367Y160643D01*
X64967Y159843D01*
X65367Y159043D01*
X64567Y159442D01*
X63767Y159043D01*
X86602Y18491D02*
X87002Y19291D01*
X86602Y20091D01*
X87402Y19691D01*
X88202Y20091D01*
X87802Y19291D01*
X88202Y18491D01*
X87402Y18891D01*
X86602Y18491D01*
X133058Y97232D02*
X133458Y98032D01*
X133058Y98831D01*
X133858Y98431D01*
X134658Y98831D01*
X134258Y98032D01*
X134658Y97232D01*
X133858Y97632D01*
X133058Y97232D01*
X135027Y200381D02*
X135427Y201181D01*
X135027Y201981D01*
X135827Y201581D01*
X136627Y201981D01*
X136227Y201181D01*
X136627Y200381D01*
X135827Y200781D01*
X135027Y200381D01*
X98806Y103137D02*
X99206Y103937D01*
X98806Y104737D01*
X99606Y104337D01*
X100406Y104737D01*
X100006Y103937D01*
X100406Y103137D01*
X99606Y103537D01*
X98806Y103137D01*
D61*
X154776Y212480D02*
G03*
X154776Y212480I-800J0D01*
G01*
X164776D02*
G03*
X164776Y212480I-800J0D01*
G01*
X174776D02*
G03*
X174776Y212480I-800J0D01*
G01*
X184776D02*
G03*
X184776Y212480I-800J0D01*
G01*
X194776D02*
G03*
X194776Y212480I-800J0D01*
G01*
X204776D02*
G03*
X204776Y212480I-800J0D01*
G01*
X214776D02*
G03*
X214776Y212480I-800J0D01*
G01*
X224776D02*
G03*
X224776Y212480I-800J0D01*
G01*
Y181220D02*
G03*
X224776Y181220I-800J0D01*
G01*
X214776D02*
G03*
X214776Y181220I-800J0D01*
G01*
X204776D02*
G03*
X204776Y181220I-800J0D01*
G01*
X194776D02*
G03*
X194776Y181220I-800J0D01*
G01*
X184776D02*
G03*
X184776Y181220I-800J0D01*
G01*
X174776D02*
G03*
X174776Y181220I-800J0D01*
G01*
X164776D02*
G03*
X164776Y181220I-800J0D01*
G01*
X154776D02*
G03*
X154776Y181220I-800J0D01*
G01*
X55603Y212598D02*
G03*
X55603Y212598I-800J0D01*
G01*
X65603D02*
G03*
X65603Y212598I-800J0D01*
G01*
X75603D02*
G03*
X75603Y212598I-800J0D01*
G01*
X85603D02*
G03*
X85603Y212598I-800J0D01*
G01*
X95603D02*
G03*
X95603Y212598I-800J0D01*
G01*
X105603D02*
G03*
X105603Y212598I-800J0D01*
G01*
X115603D02*
G03*
X115603Y212598I-800J0D01*
G01*
X125603D02*
G03*
X125603Y212598I-800J0D01*
G01*
Y181339D02*
G03*
X125603Y181339I-800J0D01*
G01*
X115603D02*
G03*
X115603Y181339I-800J0D01*
G01*
X105603D02*
G03*
X105603Y181339I-800J0D01*
G01*
X95603D02*
G03*
X95603Y181339I-800J0D01*
G01*
X85603D02*
G03*
X85603Y181339I-800J0D01*
G01*
X75603D02*
G03*
X75603Y181339I-800J0D01*
G01*
X65603D02*
G03*
X65603Y181339I-800J0D01*
G01*
X55603D02*
G03*
X55603Y181339I-800J0D01*
G01*
M02*
