G04*
G04 #@! TF.GenerationSoftware,Altium Limited,Altium Designer,21.4.1 (30)*
G04*
G04 Layer_Physical_Order=2*
G04 Layer_Color=16711680*
%FSLAX25Y25*%
%MOIN*%
G70*
G04*
G04 #@! TF.SameCoordinates,C77C1ACD-4D57-4A05-B96A-415324BACB4A*
G04*
G04*
G04 #@! TF.FilePolarity,Positive*
G04*
G01*
G75*
%ADD49C,0.01181*%
%ADD52C,0.05906*%
%ADD53R,0.05906X0.05906*%
%ADD54C,0.04449*%
%ADD55R,0.04449X0.04449*%
%ADD56C,0.11811*%
%ADD57C,0.31496*%
%ADD58C,0.03150*%
G36*
X253497Y12581D02*
X252997Y12374D01*
X252298Y13073D01*
X251202Y13805D01*
X249984Y14310D01*
X248781Y14549D01*
Y7874D01*
X248031D01*
Y7124D01*
X241357D01*
X241596Y5922D01*
X242100Y4704D01*
X242833Y3607D01*
X243532Y2908D01*
X243325Y2409D01*
X12581D01*
X12374Y2908D01*
X13073Y3607D01*
X13805Y4704D01*
X14310Y5922D01*
X14549Y7124D01*
X7874D01*
Y7874D01*
X7124D01*
Y14549D01*
X5922Y14310D01*
X4704Y13805D01*
X3607Y13073D01*
X2908Y12374D01*
X2409Y12581D01*
Y202212D01*
X2908Y202311D01*
X3115Y201812D01*
X3780Y201147D01*
X4368Y200903D01*
Y203150D01*
Y205396D01*
X3780Y205152D01*
X3115Y204488D01*
X2908Y203988D01*
X2409Y204087D01*
Y231514D01*
X2908Y231721D01*
X3607Y231022D01*
X4704Y230289D01*
X5922Y229785D01*
X7124Y229546D01*
Y236221D01*
X7874D01*
Y236970D01*
X14549D01*
X14310Y238173D01*
X13805Y239391D01*
X13073Y240487D01*
X12374Y241186D01*
X12581Y241686D01*
X253497D01*
Y12581D01*
D02*
G37*
%LPC*%
G36*
X246813Y240927D02*
Y235002D01*
X252738D01*
X252499Y236204D01*
X251994Y237422D01*
X251262Y238518D01*
X250329Y239451D01*
X249233Y240183D01*
X248015Y240688D01*
X246813Y240927D01*
D02*
G37*
G36*
X245313D02*
X244111Y240688D01*
X242893Y240183D01*
X241796Y239451D01*
X240864Y238518D01*
X240132Y237422D01*
X239627Y236204D01*
X239388Y235002D01*
X245313D01*
Y240927D01*
D02*
G37*
G36*
X182221Y238333D02*
X143605D01*
X142760Y238165D01*
X142044Y237686D01*
X138990Y234632D01*
X138512Y233916D01*
X138343Y233071D01*
Y224143D01*
X134266Y220065D01*
X133787Y219349D01*
X133619Y218504D01*
Y203428D01*
X133307Y203115D01*
X132892Y202397D01*
X132677Y201596D01*
Y200766D01*
X132892Y199965D01*
X133307Y199247D01*
X133893Y198661D01*
X134611Y198246D01*
X135412Y198031D01*
X136241D01*
X137042Y198246D01*
X137761Y198661D01*
X138347Y199247D01*
X138762Y199965D01*
X138976Y200766D01*
Y201596D01*
X138762Y202397D01*
X138347Y203115D01*
X138034Y203428D01*
Y217589D01*
X142112Y221667D01*
X142591Y222383D01*
X142759Y223228D01*
Y232156D01*
X144520Y233917D01*
X181307D01*
X183325Y231899D01*
X183018Y231499D01*
X182535Y231778D01*
X181383Y232087D01*
X180191D01*
X179040Y231778D01*
X178007Y231182D01*
X177164Y230339D01*
X176568Y229307D01*
X176260Y228155D01*
Y226963D01*
X176568Y225812D01*
X177164Y224779D01*
X178007Y223936D01*
X179040Y223340D01*
X180191Y223032D01*
X181383D01*
X182535Y223340D01*
X183567Y223936D01*
X184410Y224779D01*
X185006Y225812D01*
X185315Y226963D01*
Y228155D01*
X185006Y229307D01*
X184728Y229789D01*
X185128Y230097D01*
X186431Y228793D01*
X186260Y228155D01*
Y226963D01*
X186568Y225812D01*
X187164Y224779D01*
X188007Y223936D01*
X189040Y223340D01*
X190191Y223032D01*
X191383D01*
X192535Y223340D01*
X193567Y223936D01*
X194410Y224779D01*
X195006Y225812D01*
X195315Y226963D01*
Y228155D01*
X195006Y229307D01*
X194410Y230339D01*
X193567Y231182D01*
X192535Y231778D01*
X191383Y232087D01*
X190191D01*
X189553Y231916D01*
X183783Y237686D01*
X183066Y238165D01*
X182221Y238333D01*
D02*
G37*
G36*
X14549Y235471D02*
X8624D01*
Y229546D01*
X9826Y229785D01*
X11044Y230289D01*
X12140Y231022D01*
X13073Y231954D01*
X13805Y233050D01*
X14310Y234268D01*
X14549Y235471D01*
D02*
G37*
G36*
X71616Y231230D02*
Y228309D01*
X74537D01*
X74351Y229003D01*
X73859Y229856D01*
X73163Y230552D01*
X72310Y231044D01*
X71616Y231230D01*
D02*
G37*
G36*
X70116D02*
X69423Y231044D01*
X68570Y230552D01*
X67873Y229856D01*
X67381Y229003D01*
X67195Y228309D01*
X70116D01*
Y231230D01*
D02*
G37*
G36*
X252738Y233502D02*
X246813D01*
Y227577D01*
X248015Y227816D01*
X249233Y228321D01*
X250329Y229053D01*
X251262Y229985D01*
X251994Y231082D01*
X252499Y232300D01*
X252738Y233502D01*
D02*
G37*
G36*
X245313D02*
X239388D01*
X239627Y232300D01*
X240132Y231082D01*
X240864Y229985D01*
X241796Y229053D01*
X242893Y228321D01*
X244111Y227816D01*
X245313Y227577D01*
Y233502D01*
D02*
G37*
G36*
X74537Y226809D02*
X71616D01*
Y223888D01*
X72310Y224074D01*
X73163Y224566D01*
X73859Y225263D01*
X74351Y226115D01*
X74537Y226809D01*
D02*
G37*
G36*
X70116D02*
X67195D01*
X67381Y226115D01*
X67873Y225263D01*
X68570Y224566D01*
X69423Y224074D01*
X70116Y223888D01*
Y226809D01*
D02*
G37*
G36*
X225315Y232087D02*
X216260D01*
Y223032D01*
X225315D01*
Y232087D01*
D02*
G37*
G36*
X211383D02*
X210191D01*
X209040Y231778D01*
X208007Y231182D01*
X207164Y230339D01*
X206568Y229307D01*
X206260Y228155D01*
Y226963D01*
X206568Y225812D01*
X207164Y224779D01*
X208007Y223936D01*
X209040Y223340D01*
X210191Y223032D01*
X211383D01*
X212535Y223340D01*
X213567Y223936D01*
X214410Y224779D01*
X215006Y225812D01*
X215315Y226963D01*
Y228155D01*
X215006Y229307D01*
X214410Y230339D01*
X213567Y231182D01*
X212535Y231778D01*
X211383Y232087D01*
D02*
G37*
G36*
X201383D02*
X200191D01*
X199040Y231778D01*
X198007Y231182D01*
X197164Y230339D01*
X196568Y229307D01*
X196260Y228155D01*
Y226963D01*
X196568Y225812D01*
X197164Y224779D01*
X198007Y223936D01*
X199040Y223340D01*
X200191Y223032D01*
X201383D01*
X202535Y223340D01*
X203567Y223936D01*
X204410Y224779D01*
X205006Y225812D01*
X205315Y226963D01*
Y228155D01*
X205006Y229307D01*
X204410Y230339D01*
X203567Y231182D01*
X202535Y231778D01*
X201383Y232087D01*
D02*
G37*
G36*
X171383D02*
X170191D01*
X169040Y231778D01*
X168007Y231182D01*
X167164Y230339D01*
X166568Y229307D01*
X166260Y228155D01*
Y226963D01*
X166568Y225812D01*
X167164Y224779D01*
X168007Y223936D01*
X169040Y223340D01*
X170191Y223032D01*
X171383D01*
X172535Y223340D01*
X173567Y223936D01*
X174410Y224779D01*
X175006Y225812D01*
X175315Y226963D01*
Y228155D01*
X175006Y229307D01*
X174410Y230339D01*
X173567Y231182D01*
X172535Y231778D01*
X171383Y232087D01*
D02*
G37*
G36*
X161383D02*
X160191D01*
X159040Y231778D01*
X158007Y231182D01*
X157164Y230339D01*
X156568Y229307D01*
X156260Y228155D01*
Y226963D01*
X156568Y225812D01*
X157164Y224779D01*
X158007Y223936D01*
X159040Y223340D01*
X160191Y223032D01*
X161383D01*
X162535Y223340D01*
X163567Y223936D01*
X164410Y224779D01*
X165006Y225812D01*
X165315Y226963D01*
Y228155D01*
X165006Y229307D01*
X164410Y230339D01*
X163567Y231182D01*
X162535Y231778D01*
X161383Y232087D01*
D02*
G37*
G36*
X151383D02*
X150191D01*
X149040Y231778D01*
X148007Y231182D01*
X147164Y230339D01*
X146568Y229307D01*
X146260Y228155D01*
Y226963D01*
X146568Y225812D01*
X147164Y224779D01*
X148007Y223936D01*
X149040Y223340D01*
X150191Y223032D01*
X151383D01*
X152535Y223340D01*
X153567Y223936D01*
X154410Y224779D01*
X155006Y225812D01*
X155315Y226963D01*
Y228155D01*
X155006Y229307D01*
X154410Y230339D01*
X153567Y231182D01*
X152535Y231778D01*
X151383Y232087D01*
D02*
G37*
G36*
X135394D02*
X126339D01*
Y223032D01*
X135394D01*
Y232087D01*
D02*
G37*
G36*
X121462D02*
X120270D01*
X119119Y231778D01*
X118086Y231182D01*
X117243Y230339D01*
X116647Y229307D01*
X116339Y228155D01*
Y226963D01*
X116647Y225812D01*
X117243Y224779D01*
X118086Y223936D01*
X119119Y223340D01*
X120270Y223032D01*
X121462D01*
X122614Y223340D01*
X123646Y223936D01*
X124489Y224779D01*
X125085Y225812D01*
X125394Y226963D01*
Y228155D01*
X125085Y229307D01*
X124489Y230339D01*
X123646Y231182D01*
X122614Y231778D01*
X121462Y232087D01*
D02*
G37*
G36*
X111462D02*
X110270D01*
X109119Y231778D01*
X108086Y231182D01*
X107243Y230339D01*
X106647Y229307D01*
X106339Y228155D01*
Y226963D01*
X106647Y225812D01*
X107243Y224779D01*
X108086Y223936D01*
X109119Y223340D01*
X110270Y223032D01*
X111462D01*
X112614Y223340D01*
X113646Y223936D01*
X114489Y224779D01*
X115085Y225812D01*
X115394Y226963D01*
Y228155D01*
X115085Y229307D01*
X114489Y230339D01*
X113646Y231182D01*
X112614Y231778D01*
X111462Y232087D01*
D02*
G37*
G36*
X101462D02*
X100270D01*
X99119Y231778D01*
X98086Y231182D01*
X97243Y230339D01*
X96647Y229307D01*
X96339Y228155D01*
Y226963D01*
X96647Y225812D01*
X97243Y224779D01*
X98086Y223936D01*
X99119Y223340D01*
X100270Y223032D01*
X101462D01*
X102614Y223340D01*
X103646Y223936D01*
X104489Y224779D01*
X105085Y225812D01*
X105394Y226963D01*
Y228155D01*
X105085Y229307D01*
X104489Y230339D01*
X103646Y231182D01*
X102614Y231778D01*
X101462Y232087D01*
D02*
G37*
G36*
X91462D02*
X90270D01*
X89119Y231778D01*
X88086Y231182D01*
X87243Y230339D01*
X86647Y229307D01*
X86339Y228155D01*
Y226963D01*
X86647Y225812D01*
X87243Y224779D01*
X88086Y223936D01*
X89119Y223340D01*
X90270Y223032D01*
X91462D01*
X92614Y223340D01*
X93646Y223936D01*
X94489Y224779D01*
X95085Y225812D01*
X95394Y226963D01*
Y228155D01*
X95085Y229307D01*
X94489Y230339D01*
X93646Y231182D01*
X92614Y231778D01*
X91462Y232087D01*
D02*
G37*
G36*
X81462D02*
X80270D01*
X79119Y231778D01*
X78086Y231182D01*
X77243Y230339D01*
X76647Y229307D01*
X76339Y228155D01*
Y226963D01*
X76647Y225812D01*
X77243Y224779D01*
X78086Y223936D01*
X79119Y223340D01*
X80270Y223032D01*
X81462D01*
X82614Y223340D01*
X83646Y223936D01*
X84489Y224779D01*
X85085Y225812D01*
X85394Y226963D01*
Y228155D01*
X85085Y229307D01*
X84489Y230339D01*
X83646Y231182D01*
X82614Y231778D01*
X81462Y232087D01*
D02*
G37*
G36*
X61462D02*
X60270D01*
X59119Y231778D01*
X58086Y231182D01*
X57243Y230339D01*
X56647Y229307D01*
X56339Y228155D01*
Y226963D01*
X56647Y225812D01*
X57243Y224779D01*
X58086Y223936D01*
X59119Y223340D01*
X60270Y223032D01*
X61462D01*
X62614Y223340D01*
X63646Y223936D01*
X64489Y224779D01*
X65085Y225812D01*
X65394Y226963D01*
Y228155D01*
X65085Y229307D01*
X64489Y230339D01*
X63646Y231182D01*
X62614Y231778D01*
X61462Y232087D01*
D02*
G37*
G36*
X51462D02*
X50270D01*
X49119Y231778D01*
X48086Y231182D01*
X47243Y230339D01*
X46647Y229307D01*
X46339Y228155D01*
Y226963D01*
X46647Y225812D01*
X47243Y224779D01*
X48086Y223936D01*
X49119Y223340D01*
X50270Y223032D01*
X51462D01*
X52614Y223340D01*
X53646Y223936D01*
X54489Y224779D01*
X55085Y225812D01*
X55394Y226963D01*
Y228155D01*
X55085Y229307D01*
X54489Y230339D01*
X53646Y231182D01*
X52614Y231778D01*
X51462Y232087D01*
D02*
G37*
G36*
X41462D02*
X40270D01*
X39119Y231778D01*
X38086Y231182D01*
X37243Y230339D01*
X36647Y229307D01*
X36339Y228155D01*
Y226963D01*
X36647Y225812D01*
X37243Y224779D01*
X38086Y223936D01*
X39119Y223340D01*
X40270Y223032D01*
X41462D01*
X42614Y223340D01*
X43646Y223936D01*
X44489Y224779D01*
X45085Y225812D01*
X45394Y226963D01*
Y228155D01*
X45085Y229307D01*
X44489Y230339D01*
X43646Y231182D01*
X42614Y231778D01*
X41462Y232087D01*
D02*
G37*
G36*
X125303Y216398D02*
X124303D01*
X123337Y216139D01*
X122470Y215638D01*
X121763Y214931D01*
X121263Y214065D01*
X121004Y213099D01*
Y212098D01*
X121263Y211132D01*
X121763Y210266D01*
X122470Y209558D01*
X123337Y209058D01*
X124303Y208799D01*
X125303D01*
X126270Y209058D01*
X127136Y209558D01*
X127843Y210266D01*
X128343Y211132D01*
X128602Y212098D01*
Y213099D01*
X128343Y214065D01*
X127843Y214931D01*
X127136Y215638D01*
X126270Y216139D01*
X125303Y216398D01*
D02*
G37*
G36*
X115303D02*
X114303D01*
X113337Y216139D01*
X112470Y215638D01*
X111763Y214931D01*
X111263Y214065D01*
X111004Y213099D01*
Y212098D01*
X111263Y211132D01*
X111763Y210266D01*
X112470Y209558D01*
X113337Y209058D01*
X114303Y208799D01*
X115303D01*
X116270Y209058D01*
X117136Y209558D01*
X117843Y210266D01*
X118343Y211132D01*
X118602Y212098D01*
Y213099D01*
X118343Y214065D01*
X117843Y214931D01*
X117136Y215638D01*
X116270Y216139D01*
X115303Y216398D01*
D02*
G37*
G36*
X105303D02*
X104303D01*
X103337Y216139D01*
X102470Y215638D01*
X101763Y214931D01*
X101263Y214065D01*
X101004Y213099D01*
Y212098D01*
X101263Y211132D01*
X101763Y210266D01*
X102470Y209558D01*
X103337Y209058D01*
X104303Y208799D01*
X105303D01*
X106270Y209058D01*
X107136Y209558D01*
X107843Y210266D01*
X108343Y211132D01*
X108602Y212098D01*
Y213099D01*
X108343Y214065D01*
X107843Y214931D01*
X107136Y215638D01*
X106270Y216139D01*
X105303Y216398D01*
D02*
G37*
G36*
X95303D02*
X94303D01*
X93337Y216139D01*
X92470Y215638D01*
X91763Y214931D01*
X91263Y214065D01*
X91004Y213099D01*
Y212098D01*
X91263Y211132D01*
X91763Y210266D01*
X92470Y209558D01*
X93337Y209058D01*
X94303Y208799D01*
X95303D01*
X96270Y209058D01*
X97136Y209558D01*
X97843Y210266D01*
X98343Y211132D01*
X98602Y212098D01*
Y213099D01*
X98343Y214065D01*
X97843Y214931D01*
X97136Y215638D01*
X96270Y216139D01*
X95303Y216398D01*
D02*
G37*
G36*
X85303D02*
X84303D01*
X83337Y216139D01*
X82470Y215638D01*
X81763Y214931D01*
X81263Y214065D01*
X81004Y213099D01*
Y212098D01*
X81263Y211132D01*
X81763Y210266D01*
X82470Y209558D01*
X83337Y209058D01*
X84303Y208799D01*
X85303D01*
X86270Y209058D01*
X87136Y209558D01*
X87843Y210266D01*
X88343Y211132D01*
X88602Y212098D01*
Y213099D01*
X88343Y214065D01*
X87843Y214931D01*
X87136Y215638D01*
X86270Y216139D01*
X85303Y216398D01*
D02*
G37*
G36*
X75303D02*
X74303D01*
X73337Y216139D01*
X72470Y215638D01*
X71763Y214931D01*
X71263Y214065D01*
X71004Y213099D01*
Y212098D01*
X71263Y211132D01*
X71763Y210266D01*
X72470Y209558D01*
X73337Y209058D01*
X74303Y208799D01*
X75303D01*
X76270Y209058D01*
X77136Y209558D01*
X77843Y210266D01*
X78343Y211132D01*
X78602Y212098D01*
Y213099D01*
X78343Y214065D01*
X77843Y214931D01*
X77136Y215638D01*
X76270Y216139D01*
X75303Y216398D01*
D02*
G37*
G36*
X65303D02*
X64303D01*
X63337Y216139D01*
X62470Y215638D01*
X61763Y214931D01*
X61263Y214065D01*
X61004Y213099D01*
Y212098D01*
X61263Y211132D01*
X61763Y210266D01*
X62470Y209558D01*
X63337Y209058D01*
X64303Y208799D01*
X65303D01*
X66270Y209058D01*
X67136Y209558D01*
X67843Y210266D01*
X68343Y211132D01*
X68602Y212098D01*
Y213099D01*
X68343Y214065D01*
X67843Y214931D01*
X67136Y215638D01*
X66270Y216139D01*
X65303Y216398D01*
D02*
G37*
G36*
X55303D02*
X54303D01*
X53337Y216139D01*
X52470Y215638D01*
X51763Y214931D01*
X51263Y214065D01*
X51004Y213099D01*
Y212098D01*
X51263Y211132D01*
X51763Y210266D01*
X52470Y209558D01*
X53337Y209058D01*
X54303Y208799D01*
X55303D01*
X56270Y209058D01*
X57136Y209558D01*
X57843Y210266D01*
X58343Y211132D01*
X58602Y212098D01*
Y213099D01*
X58343Y214065D01*
X57843Y214931D01*
X57136Y215638D01*
X56270Y216139D01*
X55303Y216398D01*
D02*
G37*
G36*
X224477Y216280D02*
X223476D01*
X222510Y216021D01*
X221644Y215521D01*
X220936Y214813D01*
X220436Y213947D01*
X220177Y212981D01*
Y211980D01*
X220436Y211014D01*
X220936Y210148D01*
X221644Y209440D01*
X222510Y208940D01*
X223476Y208681D01*
X224477D01*
X225443Y208940D01*
X226309Y209440D01*
X227016Y210148D01*
X227517Y211014D01*
X227776Y211980D01*
Y212981D01*
X227517Y213947D01*
X227016Y214813D01*
X226309Y215521D01*
X225443Y216021D01*
X224477Y216280D01*
D02*
G37*
G36*
X214476D02*
X213476D01*
X212510Y216021D01*
X211644Y215521D01*
X210936Y214813D01*
X210436Y213947D01*
X210177Y212981D01*
Y211980D01*
X210436Y211014D01*
X210936Y210148D01*
X211644Y209440D01*
X212510Y208940D01*
X213476Y208681D01*
X214476D01*
X215443Y208940D01*
X216309Y209440D01*
X217016Y210148D01*
X217517Y211014D01*
X217776Y211980D01*
Y212981D01*
X217517Y213947D01*
X217016Y214813D01*
X216309Y215521D01*
X215443Y216021D01*
X214476Y216280D01*
D02*
G37*
G36*
X204476D02*
X203476D01*
X202510Y216021D01*
X201644Y215521D01*
X200936Y214813D01*
X200436Y213947D01*
X200177Y212981D01*
Y211980D01*
X200436Y211014D01*
X200936Y210148D01*
X201644Y209440D01*
X202510Y208940D01*
X203476Y208681D01*
X204476D01*
X205443Y208940D01*
X206309Y209440D01*
X207016Y210148D01*
X207517Y211014D01*
X207775Y211980D01*
Y212981D01*
X207517Y213947D01*
X207016Y214813D01*
X206309Y215521D01*
X205443Y216021D01*
X204476Y216280D01*
D02*
G37*
G36*
X194476D02*
X193476D01*
X192510Y216021D01*
X191644Y215521D01*
X190936Y214813D01*
X190436Y213947D01*
X190177Y212981D01*
Y211980D01*
X190436Y211014D01*
X190936Y210148D01*
X191644Y209440D01*
X192510Y208940D01*
X193476Y208681D01*
X194476D01*
X195443Y208940D01*
X196309Y209440D01*
X197017Y210148D01*
X197517Y211014D01*
X197775Y211980D01*
Y212981D01*
X197517Y213947D01*
X197017Y214813D01*
X196309Y215521D01*
X195443Y216021D01*
X194476Y216280D01*
D02*
G37*
G36*
X184476D02*
X183476D01*
X182510Y216021D01*
X181644Y215521D01*
X180936Y214813D01*
X180436Y213947D01*
X180177Y212981D01*
Y211980D01*
X180436Y211014D01*
X180936Y210148D01*
X181644Y209440D01*
X182510Y208940D01*
X183476Y208681D01*
X184476D01*
X185443Y208940D01*
X186309Y209440D01*
X187016Y210148D01*
X187517Y211014D01*
X187776Y211980D01*
Y212981D01*
X187517Y213947D01*
X187016Y214813D01*
X186309Y215521D01*
X185443Y216021D01*
X184476Y216280D01*
D02*
G37*
G36*
X174477D02*
X173476D01*
X172510Y216021D01*
X171644Y215521D01*
X170936Y214813D01*
X170436Y213947D01*
X170177Y212981D01*
Y211980D01*
X170436Y211014D01*
X170936Y210148D01*
X171644Y209440D01*
X172510Y208940D01*
X173476Y208681D01*
X174477D01*
X175443Y208940D01*
X176309Y209440D01*
X177016Y210148D01*
X177517Y211014D01*
X177776Y211980D01*
Y212981D01*
X177517Y213947D01*
X177016Y214813D01*
X176309Y215521D01*
X175443Y216021D01*
X174477Y216280D01*
D02*
G37*
G36*
X164477D02*
X163476D01*
X162510Y216021D01*
X161644Y215521D01*
X160936Y214813D01*
X160436Y213947D01*
X160177Y212981D01*
Y211980D01*
X160436Y211014D01*
X160936Y210148D01*
X161644Y209440D01*
X162510Y208940D01*
X163476Y208681D01*
X164477D01*
X165443Y208940D01*
X166309Y209440D01*
X167016Y210148D01*
X167517Y211014D01*
X167775Y211980D01*
Y212981D01*
X167517Y213947D01*
X167016Y214813D01*
X166309Y215521D01*
X165443Y216021D01*
X164477Y216280D01*
D02*
G37*
G36*
X154476D02*
X153476D01*
X152510Y216021D01*
X151644Y215521D01*
X150936Y214813D01*
X150436Y213947D01*
X150177Y212981D01*
Y211980D01*
X150436Y211014D01*
X150936Y210148D01*
X151644Y209440D01*
X152510Y208940D01*
X153476Y208681D01*
X154476D01*
X155443Y208940D01*
X156309Y209440D01*
X157017Y210148D01*
X157517Y211014D01*
X157775Y211980D01*
Y212981D01*
X157517Y213947D01*
X157017Y214813D01*
X156309Y215521D01*
X155443Y216021D01*
X154476Y216280D01*
D02*
G37*
G36*
X5868Y205396D02*
Y203900D01*
X7364D01*
X7121Y204488D01*
X6456Y205152D01*
X5868Y205396D01*
D02*
G37*
G36*
X246813Y203034D02*
Y201537D01*
X248309D01*
X248066Y202126D01*
X247401Y202790D01*
X246813Y203034D01*
D02*
G37*
G36*
X245313D02*
X244725Y202790D01*
X244060Y202126D01*
X243817Y201537D01*
X245313D01*
Y203034D01*
D02*
G37*
G36*
X238939D02*
Y201537D01*
X240435D01*
X240192Y202126D01*
X239527Y202790D01*
X238939Y203034D01*
D02*
G37*
G36*
X237439D02*
X236851Y202790D01*
X236186Y202126D01*
X235943Y201537D01*
X237439D01*
Y203034D01*
D02*
G37*
G36*
X79490D02*
Y201537D01*
X80986D01*
X80743Y202126D01*
X80078Y202790D01*
X79490Y203034D01*
D02*
G37*
G36*
X77990D02*
X77402Y202790D01*
X76738Y202126D01*
X76494Y201537D01*
X77990D01*
Y203034D01*
D02*
G37*
G36*
X71616D02*
Y201537D01*
X73112D01*
X72869Y202126D01*
X72204Y202790D01*
X71616Y203034D01*
D02*
G37*
G36*
X70116D02*
X69528Y202790D01*
X68864Y202126D01*
X68620Y201537D01*
X70116D01*
Y203034D01*
D02*
G37*
G36*
X7364Y202400D02*
X5868D01*
Y200903D01*
X6456Y201147D01*
X7121Y201812D01*
X7364Y202400D01*
D02*
G37*
G36*
X80986Y200037D02*
X79490D01*
Y198541D01*
X80078Y198785D01*
X80743Y199449D01*
X80986Y200037D01*
D02*
G37*
G36*
X77990D02*
X76494D01*
X76738Y199449D01*
X77402Y198785D01*
X77990Y198541D01*
Y200037D01*
D02*
G37*
G36*
X73112D02*
X71616D01*
Y198541D01*
X72204Y198785D01*
X72869Y199449D01*
X73112Y200037D01*
D02*
G37*
G36*
X70116D02*
X68620D01*
X68864Y199449D01*
X69528Y198785D01*
X70116Y198541D01*
Y200037D01*
D02*
G37*
G36*
X248309D02*
X246813D01*
Y198541D01*
X247401Y198785D01*
X248066Y199449D01*
X248309Y200037D01*
D02*
G37*
G36*
X245313D02*
X243817D01*
X244060Y199449D01*
X244725Y198785D01*
X245313Y198541D01*
Y200037D01*
D02*
G37*
G36*
X240435D02*
X238939D01*
Y198541D01*
X239527Y198785D01*
X240192Y199449D01*
X240435Y200037D01*
D02*
G37*
G36*
X237439D02*
X235943D01*
X236186Y199449D01*
X236851Y198785D01*
X237439Y198541D01*
Y200037D01*
D02*
G37*
G36*
X112955Y199097D02*
Y197600D01*
X114451D01*
X114207Y198188D01*
X113543Y198853D01*
X112955Y199097D01*
D02*
G37*
G36*
X111455D02*
X110867Y198853D01*
X110202Y198188D01*
X109959Y197600D01*
X111455D01*
Y199097D01*
D02*
G37*
G36*
X105081D02*
Y197600D01*
X106577D01*
X106333Y198188D01*
X105669Y198853D01*
X105081Y199097D01*
D02*
G37*
G36*
X103581D02*
X102993Y198853D01*
X102328Y198188D01*
X102085Y197600D01*
X103581D01*
Y199097D01*
D02*
G37*
G36*
X146026Y198309D02*
Y196813D01*
X147522D01*
X147278Y197401D01*
X146614Y198066D01*
X146026Y198309D01*
D02*
G37*
G36*
X144526D02*
X143938Y198066D01*
X143273Y197401D01*
X143029Y196813D01*
X144526D01*
Y198309D01*
D02*
G37*
G36*
X114451Y196100D02*
X112955D01*
Y194604D01*
X113543Y194848D01*
X114207Y195512D01*
X114451Y196100D01*
D02*
G37*
G36*
X111455D02*
X109959D01*
X110202Y195512D01*
X110867Y194848D01*
X111455Y194604D01*
Y196100D01*
D02*
G37*
G36*
X106577D02*
X105081D01*
Y194604D01*
X105669Y194848D01*
X106333Y195512D01*
X106577Y196100D01*
D02*
G37*
G36*
X103581D02*
X102085D01*
X102328Y195512D01*
X102993Y194848D01*
X103581Y194604D01*
Y196100D01*
D02*
G37*
G36*
X147522Y195313D02*
X146026D01*
Y193817D01*
X146614Y194060D01*
X147278Y194725D01*
X147522Y195313D01*
D02*
G37*
G36*
X144526D02*
X143029D01*
X143273Y194725D01*
X143938Y194060D01*
X144526Y193817D01*
Y195313D01*
D02*
G37*
G36*
X246813Y195159D02*
Y193663D01*
X248309D01*
X248066Y194252D01*
X247401Y194916D01*
X246813Y195159D01*
D02*
G37*
G36*
X245313D02*
X244725Y194916D01*
X244060Y194252D01*
X243817Y193663D01*
X245313D01*
Y195159D01*
D02*
G37*
G36*
X238939D02*
Y193663D01*
X240435D01*
X240192Y194252D01*
X239527Y194916D01*
X238939Y195159D01*
D02*
G37*
G36*
X237439D02*
X236851Y194916D01*
X236186Y194252D01*
X235943Y193663D01*
X237439D01*
Y195159D01*
D02*
G37*
G36*
X79490D02*
Y193663D01*
X80986D01*
X80743Y194252D01*
X80078Y194916D01*
X79490Y195159D01*
D02*
G37*
G36*
X77990D02*
X77402Y194916D01*
X76738Y194252D01*
X76494Y193663D01*
X77990D01*
Y195159D01*
D02*
G37*
G36*
X71616D02*
Y193663D01*
X73112D01*
X72869Y194252D01*
X72204Y194916D01*
X71616Y195159D01*
D02*
G37*
G36*
X70116D02*
X69528Y194916D01*
X68864Y194252D01*
X68620Y193663D01*
X70116D01*
Y195159D01*
D02*
G37*
G36*
X248309Y192163D02*
X246813D01*
Y190667D01*
X247401Y190911D01*
X248066Y191575D01*
X248309Y192163D01*
D02*
G37*
G36*
X245313D02*
X243817D01*
X244060Y191575D01*
X244725Y190911D01*
X245313Y190667D01*
Y192163D01*
D02*
G37*
G36*
X240435D02*
X238939D01*
Y190667D01*
X239527Y190911D01*
X240192Y191575D01*
X240435Y192163D01*
D02*
G37*
G36*
X237439D02*
X235943D01*
X236186Y191575D01*
X236851Y190911D01*
X237439Y190667D01*
Y192163D01*
D02*
G37*
G36*
X80986D02*
X79490D01*
Y190667D01*
X80078Y190911D01*
X80743Y191575D01*
X80986Y192163D01*
D02*
G37*
G36*
X77990D02*
X76494D01*
X76738Y191575D01*
X77402Y190911D01*
X77990Y190667D01*
Y192163D01*
D02*
G37*
G36*
X73112D02*
X71616D01*
Y190667D01*
X72204Y190911D01*
X72869Y191575D01*
X73112Y192163D01*
D02*
G37*
G36*
X70116D02*
X68620D01*
X68864Y191575D01*
X69528Y190911D01*
X70116Y190667D01*
Y192163D01*
D02*
G37*
G36*
X112955Y191223D02*
Y189726D01*
X114451D01*
X114207Y190314D01*
X113543Y190979D01*
X112955Y191223D01*
D02*
G37*
G36*
X111455D02*
X110867Y190979D01*
X110202Y190314D01*
X109959Y189726D01*
X111455D01*
Y191223D01*
D02*
G37*
G36*
X105081D02*
Y189726D01*
X106577D01*
X106333Y190314D01*
X105669Y190979D01*
X105081Y191223D01*
D02*
G37*
G36*
X103581D02*
X102993Y190979D01*
X102328Y190314D01*
X102085Y189726D01*
X103581D01*
Y191223D01*
D02*
G37*
G36*
X114451Y188226D02*
X112955D01*
Y186730D01*
X113543Y186974D01*
X114207Y187638D01*
X114451Y188226D01*
D02*
G37*
G36*
X111455D02*
X109959D01*
X110202Y187638D01*
X110867Y186974D01*
X111455Y186730D01*
Y188226D01*
D02*
G37*
G36*
X106577D02*
X105081D01*
Y186730D01*
X105669Y186974D01*
X106333Y187638D01*
X106577Y188226D01*
D02*
G37*
G36*
X103581D02*
X102085D01*
X102328Y187638D01*
X102993Y186974D01*
X103581Y186730D01*
Y188226D01*
D02*
G37*
G36*
X144451Y187285D02*
Y185789D01*
X145947D01*
X145703Y186377D01*
X145039Y187042D01*
X144451Y187285D01*
D02*
G37*
G36*
X142951D02*
X142363Y187042D01*
X141698Y186377D01*
X141455Y185789D01*
X142951D01*
Y187285D01*
D02*
G37*
G36*
X145947Y184289D02*
X144451D01*
Y182793D01*
X145039Y183037D01*
X145703Y183701D01*
X145947Y184289D01*
D02*
G37*
G36*
X142951D02*
X141455D01*
X141698Y183701D01*
X142363Y183037D01*
X142951Y182793D01*
Y184289D01*
D02*
G37*
G36*
X125553Y184256D02*
Y182089D01*
X127720D01*
X127610Y182501D01*
X127213Y183188D01*
X126652Y183749D01*
X125966Y184145D01*
X125553Y184256D01*
D02*
G37*
G36*
X115553D02*
Y182089D01*
X117720D01*
X117610Y182501D01*
X117213Y183188D01*
X116652Y183749D01*
X115966Y184145D01*
X115553Y184256D01*
D02*
G37*
G36*
X124053Y184256D02*
X123641Y184145D01*
X122954Y183749D01*
X122393Y183188D01*
X121997Y182501D01*
X121886Y182089D01*
X124053D01*
Y184256D01*
D02*
G37*
G36*
X114053D02*
X113641Y184145D01*
X112954Y183749D01*
X112393Y183188D01*
X111997Y182501D01*
X111886Y182089D01*
X114053D01*
Y184256D01*
D02*
G37*
G36*
X224726Y184137D02*
Y181970D01*
X226893D01*
X226783Y182383D01*
X226386Y183070D01*
X225826Y183630D01*
X225139Y184027D01*
X224726Y184137D01*
D02*
G37*
G36*
X214726D02*
Y181970D01*
X216893D01*
X216783Y182383D01*
X216386Y183070D01*
X215826Y183630D01*
X215139Y184027D01*
X214726Y184137D01*
D02*
G37*
G36*
X213226Y184137D02*
X212814Y184027D01*
X212127Y183630D01*
X211566Y183070D01*
X211170Y182383D01*
X211059Y181970D01*
X213226D01*
Y184137D01*
D02*
G37*
G36*
X223226D02*
X222814Y184027D01*
X222127Y183630D01*
X221566Y183070D01*
X221170Y182383D01*
X221059Y181970D01*
X223226D01*
Y184137D01*
D02*
G37*
G36*
X124053Y180589D02*
X121886D01*
X121997Y180176D01*
X122393Y179489D01*
X122954Y178928D01*
X123641Y178532D01*
X124053Y178421D01*
Y180589D01*
D02*
G37*
G36*
X114053D02*
X111886D01*
X111997Y180176D01*
X112393Y179489D01*
X112954Y178928D01*
X113641Y178532D01*
X114053Y178421D01*
Y180589D01*
D02*
G37*
G36*
X117720D02*
X115553D01*
Y178421D01*
X115966Y178532D01*
X116652Y178928D01*
X117213Y179489D01*
X117610Y180176D01*
X117720Y180589D01*
D02*
G37*
G36*
X127720D02*
X125553D01*
Y178421D01*
X125966Y178532D01*
X126652Y178928D01*
X127213Y179489D01*
X127610Y180176D01*
X127720Y180589D01*
D02*
G37*
G36*
X213226Y180470D02*
X211059D01*
X211170Y180058D01*
X211566Y179371D01*
X212127Y178810D01*
X212814Y178414D01*
X213226Y178303D01*
Y180470D01*
D02*
G37*
G36*
X223226D02*
X221059D01*
X221170Y180058D01*
X221566Y179371D01*
X222127Y178810D01*
X222814Y178414D01*
X223226Y178303D01*
Y180470D01*
D02*
G37*
G36*
X226893D02*
X224726D01*
Y178303D01*
X225139Y178414D01*
X225826Y178810D01*
X226386Y179371D01*
X226783Y180058D01*
X226893Y180470D01*
D02*
G37*
G36*
X216893D02*
X214726D01*
Y178303D01*
X215139Y178414D01*
X215826Y178810D01*
X216386Y179371D01*
X216783Y180058D01*
X216893Y180470D01*
D02*
G37*
G36*
X136577Y179411D02*
Y177915D01*
X138073D01*
X137829Y178503D01*
X137165Y179168D01*
X136577Y179411D01*
D02*
G37*
G36*
X135077D02*
X134489Y179168D01*
X133824Y178503D01*
X133581Y177915D01*
X135077D01*
Y179411D01*
D02*
G37*
G36*
X105303Y185138D02*
X104303D01*
X103337Y184879D01*
X102470Y184379D01*
X101763Y183671D01*
X101263Y182805D01*
X101004Y181839D01*
Y180838D01*
X101263Y179872D01*
X101763Y179006D01*
X102470Y178298D01*
X103337Y177798D01*
X104303Y177539D01*
X105303D01*
X106270Y177798D01*
X107136Y178298D01*
X107843Y179006D01*
X108343Y179872D01*
X108602Y180838D01*
Y181839D01*
X108343Y182805D01*
X107843Y183671D01*
X107136Y184379D01*
X106270Y184879D01*
X105303Y185138D01*
D02*
G37*
G36*
X95303D02*
X94303D01*
X93337Y184879D01*
X92470Y184379D01*
X91763Y183671D01*
X91263Y182805D01*
X91004Y181839D01*
Y180838D01*
X91263Y179872D01*
X91763Y179006D01*
X92470Y178298D01*
X93337Y177798D01*
X94303Y177539D01*
X95303D01*
X96270Y177798D01*
X97136Y178298D01*
X97843Y179006D01*
X98343Y179872D01*
X98602Y180838D01*
Y181839D01*
X98343Y182805D01*
X97843Y183671D01*
X97136Y184379D01*
X96270Y184879D01*
X95303Y185138D01*
D02*
G37*
G36*
X85303D02*
X84303D01*
X83337Y184879D01*
X82470Y184379D01*
X81763Y183671D01*
X81263Y182805D01*
X81004Y181839D01*
Y180838D01*
X81263Y179872D01*
X81763Y179006D01*
X82470Y178298D01*
X83337Y177798D01*
X84303Y177539D01*
X85303D01*
X86270Y177798D01*
X87136Y178298D01*
X87843Y179006D01*
X88343Y179872D01*
X88602Y180838D01*
Y181839D01*
X88343Y182805D01*
X87843Y183671D01*
X87136Y184379D01*
X86270Y184879D01*
X85303Y185138D01*
D02*
G37*
G36*
X75303D02*
X74303D01*
X73337Y184879D01*
X72470Y184379D01*
X71763Y183671D01*
X71263Y182805D01*
X71004Y181839D01*
Y180838D01*
X71263Y179872D01*
X71763Y179006D01*
X72470Y178298D01*
X73337Y177798D01*
X74303Y177539D01*
X75303D01*
X76270Y177798D01*
X77136Y178298D01*
X77843Y179006D01*
X78343Y179872D01*
X78602Y180838D01*
Y181839D01*
X78343Y182805D01*
X77843Y183671D01*
X77136Y184379D01*
X76270Y184879D01*
X75303Y185138D01*
D02*
G37*
G36*
X65303D02*
X64303D01*
X63337Y184879D01*
X62470Y184379D01*
X61763Y183671D01*
X61263Y182805D01*
X61004Y181839D01*
Y180838D01*
X61263Y179872D01*
X61763Y179006D01*
X62470Y178298D01*
X63337Y177798D01*
X64303Y177539D01*
X65303D01*
X66270Y177798D01*
X67136Y178298D01*
X67843Y179006D01*
X68343Y179872D01*
X68602Y180838D01*
Y181839D01*
X68343Y182805D01*
X67843Y183671D01*
X67136Y184379D01*
X66270Y184879D01*
X65303Y185138D01*
D02*
G37*
G36*
X58602D02*
X51004D01*
Y177539D01*
X58602D01*
Y185138D01*
D02*
G37*
G36*
X204476Y185020D02*
X203476D01*
X202510Y184761D01*
X201644Y184260D01*
X200936Y183553D01*
X200436Y182687D01*
X200177Y181721D01*
Y180720D01*
X200436Y179754D01*
X200936Y178888D01*
X201644Y178180D01*
X202510Y177680D01*
X203476Y177421D01*
X204476D01*
X205443Y177680D01*
X206309Y178180D01*
X207016Y178888D01*
X207517Y179754D01*
X207775Y180720D01*
Y181721D01*
X207517Y182687D01*
X207016Y183553D01*
X206309Y184260D01*
X205443Y184761D01*
X204476Y185020D01*
D02*
G37*
G36*
X194476D02*
X193476D01*
X192510Y184761D01*
X191644Y184260D01*
X190936Y183553D01*
X190436Y182687D01*
X190177Y181721D01*
Y180720D01*
X190436Y179754D01*
X190936Y178888D01*
X191644Y178180D01*
X192510Y177680D01*
X193476Y177421D01*
X194476D01*
X195443Y177680D01*
X196309Y178180D01*
X197017Y178888D01*
X197517Y179754D01*
X197775Y180720D01*
Y181721D01*
X197517Y182687D01*
X197017Y183553D01*
X196309Y184260D01*
X195443Y184761D01*
X194476Y185020D01*
D02*
G37*
G36*
X184476D02*
X183476D01*
X182510Y184761D01*
X181644Y184260D01*
X180936Y183553D01*
X180436Y182687D01*
X180177Y181721D01*
Y180720D01*
X180436Y179754D01*
X180936Y178888D01*
X181644Y178180D01*
X182510Y177680D01*
X183476Y177421D01*
X184476D01*
X185443Y177680D01*
X186309Y178180D01*
X187016Y178888D01*
X187517Y179754D01*
X187776Y180720D01*
Y181721D01*
X187517Y182687D01*
X187016Y183553D01*
X186309Y184260D01*
X185443Y184761D01*
X184476Y185020D01*
D02*
G37*
G36*
X174477D02*
X173476D01*
X172510Y184761D01*
X171644Y184260D01*
X170936Y183553D01*
X170436Y182687D01*
X170177Y181721D01*
Y180720D01*
X170436Y179754D01*
X170936Y178888D01*
X171644Y178180D01*
X172510Y177680D01*
X173476Y177421D01*
X174477D01*
X175443Y177680D01*
X176309Y178180D01*
X177016Y178888D01*
X177517Y179754D01*
X177776Y180720D01*
Y181721D01*
X177517Y182687D01*
X177016Y183553D01*
X176309Y184260D01*
X175443Y184761D01*
X174477Y185020D01*
D02*
G37*
G36*
X164477D02*
X163476D01*
X162510Y184761D01*
X161644Y184260D01*
X160936Y183553D01*
X160436Y182687D01*
X160177Y181721D01*
Y180720D01*
X160436Y179754D01*
X160936Y178888D01*
X161644Y178180D01*
X162510Y177680D01*
X163476Y177421D01*
X164477D01*
X165443Y177680D01*
X166309Y178180D01*
X167016Y178888D01*
X167517Y179754D01*
X167775Y180720D01*
Y181721D01*
X167517Y182687D01*
X167016Y183553D01*
X166309Y184260D01*
X165443Y184761D01*
X164477Y185020D01*
D02*
G37*
G36*
X157775D02*
X150177D01*
Y177421D01*
X157775D01*
Y185020D01*
D02*
G37*
G36*
X138073Y176415D02*
X136577D01*
Y174919D01*
X137165Y175163D01*
X137829Y175827D01*
X138073Y176415D01*
D02*
G37*
G36*
X135077D02*
X133581D01*
X133824Y175827D01*
X134489Y175163D01*
X135077Y174919D01*
Y176415D01*
D02*
G37*
G36*
X121616Y175868D02*
Y174372D01*
X123112D01*
X122869Y174960D01*
X122204Y175625D01*
X121616Y175868D01*
D02*
G37*
G36*
X120116D02*
X119528Y175625D01*
X118864Y174960D01*
X118620Y174372D01*
X120116D01*
Y175868D01*
D02*
G37*
G36*
X217285Y175475D02*
Y173978D01*
X218782D01*
X218538Y174566D01*
X217874Y175231D01*
X217285Y175475D01*
D02*
G37*
G36*
X215785D02*
X215197Y175231D01*
X214533Y174566D01*
X214289Y173978D01*
X215785D01*
Y175475D01*
D02*
G37*
G36*
X179884D02*
Y173978D01*
X181380D01*
X181136Y174566D01*
X180472Y175231D01*
X179884Y175475D01*
D02*
G37*
G36*
X178384D02*
X177796Y175231D01*
X177131Y174566D01*
X176888Y173978D01*
X178384D01*
Y175475D01*
D02*
G37*
G36*
X123112Y172872D02*
X121616D01*
Y171376D01*
X122204Y171619D01*
X122869Y172284D01*
X123112Y172872D01*
D02*
G37*
G36*
X120116D02*
X118620D01*
X118864Y172284D01*
X119528Y171619D01*
X120116Y171376D01*
Y172872D01*
D02*
G37*
G36*
X218782Y172478D02*
X217285D01*
Y170982D01*
X217874Y171226D01*
X218538Y171890D01*
X218782Y172478D01*
D02*
G37*
G36*
X215785D02*
X214289D01*
X214533Y171890D01*
X215197Y171226D01*
X215785Y170982D01*
Y172478D01*
D02*
G37*
G36*
X181380D02*
X179884D01*
Y170982D01*
X180472Y171226D01*
X181136Y171890D01*
X181380Y172478D01*
D02*
G37*
G36*
X178384D02*
X176888D01*
X177131Y171890D01*
X177796Y171226D01*
X178384Y170982D01*
Y172478D01*
D02*
G37*
G36*
X225160Y171537D02*
Y170041D01*
X226656D01*
X226412Y170629D01*
X225747Y171294D01*
X225160Y171537D01*
D02*
G37*
G36*
X223659D02*
X223071Y171294D01*
X222407Y170629D01*
X222163Y170041D01*
X223659D01*
Y171537D01*
D02*
G37*
G36*
X35002Y169963D02*
Y168466D01*
X36498D01*
X36255Y169055D01*
X35590Y169719D01*
X35002Y169963D01*
D02*
G37*
G36*
X33502D02*
X32914Y169719D01*
X32249Y169055D01*
X32006Y168466D01*
X33502D01*
Y169963D01*
D02*
G37*
G36*
X226656Y168541D02*
X225160D01*
Y167045D01*
X225747Y167289D01*
X226412Y167953D01*
X226656Y168541D01*
D02*
G37*
G36*
X223659D02*
X222163D01*
X222407Y167953D01*
X223071Y167289D01*
X223659Y167045D01*
Y168541D01*
D02*
G37*
G36*
X36498Y166966D02*
X35002D01*
Y165470D01*
X35590Y165714D01*
X36255Y166378D01*
X36498Y166966D01*
D02*
G37*
G36*
X33502D02*
X32006D01*
X32249Y166378D01*
X32914Y165714D01*
X33502Y165470D01*
Y166966D01*
D02*
G37*
G36*
X130671Y165632D02*
Y164136D01*
X132167D01*
X131924Y164724D01*
X131259Y165388D01*
X130671Y165632D01*
D02*
G37*
G36*
X129171D02*
X128583Y165388D01*
X127919Y164724D01*
X127675Y164136D01*
X129171D01*
Y165632D01*
D02*
G37*
G36*
X122797D02*
Y164136D01*
X124293D01*
X124050Y164724D01*
X123385Y165388D01*
X122797Y165632D01*
D02*
G37*
G36*
X121297D02*
X120709Y165388D01*
X120045Y164724D01*
X119801Y164136D01*
X121297D01*
Y165632D01*
D02*
G37*
G36*
X132167Y162636D02*
X130671D01*
Y161140D01*
X131259Y161383D01*
X131924Y162048D01*
X132167Y162636D01*
D02*
G37*
G36*
X129171D02*
X127675D01*
X127919Y162048D01*
X128583Y161383D01*
X129171Y161140D01*
Y162636D01*
D02*
G37*
G36*
X124293D02*
X122797D01*
Y161140D01*
X123385Y161383D01*
X124050Y162048D01*
X124293Y162636D01*
D02*
G37*
G36*
X121297D02*
X119801D01*
X120045Y162048D01*
X120709Y161383D01*
X121297Y161140D01*
Y162636D01*
D02*
G37*
G36*
X65317Y162089D02*
Y160592D01*
X66813D01*
X66570Y161181D01*
X65905Y161845D01*
X65317Y162089D01*
D02*
G37*
G36*
X63817D02*
X63229Y161845D01*
X62564Y161181D01*
X62321Y160592D01*
X63817D01*
Y162089D01*
D02*
G37*
G36*
X59411Y161695D02*
Y160199D01*
X60908D01*
X60664Y160787D01*
X60000Y161451D01*
X59411Y161695D01*
D02*
G37*
G36*
X57911D02*
X57323Y161451D01*
X56659Y160787D01*
X56415Y160199D01*
X57911D01*
Y161695D01*
D02*
G37*
G36*
X66813Y159092D02*
X65317D01*
Y157596D01*
X65905Y157840D01*
X66570Y158504D01*
X66813Y159092D01*
D02*
G37*
G36*
X63817D02*
X62321D01*
X62564Y158504D01*
X63229Y157840D01*
X63817Y157596D01*
Y159092D01*
D02*
G37*
G36*
X60908Y158699D02*
X59411D01*
Y157203D01*
X60000Y157446D01*
X60664Y158111D01*
X60908Y158699D01*
D02*
G37*
G36*
X57911D02*
X56415D01*
X56659Y158111D01*
X57323Y157446D01*
X57911Y157203D01*
Y158699D01*
D02*
G37*
G36*
X116892Y157758D02*
Y156262D01*
X118388D01*
X118144Y156850D01*
X117480Y157514D01*
X116892Y157758D01*
D02*
G37*
G36*
X115392D02*
X114804Y157514D01*
X114139Y156850D01*
X113896Y156262D01*
X115392D01*
Y157758D01*
D02*
G37*
G36*
X118388Y154762D02*
X116892D01*
Y153266D01*
X117480Y153509D01*
X118144Y154174D01*
X118388Y154762D01*
D02*
G37*
G36*
X115392D02*
X113896D01*
X114139Y154174D01*
X114804Y153509D01*
X115392Y153266D01*
Y154762D01*
D02*
G37*
G36*
X193663Y147915D02*
Y146419D01*
X195160D01*
X194916Y147007D01*
X194252Y147672D01*
X193663Y147915D01*
D02*
G37*
G36*
X192163D02*
X191575Y147672D01*
X190911Y147007D01*
X190667Y146419D01*
X192163D01*
Y147915D01*
D02*
G37*
G36*
X102325Y147128D02*
Y145632D01*
X103821D01*
X103577Y146220D01*
X102913Y146885D01*
X102325Y147128D01*
D02*
G37*
G36*
X100825D02*
X100237Y146885D01*
X99572Y146220D01*
X99329Y145632D01*
X100825D01*
Y147128D01*
D02*
G37*
G36*
X195160Y144919D02*
X193663D01*
Y143423D01*
X194252Y143667D01*
X194916Y144331D01*
X195160Y144919D01*
D02*
G37*
G36*
X192163D02*
X190667D01*
X190911Y144331D01*
X191575Y143667D01*
X192163Y143423D01*
Y144919D01*
D02*
G37*
G36*
X103821Y144132D02*
X102325D01*
Y142636D01*
X102913Y142879D01*
X103577Y143544D01*
X103821Y144132D01*
D02*
G37*
G36*
X100825D02*
X99329D01*
X99572Y143544D01*
X100237Y142879D01*
X100825Y142636D01*
Y144132D01*
D02*
G37*
G36*
X107049Y140041D02*
Y138545D01*
X108545D01*
X108302Y139133D01*
X107637Y139798D01*
X107049Y140041D01*
D02*
G37*
G36*
X105549D02*
X104961Y139798D01*
X104297Y139133D01*
X104053Y138545D01*
X105549D01*
Y140041D01*
D02*
G37*
G36*
X193663Y140041D02*
Y138545D01*
X195160D01*
X194916Y139133D01*
X194252Y139798D01*
X193663Y140041D01*
D02*
G37*
G36*
X192163D02*
X191575Y139798D01*
X190911Y139133D01*
X190667Y138545D01*
X192163D01*
Y140041D01*
D02*
G37*
G36*
X213348Y138073D02*
Y136577D01*
X214845D01*
X214601Y137165D01*
X213936Y137829D01*
X213348Y138073D01*
D02*
G37*
G36*
X211848D02*
X211260Y137829D01*
X210596Y137165D01*
X210352Y136577D01*
X211848D01*
Y138073D01*
D02*
G37*
G36*
X153900Y137285D02*
Y135789D01*
X155396D01*
X155152Y136377D01*
X154488Y137042D01*
X153900Y137285D01*
D02*
G37*
G36*
X152400D02*
X151812Y137042D01*
X151147Y136377D01*
X150903Y135789D01*
X152400D01*
Y137285D01*
D02*
G37*
G36*
X108545Y137045D02*
X107049D01*
Y135549D01*
X107637Y135793D01*
X108302Y136457D01*
X108545Y137045D01*
D02*
G37*
G36*
X105549D02*
X104053D01*
X104297Y136457D01*
X104961Y135793D01*
X105549Y135549D01*
Y137045D01*
D02*
G37*
G36*
X195160Y137045D02*
X193663D01*
Y135549D01*
X194252Y135793D01*
X194916Y136457D01*
X195160Y137045D01*
D02*
G37*
G36*
X192163D02*
X190667D01*
X190911Y136457D01*
X191575Y135793D01*
X192163Y135549D01*
Y137045D01*
D02*
G37*
G36*
X175553Y135317D02*
Y133821D01*
X177049D01*
X176806Y134409D01*
X176141Y135073D01*
X175553Y135317D01*
D02*
G37*
G36*
X174053D02*
X173465Y135073D01*
X172801Y134409D01*
X172557Y133821D01*
X174053D01*
Y135317D01*
D02*
G37*
G36*
X214845Y135077D02*
X213348D01*
Y133581D01*
X213936Y133824D01*
X214601Y134489D01*
X214845Y135077D01*
D02*
G37*
G36*
X211848D02*
X210352D01*
X210596Y134489D01*
X211260Y133824D01*
X211848Y133581D01*
Y135077D01*
D02*
G37*
G36*
X155396Y134289D02*
X153900D01*
Y132793D01*
X154488Y133037D01*
X155152Y133701D01*
X155396Y134289D01*
D02*
G37*
G36*
X152400D02*
X150903D01*
X151147Y133701D01*
X151812Y133037D01*
X152400Y132793D01*
Y134289D01*
D02*
G37*
G36*
X207443Y134136D02*
Y132640D01*
X208939D01*
X208696Y133228D01*
X208031Y133892D01*
X207443Y134136D01*
D02*
G37*
G36*
X205943D02*
X205355Y133892D01*
X204690Y133228D01*
X204447Y132640D01*
X205943D01*
Y134136D01*
D02*
G37*
G36*
X89333D02*
Y132640D01*
X90829D01*
X90585Y133228D01*
X89921Y133892D01*
X89333Y134136D01*
D02*
G37*
G36*
X87833D02*
X87245Y133892D01*
X86580Y133228D01*
X86336Y132640D01*
X87833D01*
Y134136D01*
D02*
G37*
G36*
X81459D02*
Y132640D01*
X82955D01*
X82711Y133228D01*
X82047Y133892D01*
X81459Y134136D01*
D02*
G37*
G36*
X79959D02*
X79371Y133892D01*
X78706Y133228D01*
X78462Y132640D01*
X79959D01*
Y134136D01*
D02*
G37*
G36*
X177049Y132321D02*
X175553D01*
Y130825D01*
X176141Y131068D01*
X176806Y131733D01*
X177049Y132321D01*
D02*
G37*
G36*
X174053D02*
X172557D01*
X172801Y131733D01*
X173465Y131068D01*
X174053Y130825D01*
Y132321D01*
D02*
G37*
G36*
X39785Y137008D02*
X38955D01*
X38154Y136793D01*
X37436Y136379D01*
X36850Y135792D01*
X36435Y135074D01*
X36220Y134273D01*
Y133444D01*
X36435Y132643D01*
X36850Y131924D01*
X37436Y131338D01*
X38154Y130923D01*
X38955Y130709D01*
X39785D01*
X40586Y130923D01*
X41304Y131338D01*
X41890Y131924D01*
X42305Y132643D01*
X42520Y133444D01*
Y134273D01*
X42305Y135074D01*
X41890Y135792D01*
X41304Y136379D01*
X40586Y136793D01*
X39785Y137008D01*
D02*
G37*
G36*
X193663Y132167D02*
Y130671D01*
X195160D01*
X194916Y131259D01*
X194252Y131924D01*
X193663Y132167D01*
D02*
G37*
G36*
X192163D02*
X191575Y131924D01*
X190911Y131259D01*
X190667Y130671D01*
X192163D01*
Y132167D01*
D02*
G37*
G36*
X153506Y131380D02*
Y129884D01*
X155002D01*
X154759Y130472D01*
X154094Y131136D01*
X153506Y131380D01*
D02*
G37*
G36*
X152006D02*
X151418Y131136D01*
X150753Y130472D01*
X150510Y129884D01*
X152006D01*
Y131380D01*
D02*
G37*
G36*
X208939Y131140D02*
X207443D01*
Y129644D01*
X208031Y129887D01*
X208696Y130552D01*
X208939Y131140D01*
D02*
G37*
G36*
X205943D02*
X204447D01*
X204690Y130552D01*
X205355Y129887D01*
X205943Y129644D01*
Y131140D01*
D02*
G37*
G36*
X90829D02*
X89333D01*
Y129644D01*
X89921Y129887D01*
X90585Y130552D01*
X90829Y131140D01*
D02*
G37*
G36*
X87833D02*
X86336D01*
X86580Y130552D01*
X87245Y129887D01*
X87833Y129644D01*
Y131140D01*
D02*
G37*
G36*
X82955D02*
X81459D01*
Y129644D01*
X82047Y129887D01*
X82711Y130552D01*
X82955Y131140D01*
D02*
G37*
G36*
X79959D02*
X78462D01*
X78706Y130552D01*
X79371Y129887D01*
X79959Y129644D01*
Y131140D01*
D02*
G37*
G36*
X195160Y129171D02*
X193663D01*
Y127675D01*
X194252Y127919D01*
X194916Y128583D01*
X195160Y129171D01*
D02*
G37*
G36*
X192163D02*
X190667D01*
X190911Y128583D01*
X191575Y127919D01*
X192163Y127675D01*
Y129171D01*
D02*
G37*
G36*
X155002Y128384D02*
X153506D01*
Y126888D01*
X154094Y127131D01*
X154759Y127796D01*
X155002Y128384D01*
D02*
G37*
G36*
X152006D02*
X150510D01*
X150753Y127796D01*
X151418Y127131D01*
X152006Y126888D01*
Y128384D01*
D02*
G37*
G36*
X207443Y126262D02*
Y124766D01*
X208939D01*
X208696Y125354D01*
X208031Y126018D01*
X207443Y126262D01*
D02*
G37*
G36*
X205943D02*
X205355Y126018D01*
X204690Y125354D01*
X204447Y124766D01*
X205943D01*
Y126262D01*
D02*
G37*
G36*
X89333Y126262D02*
Y124766D01*
X90829D01*
X90585Y125354D01*
X89921Y126018D01*
X89333Y126262D01*
D02*
G37*
G36*
X87833D02*
X87245Y126018D01*
X86580Y125354D01*
X86336Y124766D01*
X87833D01*
Y126262D01*
D02*
G37*
G36*
X81459D02*
Y124766D01*
X82955D01*
X82711Y125354D01*
X82047Y126018D01*
X81459Y126262D01*
D02*
G37*
G36*
X79959D02*
X79371Y126018D01*
X78706Y125354D01*
X78462Y124766D01*
X79959D01*
Y126262D01*
D02*
G37*
G36*
X39785Y129134D02*
X38955D01*
X38154Y128919D01*
X37436Y128505D01*
X36850Y127918D01*
X36435Y127200D01*
X36220Y126399D01*
Y125570D01*
X36435Y124769D01*
X36850Y124050D01*
X37436Y123464D01*
X38154Y123049D01*
X38955Y122835D01*
X39785D01*
X40586Y123049D01*
X41304Y123464D01*
X41890Y124050D01*
X42305Y124769D01*
X42520Y125570D01*
Y126399D01*
X42305Y127200D01*
X41890Y127918D01*
X41304Y128505D01*
X40586Y128919D01*
X39785Y129134D01*
D02*
G37*
G36*
X26341Y124293D02*
Y122797D01*
X27837D01*
X27593Y123385D01*
X26929Y124050D01*
X26341Y124293D01*
D02*
G37*
G36*
X24841D02*
X24252Y124050D01*
X23588Y123385D01*
X23344Y122797D01*
X24841D01*
Y124293D01*
D02*
G37*
G36*
X18466D02*
Y122797D01*
X19963D01*
X19719Y123385D01*
X19055Y124050D01*
X18466Y124293D01*
D02*
G37*
G36*
X16966D02*
X16378Y124050D01*
X15714Y123385D01*
X15470Y122797D01*
X16966D01*
Y124293D01*
D02*
G37*
G36*
X193663Y124293D02*
Y122797D01*
X195160D01*
X194916Y123385D01*
X194252Y124050D01*
X193663Y124293D01*
D02*
G37*
G36*
X192163D02*
X191575Y124050D01*
X190911Y123385D01*
X190667Y122797D01*
X192163D01*
Y124293D01*
D02*
G37*
G36*
X208939Y123266D02*
X207443D01*
Y121770D01*
X208031Y122013D01*
X208696Y122678D01*
X208939Y123266D01*
D02*
G37*
G36*
X205943D02*
X204447D01*
X204690Y122678D01*
X205355Y122013D01*
X205943Y121770D01*
Y123266D01*
D02*
G37*
G36*
X90829Y123266D02*
X89333D01*
Y121770D01*
X89921Y122013D01*
X90585Y122678D01*
X90829Y123266D01*
D02*
G37*
G36*
X87833D02*
X86336D01*
X86580Y122678D01*
X87245Y122013D01*
X87833Y121770D01*
Y123266D01*
D02*
G37*
G36*
X82955D02*
X81459D01*
Y121770D01*
X82047Y122013D01*
X82711Y122678D01*
X82955Y123266D01*
D02*
G37*
G36*
X79959D02*
X78462D01*
X78706Y122678D01*
X79371Y122013D01*
X79959Y121770D01*
Y123266D01*
D02*
G37*
G36*
X103112Y122325D02*
Y120829D01*
X104608D01*
X104365Y121417D01*
X103700Y122081D01*
X103112Y122325D01*
D02*
G37*
G36*
X101612D02*
X101024Y122081D01*
X100360Y121417D01*
X100116Y120829D01*
X101612D01*
Y122325D01*
D02*
G37*
G36*
X27837Y121297D02*
X26341D01*
Y119801D01*
X26929Y120045D01*
X27593Y120709D01*
X27837Y121297D01*
D02*
G37*
G36*
X24841D02*
X23344D01*
X23588Y120709D01*
X24252Y120045D01*
X24841Y119801D01*
Y121297D01*
D02*
G37*
G36*
X19963D02*
X18466D01*
Y119801D01*
X19055Y120045D01*
X19719Y120709D01*
X19963Y121297D01*
D02*
G37*
G36*
X16966D02*
X15470D01*
X15714Y120709D01*
X16378Y120045D01*
X16966Y119801D01*
Y121297D01*
D02*
G37*
G36*
X195160Y121297D02*
X193663D01*
Y119801D01*
X194252Y120045D01*
X194916Y120709D01*
X195160Y121297D01*
D02*
G37*
G36*
X192163D02*
X190667D01*
X190911Y120709D01*
X191575Y120045D01*
X192163Y119801D01*
Y121297D01*
D02*
G37*
G36*
X104608Y119329D02*
X103112D01*
Y117833D01*
X103700Y118076D01*
X104365Y118741D01*
X104608Y119329D01*
D02*
G37*
G36*
X101612D02*
X100116D01*
X100360Y118741D01*
X101024Y118076D01*
X101612Y117833D01*
Y119329D01*
D02*
G37*
G36*
X177522Y117994D02*
Y116498D01*
X179018D01*
X178774Y117086D01*
X178110Y117751D01*
X177522Y117994D01*
D02*
G37*
G36*
X176022D02*
X175434Y117751D01*
X174769Y117086D01*
X174525Y116498D01*
X176022D01*
Y117994D01*
D02*
G37*
G36*
X39785Y121260D02*
X38955D01*
X38154Y121045D01*
X37436Y120631D01*
X36850Y120044D01*
X36435Y119326D01*
X36220Y118525D01*
Y117696D01*
X36435Y116894D01*
X36850Y116176D01*
X37436Y115590D01*
X38154Y115175D01*
X38955Y114961D01*
X39785D01*
X40586Y115175D01*
X41304Y115590D01*
X41890Y116176D01*
X42305Y116894D01*
X42520Y117696D01*
Y118525D01*
X42305Y119326D01*
X41890Y120044D01*
X41304Y120631D01*
X40586Y121045D01*
X39785Y121260D01*
D02*
G37*
G36*
X26341Y116419D02*
Y114923D01*
X27837D01*
X27593Y115511D01*
X26929Y116176D01*
X26341Y116419D01*
D02*
G37*
G36*
X24841D02*
X24252Y116176D01*
X23588Y115511D01*
X23344Y114923D01*
X24841D01*
Y116419D01*
D02*
G37*
G36*
X18466D02*
Y114923D01*
X19963D01*
X19719Y115511D01*
X19055Y116176D01*
X18466Y116419D01*
D02*
G37*
G36*
X16966D02*
X16378Y116176D01*
X15714Y115511D01*
X15470Y114923D01*
X16966D01*
Y116419D01*
D02*
G37*
G36*
X179018Y114998D02*
X177522D01*
Y113502D01*
X178110Y113745D01*
X178774Y114410D01*
X179018Y114998D01*
D02*
G37*
G36*
X176022D02*
X174525D01*
X174769Y114410D01*
X175434Y113745D01*
X176022Y113502D01*
Y114998D01*
D02*
G37*
G36*
X183427Y114057D02*
Y112561D01*
X184923D01*
X184680Y113149D01*
X184015Y113814D01*
X183427Y114057D01*
D02*
G37*
G36*
X181927D02*
X181339Y113814D01*
X180675Y113149D01*
X180431Y112561D01*
X181927D01*
Y114057D01*
D02*
G37*
G36*
X27837Y113423D02*
X26341D01*
Y111927D01*
X26929Y112171D01*
X27593Y112835D01*
X27837Y113423D01*
D02*
G37*
G36*
X24841D02*
X23344D01*
X23588Y112835D01*
X24252Y112171D01*
X24841Y111927D01*
Y113423D01*
D02*
G37*
G36*
X19963D02*
X18466D01*
Y111927D01*
X19055Y112171D01*
X19719Y112835D01*
X19963Y113423D01*
D02*
G37*
G36*
X16966D02*
X15470D01*
X15714Y112835D01*
X16378Y112171D01*
X16966Y111927D01*
Y113423D01*
D02*
G37*
G36*
X142482Y112482D02*
Y110986D01*
X143978D01*
X143735Y111574D01*
X143070Y112239D01*
X142482Y112482D01*
D02*
G37*
G36*
X140982D02*
X140394Y112239D01*
X139730Y111574D01*
X139486Y110986D01*
X140982D01*
Y112482D01*
D02*
G37*
G36*
X40120D02*
Y110986D01*
X41616D01*
X41373Y111574D01*
X40708Y112239D01*
X40120Y112482D01*
D02*
G37*
G36*
X38620D02*
X38032Y112239D01*
X37367Y111574D01*
X37124Y110986D01*
X38620D01*
Y112482D01*
D02*
G37*
G36*
X184923Y111061D02*
X183427D01*
Y109565D01*
X184015Y109808D01*
X184680Y110473D01*
X184923Y111061D01*
D02*
G37*
G36*
X181927D02*
X180431D01*
X180675Y110473D01*
X181339Y109808D01*
X181927Y109565D01*
Y111061D01*
D02*
G37*
G36*
X143978Y109486D02*
X142482D01*
Y107990D01*
X143070Y108234D01*
X143735Y108898D01*
X143978Y109486D01*
D02*
G37*
G36*
X140982D02*
X139486D01*
X139730Y108898D01*
X140394Y108234D01*
X140982Y107990D01*
Y109486D01*
D02*
G37*
G36*
X41616D02*
X40120D01*
Y107990D01*
X40708Y108234D01*
X41373Y108898D01*
X41616Y109486D01*
D02*
G37*
G36*
X38620D02*
X37124D01*
X37367Y108898D01*
X38032Y108234D01*
X38620Y107990D01*
Y109486D01*
D02*
G37*
G36*
X140514Y106577D02*
Y105081D01*
X142010D01*
X141766Y105669D01*
X141102Y106333D01*
X140514Y106577D01*
D02*
G37*
G36*
X139014D02*
X138426Y106333D01*
X137761Y105669D01*
X137518Y105081D01*
X139014D01*
Y106577D01*
D02*
G37*
G36*
X116892D02*
Y105081D01*
X118388D01*
X118144Y105669D01*
X117480Y106333D01*
X116892Y106577D01*
D02*
G37*
G36*
X115392D02*
X114804Y106333D01*
X114139Y105669D01*
X113896Y105081D01*
X115392D01*
Y106577D01*
D02*
G37*
G36*
X109018D02*
Y105081D01*
X110514D01*
X110270Y105669D01*
X109606Y106333D01*
X109018Y106577D01*
D02*
G37*
G36*
X107518D02*
X106930Y106333D01*
X106265Y105669D01*
X106022Y105081D01*
X107518D01*
Y106577D01*
D02*
G37*
G36*
X40120Y104608D02*
Y103112D01*
X41616D01*
X41373Y103700D01*
X40708Y104365D01*
X40120Y104608D01*
D02*
G37*
G36*
X38620D02*
X38032Y104365D01*
X37367Y103700D01*
X37124Y103112D01*
X38620D01*
Y104608D01*
D02*
G37*
G36*
X142010Y103581D02*
X140514D01*
Y102085D01*
X141102Y102328D01*
X141766Y102993D01*
X142010Y103581D01*
D02*
G37*
G36*
X139014D02*
X137518D01*
X137761Y102993D01*
X138426Y102328D01*
X139014Y102085D01*
Y103581D01*
D02*
G37*
G36*
X118388D02*
X116892D01*
Y102085D01*
X117480Y102328D01*
X118144Y102993D01*
X118388Y103581D01*
D02*
G37*
G36*
X115392D02*
X113896D01*
X114139Y102993D01*
X114804Y102328D01*
X115392Y102085D01*
Y103581D01*
D02*
G37*
G36*
X110514D02*
X109018D01*
Y102085D01*
X109606Y102328D01*
X110270Y102993D01*
X110514Y103581D01*
D02*
G37*
G36*
X107518D02*
X106022D01*
X106265Y102993D01*
X106930Y102328D01*
X107518Y102085D01*
Y103581D01*
D02*
G37*
G36*
X41616Y101612D02*
X40120D01*
Y100116D01*
X40708Y100360D01*
X41373Y101024D01*
X41616Y101612D01*
D02*
G37*
G36*
X38620D02*
X37124D01*
X37367Y101024D01*
X38032Y100360D01*
X38620Y100116D01*
Y101612D01*
D02*
G37*
G36*
X228695Y133858D02*
X226424D01*
X224172Y133562D01*
X221979Y132974D01*
X219881Y132105D01*
X217914Y130970D01*
X216113Y129587D01*
X214507Y127982D01*
X213125Y126180D01*
X211989Y124214D01*
X211120Y122116D01*
X210533Y119922D01*
X210236Y117671D01*
Y115400D01*
X210533Y113149D01*
X211120Y110955D01*
X211989Y108857D01*
X213125Y106891D01*
X214507Y105089D01*
X216113Y103483D01*
X217914Y102101D01*
X219881Y100966D01*
X221979Y100097D01*
X224172Y99509D01*
X226424Y99213D01*
X228695D01*
X230946Y99509D01*
X233139Y100097D01*
X235237Y100966D01*
X237204Y102101D01*
X239005Y103483D01*
X240611Y105089D01*
X241993Y106891D01*
X243129Y108857D01*
X243998Y110955D01*
X244585Y113149D01*
X244882Y115400D01*
Y117671D01*
X244585Y119922D01*
X243998Y122116D01*
X243129Y124214D01*
X241993Y126180D01*
X240611Y127982D01*
X239005Y129587D01*
X237204Y130970D01*
X235237Y132105D01*
X233139Y132974D01*
X230946Y133562D01*
X228695Y133858D01*
D02*
G37*
G36*
X154293Y100671D02*
Y99175D01*
X155789D01*
X155546Y99763D01*
X154881Y100428D01*
X154293Y100671D01*
D02*
G37*
G36*
X152793D02*
X152205Y100428D01*
X151541Y99763D01*
X151297Y99175D01*
X152793D01*
Y100671D01*
D02*
G37*
G36*
X140514D02*
Y99175D01*
X142010D01*
X141766Y99763D01*
X141102Y100428D01*
X140514Y100671D01*
D02*
G37*
G36*
X155789Y97675D02*
X154293D01*
Y96179D01*
X154881Y96423D01*
X155546Y97087D01*
X155789Y97675D01*
D02*
G37*
G36*
X152793D02*
X151297D01*
X151541Y97087D01*
X152205Y96423D01*
X152793Y96179D01*
Y97675D01*
D02*
G37*
G36*
X142010D02*
X140514D01*
Y96179D01*
X141102Y96423D01*
X141766Y97087D01*
X142010Y97675D01*
D02*
G37*
G36*
X100021Y107087D02*
X99192D01*
X98391Y106872D01*
X97672Y106457D01*
X97086Y105871D01*
X96671Y105153D01*
X96457Y104352D01*
Y103522D01*
X96671Y102721D01*
X97086Y102003D01*
X97672Y101417D01*
X98391Y101002D01*
X99192Y100787D01*
X99634D01*
X104344Y96077D01*
X105061Y95598D01*
X105905Y95430D01*
X119419D01*
X120264Y95598D01*
X120601Y95824D01*
X131612D01*
X131924Y95511D01*
X132643Y95096D01*
X133444Y94882D01*
X134273D01*
X135074Y95096D01*
X135792Y95511D01*
X136379Y96098D01*
X136793Y96816D01*
X137005Y97606D01*
X137030Y97620D01*
X137508Y97699D01*
X137761Y97087D01*
X138426Y96423D01*
X139014Y96179D01*
Y98425D01*
Y100671D01*
X138426Y100428D01*
X137761Y99763D01*
X137402Y98895D01*
X136902Y98843D01*
X136793Y99247D01*
X136379Y99965D01*
X135792Y100552D01*
X135074Y100967D01*
X134273Y101181D01*
X133444D01*
X132643Y100967D01*
X131924Y100552D01*
X131612Y100239D01*
X119812D01*
X118967Y100071D01*
X118630Y99846D01*
X106820D01*
X102756Y103910D01*
Y104352D01*
X102541Y105153D01*
X102127Y105871D01*
X101540Y106457D01*
X100822Y106872D01*
X100021Y107087D01*
D02*
G37*
G36*
X20422Y105905D02*
X18948D01*
X17503Y105618D01*
X16142Y105054D01*
X14917Y104235D01*
X13875Y103194D01*
X13056Y101968D01*
X12492Y100607D01*
X12205Y99162D01*
Y97689D01*
X12492Y96243D01*
X13056Y94882D01*
X13875Y93657D01*
X14917Y92615D01*
X16142Y91796D01*
X17503Y91232D01*
X18948Y90945D01*
X20422D01*
X21867Y91232D01*
X23228Y91796D01*
X24453Y92615D01*
X25495Y93657D01*
X26314Y94882D01*
X26878Y96243D01*
X27165Y97689D01*
Y99162D01*
X26878Y100607D01*
X26314Y101968D01*
X25495Y103194D01*
X24453Y104235D01*
X23228Y105054D01*
X21867Y105618D01*
X20422Y105905D01*
D02*
G37*
G36*
X116892Y90829D02*
Y89333D01*
X118388D01*
X118144Y89921D01*
X117480Y90585D01*
X116892Y90829D01*
D02*
G37*
G36*
X115392D02*
X114804Y90585D01*
X114139Y89921D01*
X113896Y89333D01*
X115392D01*
Y90829D01*
D02*
G37*
G36*
X110986D02*
Y89333D01*
X112482D01*
X112239Y89921D01*
X111574Y90585D01*
X110986Y90829D01*
D02*
G37*
G36*
X109486D02*
X108898Y90585D01*
X108234Y89921D01*
X107990Y89333D01*
X109486D01*
Y90829D01*
D02*
G37*
G36*
X103112D02*
Y89333D01*
X104608D01*
X104365Y89921D01*
X103700Y90585D01*
X103112Y90829D01*
D02*
G37*
G36*
X101612D02*
X101024Y90585D01*
X100360Y89921D01*
X100116Y89333D01*
X101612D01*
Y90829D01*
D02*
G37*
G36*
X95238D02*
Y89333D01*
X96734D01*
X96491Y89921D01*
X95826Y90585D01*
X95238Y90829D01*
D02*
G37*
G36*
X93738D02*
X93150Y90585D01*
X92486Y89921D01*
X92242Y89333D01*
X93738D01*
Y90829D01*
D02*
G37*
G36*
X183821Y90041D02*
Y88545D01*
X185317D01*
X185073Y89133D01*
X184409Y89798D01*
X183821Y90041D01*
D02*
G37*
G36*
X182321D02*
X181733Y89798D01*
X181068Y89133D01*
X180825Y88545D01*
X182321D01*
Y90041D01*
D02*
G37*
G36*
X118388Y87833D02*
X116892D01*
Y86336D01*
X117480Y86580D01*
X118144Y87245D01*
X118388Y87833D01*
D02*
G37*
G36*
X115392D02*
X113896D01*
X114139Y87245D01*
X114804Y86580D01*
X115392Y86336D01*
Y87833D01*
D02*
G37*
G36*
X112482D02*
X110986D01*
Y86336D01*
X111574Y86580D01*
X112239Y87245D01*
X112482Y87833D01*
D02*
G37*
G36*
X109486D02*
X107990D01*
X108234Y87245D01*
X108898Y86580D01*
X109486Y86336D01*
Y87833D01*
D02*
G37*
G36*
X104608D02*
X103112D01*
Y86336D01*
X103700Y86580D01*
X104365Y87245D01*
X104608Y87833D01*
D02*
G37*
G36*
X101612D02*
X100116D01*
X100360Y87245D01*
X101024Y86580D01*
X101612Y86336D01*
Y87833D01*
D02*
G37*
G36*
X96734D02*
X95238D01*
Y86336D01*
X95826Y86580D01*
X96491Y87245D01*
X96734Y87833D01*
D02*
G37*
G36*
X93738D02*
X92242D01*
X92486Y87245D01*
X93150Y86580D01*
X93738Y86336D01*
Y87833D01*
D02*
G37*
G36*
X185317Y87045D02*
X183821D01*
Y85549D01*
X184409Y85793D01*
X185073Y86457D01*
X185317Y87045D01*
D02*
G37*
G36*
X182321D02*
X180825D01*
X181068Y86457D01*
X181733Y85793D01*
X182321Y85549D01*
Y87045D01*
D02*
G37*
G36*
X244845Y84923D02*
Y83427D01*
X246341D01*
X246097Y84015D01*
X245433Y84680D01*
X244845Y84923D01*
D02*
G37*
G36*
X243344D02*
X242756Y84680D01*
X242092Y84015D01*
X241848Y83427D01*
X243344D01*
Y84923D01*
D02*
G37*
G36*
X223191D02*
Y83427D01*
X224687D01*
X224444Y84015D01*
X223779Y84680D01*
X223191Y84923D01*
D02*
G37*
G36*
X221691D02*
X221103Y84680D01*
X220438Y84015D01*
X220195Y83427D01*
X221691D01*
Y84923D01*
D02*
G37*
G36*
X116892Y82955D02*
Y81459D01*
X118388D01*
X118144Y82047D01*
X117480Y82711D01*
X116892Y82955D01*
D02*
G37*
G36*
X115392D02*
X114804Y82711D01*
X114139Y82047D01*
X113896Y81459D01*
X115392D01*
Y82955D01*
D02*
G37*
G36*
X110986D02*
Y81459D01*
X112482D01*
X112239Y82047D01*
X111574Y82711D01*
X110986Y82955D01*
D02*
G37*
G36*
X109486D02*
X108898Y82711D01*
X108234Y82047D01*
X107990Y81459D01*
X109486D01*
Y82955D01*
D02*
G37*
G36*
X103112D02*
Y81459D01*
X104608D01*
X104365Y82047D01*
X103700Y82711D01*
X103112Y82955D01*
D02*
G37*
G36*
X101612D02*
X101024Y82711D01*
X100360Y82047D01*
X100116Y81459D01*
X101612D01*
Y82955D01*
D02*
G37*
G36*
X95238D02*
Y81459D01*
X96734D01*
X96491Y82047D01*
X95826Y82711D01*
X95238Y82955D01*
D02*
G37*
G36*
X93738D02*
X93150Y82711D01*
X92486Y82047D01*
X92242Y81459D01*
X93738D01*
Y82955D01*
D02*
G37*
G36*
X246341Y81927D02*
X244845D01*
Y80431D01*
X245433Y80675D01*
X246097Y81339D01*
X246341Y81927D01*
D02*
G37*
G36*
X243344D02*
X241848D01*
X242092Y81339D01*
X242756Y80675D01*
X243344Y80431D01*
Y81927D01*
D02*
G37*
G36*
X224687D02*
X223191D01*
Y80431D01*
X223779Y80675D01*
X224444Y81339D01*
X224687Y81927D01*
D02*
G37*
G36*
X221691D02*
X220195D01*
X220438Y81339D01*
X221103Y80675D01*
X221691Y80431D01*
Y81927D01*
D02*
G37*
G36*
X118388Y79959D02*
X116892D01*
Y78462D01*
X117480Y78706D01*
X118144Y79371D01*
X118388Y79959D01*
D02*
G37*
G36*
X115392D02*
X113896D01*
X114139Y79371D01*
X114804Y78706D01*
X115392Y78462D01*
Y79959D01*
D02*
G37*
G36*
X112482D02*
X110986D01*
Y78462D01*
X111574Y78706D01*
X112239Y79371D01*
X112482Y79959D01*
D02*
G37*
G36*
X109486D02*
X107990D01*
X108234Y79371D01*
X108898Y78706D01*
X109486Y78462D01*
Y79959D01*
D02*
G37*
G36*
X104608D02*
X103112D01*
Y78462D01*
X103700Y78706D01*
X104365Y79371D01*
X104608Y79959D01*
D02*
G37*
G36*
X101612D02*
X100116D01*
X100360Y79371D01*
X101024Y78706D01*
X101612Y78462D01*
Y79959D01*
D02*
G37*
G36*
X96734D02*
X95238D01*
Y78462D01*
X95826Y78706D01*
X96491Y79371D01*
X96734Y79959D01*
D02*
G37*
G36*
X93738D02*
X92242D01*
X92486Y79371D01*
X93150Y78706D01*
X93738Y78462D01*
Y79959D01*
D02*
G37*
G36*
X20422Y90158D02*
X18948D01*
X17503Y89870D01*
X16142Y89306D01*
X14917Y88487D01*
X13875Y87446D01*
X13056Y86220D01*
X12492Y84859D01*
X12205Y83414D01*
Y81940D01*
X12492Y80495D01*
X13056Y79134D01*
X13875Y77909D01*
X14917Y76867D01*
X16142Y76048D01*
X17503Y75484D01*
X18948Y75197D01*
X20422D01*
X21867Y75484D01*
X23228Y76048D01*
X24453Y76867D01*
X25495Y77909D01*
X26314Y79134D01*
X26878Y80495D01*
X27165Y81940D01*
Y83414D01*
X26878Y84859D01*
X26314Y86220D01*
X25495Y87446D01*
X24453Y88487D01*
X23228Y89306D01*
X21867Y89870D01*
X20422Y90158D01*
D02*
G37*
G36*
X139034Y74846D02*
X136614D01*
X135769Y74677D01*
X135053Y74199D01*
X134519Y73664D01*
X128428D01*
X128312Y73780D01*
X127594Y74195D01*
X126793Y74410D01*
X125963D01*
X125162Y74195D01*
X124444Y73780D01*
X123858Y73194D01*
X123443Y72475D01*
X123228Y71675D01*
Y70845D01*
X123443Y70044D01*
X123858Y69326D01*
X124444Y68739D01*
X125162Y68325D01*
X125963Y68110D01*
X126793D01*
X127594Y68325D01*
X128312Y68739D01*
X128821Y69249D01*
X135433D01*
X136278Y69417D01*
X136994Y69896D01*
X137221Y70122D01*
X137846Y70040D01*
X138031Y69720D01*
X138617Y69133D01*
X139336Y68719D01*
X140137Y68504D01*
X140966D01*
X141767Y68719D01*
X142485Y69133D01*
X143071Y69720D01*
X143486Y70438D01*
X143701Y71239D01*
Y72068D01*
X143486Y72869D01*
X143071Y73588D01*
X142485Y74174D01*
X141767Y74589D01*
X140966Y74803D01*
X140137D01*
X139758Y74702D01*
X139034Y74846D01*
D02*
G37*
G36*
X248781Y75081D02*
Y73585D01*
X250278D01*
X250034Y74173D01*
X249370Y74837D01*
X248781Y75081D01*
D02*
G37*
G36*
X247282D02*
X246693Y74837D01*
X246029Y74173D01*
X245785Y73585D01*
X247282D01*
Y75081D01*
D02*
G37*
G36*
X160199D02*
Y73585D01*
X161695D01*
X161451Y74173D01*
X160787Y74837D01*
X160199Y75081D01*
D02*
G37*
G36*
X158699D02*
X158111Y74837D01*
X157446Y74173D01*
X157203Y73585D01*
X158699D01*
Y75081D01*
D02*
G37*
G36*
X110986D02*
Y73585D01*
X112482D01*
X112239Y74173D01*
X111574Y74837D01*
X110986Y75081D01*
D02*
G37*
G36*
X109486D02*
X108898Y74837D01*
X108234Y74173D01*
X107990Y73585D01*
X109486D01*
Y75081D01*
D02*
G37*
G36*
X103112D02*
Y73585D01*
X104608D01*
X104365Y74173D01*
X103700Y74837D01*
X103112Y75081D01*
D02*
G37*
G36*
X101612D02*
X101024Y74837D01*
X100360Y74173D01*
X100116Y73585D01*
X101612D01*
Y75081D01*
D02*
G37*
G36*
X95238D02*
Y73585D01*
X96734D01*
X96491Y74173D01*
X95826Y74837D01*
X95238Y75081D01*
D02*
G37*
G36*
X93738D02*
X93150Y74837D01*
X92486Y74173D01*
X92242Y73585D01*
X93738D01*
Y75081D01*
D02*
G37*
G36*
X250278Y72085D02*
X248781D01*
Y70588D01*
X249370Y70832D01*
X250034Y71497D01*
X250278Y72085D01*
D02*
G37*
G36*
X247282D02*
X245785D01*
X246029Y71497D01*
X246693Y70832D01*
X247282Y70588D01*
Y72085D01*
D02*
G37*
G36*
X158699D02*
X157203D01*
X157446Y71497D01*
X158111Y70832D01*
X158699Y70588D01*
Y72085D01*
D02*
G37*
G36*
X112482D02*
X110986D01*
Y70588D01*
X111574Y70832D01*
X112239Y71497D01*
X112482Y72085D01*
D02*
G37*
G36*
X109486D02*
X107990D01*
X108234Y71497D01*
X108898Y70832D01*
X109486Y70588D01*
Y72085D01*
D02*
G37*
G36*
X104608D02*
X103112D01*
Y70588D01*
X103700Y70832D01*
X104365Y71497D01*
X104608Y72085D01*
D02*
G37*
G36*
X101612D02*
X100116D01*
X100360Y71497D01*
X101024Y70832D01*
X101612Y70588D01*
Y72085D01*
D02*
G37*
G36*
X96734D02*
X95238D01*
Y70588D01*
X95826Y70832D01*
X96491Y71497D01*
X96734Y72085D01*
D02*
G37*
G36*
X93738D02*
X92242D01*
X92486Y71497D01*
X93150Y70832D01*
X93738Y70588D01*
Y72085D01*
D02*
G37*
G36*
X162955Y70750D02*
Y69254D01*
X164451D01*
X164207Y69842D01*
X163543Y70507D01*
X162955Y70750D01*
D02*
G37*
G36*
X161695Y72085D02*
X160199D01*
Y70588D01*
X160272Y70619D01*
X160555Y70195D01*
X160202Y69842D01*
X159959Y69254D01*
X161455D01*
Y70750D01*
X161382Y70720D01*
X161099Y71144D01*
X161451Y71497D01*
X161695Y72085D01*
D02*
G37*
G36*
X20435Y73604D02*
Y67679D01*
X26360D01*
X26121Y68881D01*
X25616Y70099D01*
X24884Y71196D01*
X23952Y72128D01*
X22855Y72860D01*
X21637Y73365D01*
X20435Y73604D01*
D02*
G37*
G36*
X18935D02*
X17733Y73365D01*
X16515Y72860D01*
X15419Y72128D01*
X14486Y71196D01*
X13754Y70099D01*
X13249Y68881D01*
X13010Y67679D01*
X18935D01*
Y73604D01*
D02*
G37*
G36*
X164451Y67754D02*
X162955D01*
Y66258D01*
X163543Y66501D01*
X164207Y67166D01*
X164451Y67754D01*
D02*
G37*
G36*
X161455D02*
X159959D01*
X160202Y67166D01*
X160867Y66501D01*
X161455Y66258D01*
Y67754D01*
D02*
G37*
G36*
X204293Y67601D02*
Y66104D01*
X205789D01*
X205546Y66692D01*
X204881Y67357D01*
X204293Y67601D01*
D02*
G37*
G36*
X202793D02*
X202205Y67357D01*
X201541Y66692D01*
X201297Y66104D01*
X202793D01*
Y67601D01*
D02*
G37*
G36*
X110986Y67207D02*
Y65711D01*
X112482D01*
X112239Y66299D01*
X111574Y66963D01*
X110986Y67207D01*
D02*
G37*
G36*
X109486D02*
X108898Y66963D01*
X108234Y66299D01*
X107990Y65711D01*
X109486D01*
Y67207D01*
D02*
G37*
G36*
X103112D02*
Y65711D01*
X104608D01*
X104365Y66299D01*
X103700Y66963D01*
X103112Y67207D01*
D02*
G37*
G36*
X101612D02*
X101024Y66963D01*
X100360Y66299D01*
X100116Y65711D01*
X101612D01*
Y67207D01*
D02*
G37*
G36*
X123191Y65632D02*
Y64136D01*
X124687D01*
X124443Y64724D01*
X123779Y65388D01*
X123191Y65632D01*
D02*
G37*
G36*
X121691D02*
X121103Y65388D01*
X120438Y64724D01*
X120195Y64136D01*
X121691D01*
Y65632D01*
D02*
G37*
G36*
X250750Y65238D02*
Y63742D01*
X252246D01*
X252003Y64330D01*
X251338Y64995D01*
X250750Y65238D01*
D02*
G37*
G36*
X205789Y64604D02*
X204293D01*
Y63108D01*
X204881Y63352D01*
X205546Y64016D01*
X205789Y64604D01*
D02*
G37*
G36*
X202793D02*
X201297D01*
X201541Y64016D01*
X202205Y63352D01*
X202793Y63108D01*
Y64604D01*
D02*
G37*
G36*
X112482Y64211D02*
X110986D01*
Y62714D01*
X111574Y62958D01*
X112239Y63623D01*
X112482Y64211D01*
D02*
G37*
G36*
X109486D02*
X107990D01*
X108234Y63623D01*
X108898Y62958D01*
X109486Y62714D01*
Y64211D01*
D02*
G37*
G36*
X104608D02*
X103112D01*
Y62714D01*
X103700Y62958D01*
X104365Y63623D01*
X104608Y64211D01*
D02*
G37*
G36*
X101612D02*
X100116D01*
X100360Y63623D01*
X101024Y62958D01*
X101612Y62714D01*
Y64211D01*
D02*
G37*
G36*
X124687Y62636D02*
X123191D01*
Y61140D01*
X123779Y61383D01*
X124443Y62048D01*
X124687Y62636D01*
D02*
G37*
G36*
X121691D02*
X120195D01*
X120438Y62048D01*
X121103Y61383D01*
X121691Y61140D01*
Y62636D01*
D02*
G37*
G36*
X252246Y62242D02*
X250750D01*
Y60746D01*
X251338Y60989D01*
X252003Y61654D01*
X252246Y62242D01*
D02*
G37*
G36*
X231450Y80315D02*
X229180D01*
X226928Y80019D01*
X224735Y79431D01*
X222637Y78562D01*
X220670Y77426D01*
X218869Y76044D01*
X217263Y74438D01*
X215881Y72637D01*
X214745Y70670D01*
X213876Y68572D01*
X213288Y66379D01*
X212992Y64127D01*
Y61857D01*
X213288Y59605D01*
X213876Y57412D01*
X214745Y55314D01*
X215881Y53347D01*
X217263Y51546D01*
X218869Y49940D01*
X220670Y48558D01*
X222637Y47422D01*
X224735Y46553D01*
X226928Y45966D01*
X229180Y45669D01*
X231450D01*
X233702Y45966D01*
X235895Y46553D01*
X237993Y47422D01*
X239960Y48558D01*
X241761Y49940D01*
X243367Y51546D01*
X244749Y53347D01*
X245885Y55314D01*
X246754Y57412D01*
X247341Y59605D01*
X247580Y61418D01*
X247654Y61460D01*
X248102Y61550D01*
X248662Y60989D01*
X249250Y60746D01*
Y62992D01*
Y65238D01*
X248662Y64995D01*
X248102Y64434D01*
X247654Y64524D01*
X247580Y64566D01*
X247341Y66379D01*
X246754Y68572D01*
X245885Y70670D01*
X244749Y72637D01*
X243367Y74438D01*
X241761Y76044D01*
X239960Y77426D01*
X237993Y78562D01*
X235895Y79431D01*
X233702Y80019D01*
X231450Y80315D01*
D02*
G37*
G36*
X26360Y66179D02*
X20435D01*
Y60254D01*
X21637Y60493D01*
X22855Y60998D01*
X23952Y61730D01*
X24884Y62663D01*
X25616Y63759D01*
X26121Y64977D01*
X26360Y66179D01*
D02*
G37*
G36*
X18935D02*
X13010D01*
X13249Y64977D01*
X13754Y63759D01*
X14486Y62663D01*
X15419Y61730D01*
X16515Y60998D01*
X17733Y60493D01*
X18935Y60254D01*
Y66179D01*
D02*
G37*
G36*
X143663Y57758D02*
Y56262D01*
X145159D01*
X144916Y56850D01*
X144252Y57514D01*
X143663Y57758D01*
D02*
G37*
G36*
X142163D02*
X141575Y57514D01*
X140911Y56850D01*
X140667Y56262D01*
X142163D01*
Y57758D01*
D02*
G37*
G36*
X118860Y57364D02*
Y55868D01*
X120356D01*
X120113Y56456D01*
X119448Y57121D01*
X118860Y57364D01*
D02*
G37*
G36*
X117360D02*
X116772Y57121D01*
X116108Y56456D01*
X115864Y55868D01*
X117360D01*
Y57364D01*
D02*
G37*
G36*
X81459D02*
Y55868D01*
X82955D01*
X82711Y56456D01*
X82047Y57121D01*
X81459Y57364D01*
D02*
G37*
G36*
X79959D02*
X79371Y57121D01*
X78706Y56456D01*
X78462Y55868D01*
X79959D01*
Y57364D01*
D02*
G37*
G36*
X112955Y57364D02*
Y55868D01*
X114451D01*
X114207Y56456D01*
X113543Y57121D01*
X112955Y57364D01*
D02*
G37*
G36*
X111455D02*
X110867Y57121D01*
X110202Y56456D01*
X109959Y55868D01*
X111455D01*
Y57364D01*
D02*
G37*
G36*
X97207D02*
Y55868D01*
X98703D01*
X98459Y56456D01*
X97795Y57121D01*
X97207Y57364D01*
D02*
G37*
G36*
X95707D02*
X95119Y57121D01*
X94454Y56456D01*
X94210Y55868D01*
X95707D01*
Y57364D01*
D02*
G37*
G36*
X89333D02*
Y55868D01*
X90829D01*
X90585Y56456D01*
X89921Y57121D01*
X89333Y57364D01*
D02*
G37*
G36*
X87833D02*
X87245Y57121D01*
X86580Y56456D01*
X86336Y55868D01*
X87833D01*
Y57364D01*
D02*
G37*
G36*
X250750Y55396D02*
Y53900D01*
X252246D01*
X252003Y54488D01*
X251338Y55152D01*
X250750Y55396D01*
D02*
G37*
G36*
X249250D02*
X248662Y55152D01*
X247997Y54488D01*
X247754Y53900D01*
X249250D01*
Y55396D01*
D02*
G37*
G36*
X145159Y54762D02*
X143663D01*
Y53266D01*
X144252Y53509D01*
X144916Y54174D01*
X145159Y54762D01*
D02*
G37*
G36*
X142163D02*
X140667D01*
X140911Y54174D01*
X141575Y53509D01*
X142163Y53266D01*
Y54762D01*
D02*
G37*
G36*
X120356Y54368D02*
X118860D01*
Y52872D01*
X119448Y53115D01*
X120113Y53780D01*
X120356Y54368D01*
D02*
G37*
G36*
X117360D02*
X115864D01*
X116108Y53780D01*
X116772Y53115D01*
X117360Y52872D01*
Y54368D01*
D02*
G37*
G36*
X82955D02*
X81459D01*
Y52872D01*
X82047Y53115D01*
X82711Y53780D01*
X82955Y54368D01*
D02*
G37*
G36*
X79959D02*
X78462D01*
X78706Y53780D01*
X79371Y53115D01*
X79959Y52872D01*
Y54368D01*
D02*
G37*
G36*
X114451Y54368D02*
X112955D01*
Y52872D01*
X113543Y53115D01*
X114207Y53780D01*
X114451Y54368D01*
D02*
G37*
G36*
X111455D02*
X109959D01*
X110202Y53780D01*
X110867Y53115D01*
X111455Y52872D01*
Y54368D01*
D02*
G37*
G36*
X98703D02*
X97207D01*
Y52872D01*
X97795Y53115D01*
X98459Y53780D01*
X98703Y54368D01*
D02*
G37*
G36*
X95707D02*
X94210D01*
X94454Y53780D01*
X95119Y53115D01*
X95707Y52872D01*
Y54368D01*
D02*
G37*
G36*
X90829D02*
X89333D01*
Y52872D01*
X89921Y53115D01*
X90585Y53780D01*
X90829Y54368D01*
D02*
G37*
G36*
X87833D02*
X86336D01*
X86580Y53780D01*
X87245Y53115D01*
X87833Y52872D01*
Y54368D01*
D02*
G37*
G36*
X205474Y53427D02*
Y51931D01*
X206971D01*
X206727Y52519D01*
X206063Y53184D01*
X205474Y53427D01*
D02*
G37*
G36*
X203974D02*
X203386Y53184D01*
X202722Y52519D01*
X202478Y51931D01*
X203974D01*
Y53427D01*
D02*
G37*
G36*
X252246Y52400D02*
X250750D01*
Y50903D01*
X251338Y51147D01*
X252003Y51811D01*
X252246Y52400D01*
D02*
G37*
G36*
X249250D02*
X247754D01*
X247997Y51811D01*
X248662Y51147D01*
X249250Y50903D01*
Y52400D01*
D02*
G37*
G36*
X126734Y51459D02*
Y49963D01*
X128230D01*
X127987Y50551D01*
X127322Y51215D01*
X126734Y51459D01*
D02*
G37*
G36*
X125234D02*
X124646Y51215D01*
X123982Y50551D01*
X123738Y49963D01*
X125234D01*
Y51459D01*
D02*
G37*
G36*
X206971Y50431D02*
X205474D01*
Y48935D01*
X206063Y49178D01*
X206727Y49843D01*
X206971Y50431D01*
D02*
G37*
G36*
X203974D02*
X202478D01*
X202722Y49843D01*
X203386Y49178D01*
X203974Y48935D01*
Y50431D01*
D02*
G37*
G36*
X211380Y49490D02*
Y47994D01*
X212876D01*
X212632Y48582D01*
X211968Y49247D01*
X211380Y49490D01*
D02*
G37*
G36*
X209880D02*
X209292Y49247D01*
X208627Y48582D01*
X208384Y47994D01*
X209880D01*
Y49490D01*
D02*
G37*
G36*
X118860D02*
Y47994D01*
X120356D01*
X120113Y48582D01*
X119448Y49247D01*
X118860Y49490D01*
D02*
G37*
G36*
X117360D02*
X116772Y49247D01*
X116108Y48582D01*
X115864Y47994D01*
X117360D01*
Y49490D01*
D02*
G37*
G36*
X105081Y49490D02*
Y47994D01*
X106577D01*
X106333Y48582D01*
X105669Y49247D01*
X105081Y49490D01*
D02*
G37*
G36*
X103581D02*
X102993Y49247D01*
X102328Y48582D01*
X102085Y47994D01*
X103581D01*
Y49490D01*
D02*
G37*
G36*
X97207D02*
Y47994D01*
X98703D01*
X98459Y48582D01*
X97795Y49247D01*
X97207Y49490D01*
D02*
G37*
G36*
X95707D02*
X95119Y49247D01*
X94454Y48582D01*
X94210Y47994D01*
X95707D01*
Y49490D01*
D02*
G37*
G36*
X89333D02*
Y47994D01*
X90829D01*
X90585Y48582D01*
X89921Y49247D01*
X89333Y49490D01*
D02*
G37*
G36*
X87833D02*
X87245Y49247D01*
X86580Y48582D01*
X86336Y47994D01*
X87833D01*
Y49490D01*
D02*
G37*
G36*
X128230Y48463D02*
X126734D01*
Y46966D01*
X127322Y47210D01*
X127987Y47875D01*
X128230Y48463D01*
D02*
G37*
G36*
X125234D02*
X123738D01*
X123982Y47875D01*
X124646Y47210D01*
X125234Y46966D01*
Y48463D01*
D02*
G37*
G36*
X246813Y47522D02*
Y46026D01*
X248309D01*
X248066Y46614D01*
X247401Y47278D01*
X246813Y47522D01*
D02*
G37*
G36*
X245313D02*
X244725Y47278D01*
X244060Y46614D01*
X243817Y46026D01*
X245313D01*
Y47522D01*
D02*
G37*
G36*
X212876Y46494D02*
X211380D01*
Y44998D01*
X211968Y45241D01*
X212632Y45906D01*
X212876Y46494D01*
D02*
G37*
G36*
X209880D02*
X208384D01*
X208627Y45906D01*
X209292Y45241D01*
X209880Y44998D01*
Y46494D01*
D02*
G37*
G36*
X120356D02*
X118860D01*
Y44998D01*
X119448Y45241D01*
X120113Y45906D01*
X120356Y46494D01*
D02*
G37*
G36*
X117360D02*
X115864D01*
X116108Y45906D01*
X116772Y45241D01*
X117360Y44998D01*
Y46494D01*
D02*
G37*
G36*
X106577Y46494D02*
X105081D01*
Y44998D01*
X105669Y45241D01*
X106333Y45906D01*
X106577Y46494D01*
D02*
G37*
G36*
X103581D02*
X102085D01*
X102328Y45906D01*
X102993Y45241D01*
X103581Y44998D01*
Y46494D01*
D02*
G37*
G36*
X98703D02*
X97207D01*
Y44998D01*
X97795Y45241D01*
X98459Y45906D01*
X98703Y46494D01*
D02*
G37*
G36*
X95707D02*
X94210D01*
X94454Y45906D01*
X95119Y45241D01*
X95707Y44998D01*
Y46494D01*
D02*
G37*
G36*
X90829D02*
X89333D01*
Y44998D01*
X89921Y45241D01*
X90585Y45906D01*
X90829Y46494D01*
D02*
G37*
G36*
X87833D02*
X86336D01*
X86580Y45906D01*
X87245Y45241D01*
X87833Y44998D01*
Y46494D01*
D02*
G37*
G36*
X20422Y58662D02*
X18948D01*
X17503Y58374D01*
X16142Y57810D01*
X14917Y56991D01*
X13875Y55950D01*
X13056Y54724D01*
X12492Y53363D01*
X12205Y51918D01*
Y50444D01*
X12492Y48999D01*
X13056Y47638D01*
X13875Y46413D01*
X14917Y45371D01*
X16142Y44552D01*
X17503Y43988D01*
X18948Y43701D01*
X20422D01*
X21867Y43988D01*
X23228Y44552D01*
X24453Y45371D01*
X25495Y46413D01*
X26314Y47638D01*
X26878Y48999D01*
X27165Y50444D01*
Y51918D01*
X26878Y53363D01*
X26314Y54724D01*
X25495Y55950D01*
X24453Y56991D01*
X23228Y57810D01*
X21867Y58374D01*
X20422Y58662D01*
D02*
G37*
G36*
X248309Y44526D02*
X246813D01*
Y43029D01*
X247401Y43273D01*
X248066Y43938D01*
X248309Y44526D01*
D02*
G37*
G36*
X245313D02*
X243817D01*
X244060Y43938D01*
X244725Y43273D01*
X245313Y43029D01*
Y44526D01*
D02*
G37*
G36*
X242876Y41616D02*
Y40120D01*
X244372D01*
X244129Y40708D01*
X243464Y41373D01*
X242876Y41616D01*
D02*
G37*
G36*
X241376D02*
X240788Y41373D01*
X240123Y40708D01*
X239880Y40120D01*
X241376D01*
Y41616D01*
D02*
G37*
G36*
X141537Y41073D02*
Y38151D01*
X144458D01*
X144273Y38845D01*
X143780Y39698D01*
X143084Y40394D01*
X142231Y40887D01*
X141537Y41073D01*
D02*
G37*
G36*
X131537D02*
Y38151D01*
X134458D01*
X134273Y38845D01*
X133780Y39698D01*
X133084Y40394D01*
X132231Y40887D01*
X131537Y41073D01*
D02*
G37*
G36*
X140037Y41073D02*
X139344Y40887D01*
X138491Y40394D01*
X137794Y39698D01*
X137302Y38845D01*
X137116Y38151D01*
X140037D01*
Y41073D01*
D02*
G37*
G36*
X130037D02*
X129344Y40887D01*
X128491Y40394D01*
X127795Y39698D01*
X127302Y38845D01*
X127116Y38151D01*
X130037D01*
Y41073D01*
D02*
G37*
G36*
X244372Y38620D02*
X242876D01*
Y37124D01*
X243464Y37367D01*
X244129Y38032D01*
X244372Y38620D01*
D02*
G37*
G36*
X241376D02*
X239880D01*
X240123Y38032D01*
X240788Y37367D01*
X241376Y37124D01*
Y38620D01*
D02*
G37*
G36*
X144458Y36652D02*
X141537D01*
Y33730D01*
X142231Y33916D01*
X143084Y34409D01*
X143780Y35105D01*
X144273Y35958D01*
X144458Y36652D01*
D02*
G37*
G36*
X134458D02*
X131537D01*
Y33730D01*
X132231Y33916D01*
X133084Y34409D01*
X133780Y35105D01*
X134273Y35958D01*
X134458Y36652D01*
D02*
G37*
G36*
X140037D02*
X137116D01*
X137302Y35958D01*
X137794Y35105D01*
X138491Y34409D01*
X139344Y33916D01*
X140037Y33730D01*
Y36652D01*
D02*
G37*
G36*
X130037D02*
X127116D01*
X127302Y35958D01*
X127795Y35105D01*
X128491Y34409D01*
X129344Y33916D01*
X130037Y33730D01*
Y36652D01*
D02*
G37*
G36*
X221383Y41929D02*
X220191D01*
X219040Y41620D01*
X218007Y41024D01*
X217164Y40181D01*
X216568Y39149D01*
X216260Y37998D01*
Y36805D01*
X216568Y35654D01*
X217164Y34622D01*
X218007Y33779D01*
X219040Y33182D01*
X220191Y32874D01*
X221383D01*
X222535Y33182D01*
X223567Y33779D01*
X224410Y34622D01*
X225006Y35654D01*
X225315Y36805D01*
Y37998D01*
X225006Y39149D01*
X224410Y40181D01*
X223567Y41024D01*
X222535Y41620D01*
X221383Y41929D01*
D02*
G37*
G36*
X211383D02*
X210191D01*
X209040Y41620D01*
X208007Y41024D01*
X207164Y40181D01*
X206568Y39149D01*
X206260Y37998D01*
Y36805D01*
X206568Y35654D01*
X207164Y34622D01*
X208007Y33779D01*
X209040Y33182D01*
X210191Y32874D01*
X211383D01*
X212535Y33182D01*
X213567Y33779D01*
X214410Y34622D01*
X215006Y35654D01*
X215315Y36805D01*
Y37998D01*
X215006Y39149D01*
X214410Y40181D01*
X213567Y41024D01*
X212535Y41620D01*
X211383Y41929D01*
D02*
G37*
G36*
X201383D02*
X200191D01*
X199040Y41620D01*
X198007Y41024D01*
X197164Y40181D01*
X196568Y39149D01*
X196260Y37998D01*
Y36805D01*
X196568Y35654D01*
X197164Y34622D01*
X198007Y33779D01*
X199040Y33182D01*
X200191Y32874D01*
X201383D01*
X202535Y33182D01*
X203567Y33779D01*
X204410Y34622D01*
X205006Y35654D01*
X205315Y36805D01*
Y37998D01*
X205006Y39149D01*
X204410Y40181D01*
X203567Y41024D01*
X202535Y41620D01*
X201383Y41929D01*
D02*
G37*
G36*
X191383D02*
X190191D01*
X189040Y41620D01*
X188007Y41024D01*
X187164Y40181D01*
X186568Y39149D01*
X186260Y37998D01*
Y36805D01*
X186568Y35654D01*
X187164Y34622D01*
X188007Y33779D01*
X189040Y33182D01*
X190191Y32874D01*
X191383D01*
X192535Y33182D01*
X193567Y33779D01*
X194410Y34622D01*
X195006Y35654D01*
X195315Y36805D01*
Y37998D01*
X195006Y39149D01*
X194410Y40181D01*
X193567Y41024D01*
X192535Y41620D01*
X191383Y41929D01*
D02*
G37*
G36*
X181383D02*
X180191D01*
X179040Y41620D01*
X178007Y41024D01*
X177164Y40181D01*
X176568Y39149D01*
X176260Y37998D01*
Y36805D01*
X176568Y35654D01*
X177164Y34622D01*
X178007Y33779D01*
X179040Y33182D01*
X180191Y32874D01*
X181383D01*
X182535Y33182D01*
X183567Y33779D01*
X184410Y34622D01*
X185006Y35654D01*
X185315Y36805D01*
Y37998D01*
X185006Y39149D01*
X184410Y40181D01*
X183567Y41024D01*
X182535Y41620D01*
X181383Y41929D01*
D02*
G37*
G36*
X175315D02*
X166260D01*
Y32874D01*
X175315D01*
Y41929D01*
D02*
G37*
G36*
X155315D02*
X146260D01*
Y32874D01*
X155315D01*
Y41929D01*
D02*
G37*
G36*
X121383D02*
X120191D01*
X119040Y41620D01*
X118007Y41024D01*
X117164Y40181D01*
X116568Y39149D01*
X116260Y37998D01*
Y36805D01*
X116568Y35654D01*
X117164Y34622D01*
X118007Y33779D01*
X119040Y33182D01*
X120191Y32874D01*
X121383D01*
X122535Y33182D01*
X123567Y33779D01*
X124410Y34622D01*
X125006Y35654D01*
X125315Y36805D01*
Y37998D01*
X125006Y39149D01*
X124410Y40181D01*
X123567Y41024D01*
X122535Y41620D01*
X121383Y41929D01*
D02*
G37*
G36*
X111383D02*
X110191D01*
X109040Y41620D01*
X108007Y41024D01*
X107164Y40181D01*
X106568Y39149D01*
X106260Y37998D01*
Y36805D01*
X106568Y35654D01*
X107164Y34622D01*
X108007Y33779D01*
X109040Y33182D01*
X110191Y32874D01*
X111383D01*
X112535Y33182D01*
X113567Y33779D01*
X114410Y34622D01*
X115006Y35654D01*
X115315Y36805D01*
Y37998D01*
X115006Y39149D01*
X114410Y40181D01*
X113567Y41024D01*
X112535Y41620D01*
X111383Y41929D01*
D02*
G37*
G36*
X101383D02*
X100191D01*
X99040Y41620D01*
X98007Y41024D01*
X97164Y40181D01*
X96568Y39149D01*
X96260Y37998D01*
Y36805D01*
X96568Y35654D01*
X97164Y34622D01*
X98007Y33779D01*
X99040Y33182D01*
X100191Y32874D01*
X101383D01*
X102535Y33182D01*
X103567Y33779D01*
X104410Y34622D01*
X105006Y35654D01*
X105315Y36805D01*
Y37998D01*
X105006Y39149D01*
X104410Y40181D01*
X103567Y41024D01*
X102535Y41620D01*
X101383Y41929D01*
D02*
G37*
G36*
X91383D02*
X90191D01*
X89040Y41620D01*
X88007Y41024D01*
X87164Y40181D01*
X86568Y39149D01*
X86260Y37998D01*
Y36805D01*
X86568Y35654D01*
X87164Y34622D01*
X88007Y33779D01*
X89040Y33182D01*
X90191Y32874D01*
X91383D01*
X92535Y33182D01*
X93567Y33779D01*
X94410Y34622D01*
X95006Y35654D01*
X95315Y36805D01*
Y37998D01*
X95006Y39149D01*
X94410Y40181D01*
X93567Y41024D01*
X92535Y41620D01*
X91383Y41929D01*
D02*
G37*
G36*
X81383D02*
X80191D01*
X79040Y41620D01*
X78007Y41024D01*
X77164Y40181D01*
X76568Y39149D01*
X76260Y37998D01*
Y36805D01*
X76568Y35654D01*
X77164Y34622D01*
X78007Y33779D01*
X79040Y33182D01*
X80191Y32874D01*
X81383D01*
X82535Y33182D01*
X83567Y33779D01*
X84410Y34622D01*
X85006Y35654D01*
X85315Y36805D01*
Y37998D01*
X85006Y39149D01*
X84410Y40181D01*
X83567Y41024D01*
X82535Y41620D01*
X81383Y41929D01*
D02*
G37*
G36*
X164136Y21931D02*
Y20435D01*
X165632D01*
X165388Y21023D01*
X164724Y21688D01*
X164136Y21931D01*
D02*
G37*
G36*
X162636D02*
X162048Y21688D01*
X161383Y21023D01*
X161140Y20435D01*
X162636D01*
Y21931D01*
D02*
G37*
G36*
X128703D02*
Y20435D01*
X130199D01*
X129955Y21023D01*
X129291Y21688D01*
X128703Y21931D01*
D02*
G37*
G36*
X127203D02*
X126615Y21688D01*
X125950Y21023D01*
X125707Y20435D01*
X127203D01*
Y21931D01*
D02*
G37*
G36*
X122797D02*
Y20435D01*
X124293D01*
X124050Y21023D01*
X123385Y21688D01*
X122797Y21931D01*
D02*
G37*
G36*
X121297D02*
X120709Y21688D01*
X120045Y21023D01*
X119801Y20435D01*
X121297D01*
Y21931D01*
D02*
G37*
G36*
X116892D02*
Y20435D01*
X118388D01*
X118144Y21023D01*
X117480Y21688D01*
X116892Y21931D01*
D02*
G37*
G36*
X115392D02*
X114804Y21688D01*
X114139Y21023D01*
X113896Y20435D01*
X115392D01*
Y21931D01*
D02*
G37*
G36*
X110986D02*
Y20435D01*
X112482D01*
X112239Y21023D01*
X111574Y21688D01*
X110986Y21931D01*
D02*
G37*
G36*
X109486D02*
X108898Y21688D01*
X108234Y21023D01*
X107990Y20435D01*
X109486D01*
Y21931D01*
D02*
G37*
G36*
X105081D02*
Y20435D01*
X106577D01*
X106333Y21023D01*
X105669Y21688D01*
X105081Y21931D01*
D02*
G37*
G36*
X103581D02*
X102993Y21688D01*
X102328Y21023D01*
X102085Y20435D01*
X103581D01*
Y21931D01*
D02*
G37*
G36*
X88152Y21538D02*
Y20041D01*
X89648D01*
X89404Y20629D01*
X88740Y21294D01*
X88152Y21538D01*
D02*
G37*
G36*
X86652D02*
X86063Y21294D01*
X85399Y20629D01*
X85155Y20041D01*
X86652D01*
Y21538D01*
D02*
G37*
G36*
X165632Y18935D02*
X164136D01*
Y17439D01*
X164724Y17683D01*
X165388Y18347D01*
X165632Y18935D01*
D02*
G37*
G36*
X162636D02*
X161140D01*
X161383Y18347D01*
X162048Y17683D01*
X162636Y17439D01*
Y18935D01*
D02*
G37*
G36*
X130199D02*
X128703D01*
Y17439D01*
X129291Y17683D01*
X129955Y18347D01*
X130199Y18935D01*
D02*
G37*
G36*
X127203D02*
X125707D01*
X125950Y18347D01*
X126615Y17683D01*
X127203Y17439D01*
Y18935D01*
D02*
G37*
G36*
X124293D02*
X122797D01*
Y17439D01*
X123385Y17683D01*
X124050Y18347D01*
X124293Y18935D01*
D02*
G37*
G36*
X121297D02*
X119801D01*
X120045Y18347D01*
X120709Y17683D01*
X121297Y17439D01*
Y18935D01*
D02*
G37*
G36*
X118388D02*
X116892D01*
Y17439D01*
X117480Y17683D01*
X118144Y18347D01*
X118388Y18935D01*
D02*
G37*
G36*
X115392D02*
X113896D01*
X114139Y18347D01*
X114804Y17683D01*
X115392Y17439D01*
Y18935D01*
D02*
G37*
G36*
X112482D02*
X110986D01*
Y17439D01*
X111574Y17683D01*
X112239Y18347D01*
X112482Y18935D01*
D02*
G37*
G36*
X109486D02*
X107990D01*
X108234Y18347D01*
X108898Y17683D01*
X109486Y17439D01*
Y18935D01*
D02*
G37*
G36*
X106577D02*
X105081D01*
Y17439D01*
X105669Y17683D01*
X106333Y18347D01*
X106577Y18935D01*
D02*
G37*
G36*
X103581D02*
X102085D01*
X102328Y18347D01*
X102993Y17683D01*
X103581Y17439D01*
Y18935D01*
D02*
G37*
G36*
X89648Y18541D02*
X88152D01*
Y17045D01*
X88740Y17289D01*
X89404Y17953D01*
X89648Y18541D01*
D02*
G37*
G36*
X86652D02*
X85155D01*
X85399Y17953D01*
X86063Y17289D01*
X86652Y17045D01*
Y18541D01*
D02*
G37*
G36*
X225160Y14057D02*
Y12561D01*
X226656D01*
X226412Y13149D01*
X225747Y13814D01*
X225160Y14057D01*
D02*
G37*
G36*
X223659D02*
X223071Y13814D01*
X222407Y13149D01*
X222163Y12561D01*
X223659D01*
Y14057D01*
D02*
G37*
G36*
X219254D02*
Y12561D01*
X220750D01*
X220507Y13149D01*
X219842Y13814D01*
X219254Y14057D01*
D02*
G37*
G36*
X217754D02*
X217166Y13814D01*
X216501Y13149D01*
X216258Y12561D01*
X217754D01*
Y14057D01*
D02*
G37*
G36*
X213348D02*
Y12561D01*
X214845D01*
X214601Y13149D01*
X213936Y13814D01*
X213348Y14057D01*
D02*
G37*
G36*
X211848D02*
X211260Y13814D01*
X210596Y13149D01*
X210352Y12561D01*
X211848D01*
Y14057D01*
D02*
G37*
G36*
X207443D02*
Y12561D01*
X208939D01*
X208696Y13149D01*
X208031Y13814D01*
X207443Y14057D01*
D02*
G37*
G36*
X205943D02*
X205355Y13814D01*
X204690Y13149D01*
X204447Y12561D01*
X205943D01*
Y14057D01*
D02*
G37*
G36*
X201537D02*
Y12561D01*
X203034D01*
X202790Y13149D01*
X202126Y13814D01*
X201537Y14057D01*
D02*
G37*
G36*
X200037D02*
X199449Y13814D01*
X198785Y13149D01*
X198541Y12561D01*
X200037D01*
Y14057D01*
D02*
G37*
G36*
X226656Y11061D02*
X225160D01*
Y9565D01*
X225747Y9808D01*
X226412Y10473D01*
X226656Y11061D01*
D02*
G37*
G36*
X223659D02*
X222163D01*
X222407Y10473D01*
X223071Y9808D01*
X223659Y9565D01*
Y11061D01*
D02*
G37*
G36*
X220750D02*
X219254D01*
Y9565D01*
X219842Y9808D01*
X220507Y10473D01*
X220750Y11061D01*
D02*
G37*
G36*
X217754D02*
X216258D01*
X216501Y10473D01*
X217166Y9808D01*
X217754Y9565D01*
Y11061D01*
D02*
G37*
G36*
X214845D02*
X213348D01*
Y9565D01*
X213936Y9808D01*
X214601Y10473D01*
X214845Y11061D01*
D02*
G37*
G36*
X211848D02*
X210352D01*
X210596Y10473D01*
X211260Y9808D01*
X211848Y9565D01*
Y11061D01*
D02*
G37*
G36*
X208939D02*
X207443D01*
Y9565D01*
X208031Y9808D01*
X208696Y10473D01*
X208939Y11061D01*
D02*
G37*
G36*
X205943D02*
X204447D01*
X204690Y10473D01*
X205355Y9808D01*
X205943Y9565D01*
Y11061D01*
D02*
G37*
G36*
X203034D02*
X201537D01*
Y9565D01*
X202126Y9808D01*
X202790Y10473D01*
X203034Y11061D01*
D02*
G37*
G36*
X200037D02*
X198541D01*
X198785Y10473D01*
X199449Y9808D01*
X200037Y9565D01*
Y11061D01*
D02*
G37*
G36*
X247282Y14549D02*
X246079Y14310D01*
X244861Y13805D01*
X243765Y13073D01*
X242833Y12140D01*
X242100Y11044D01*
X241596Y9826D01*
X241357Y8624D01*
X247282D01*
Y14549D01*
D02*
G37*
G36*
X8624D02*
Y8624D01*
X14549D01*
X14310Y9826D01*
X13805Y11044D01*
X13073Y12140D01*
X12140Y13073D01*
X11044Y13805D01*
X9826Y14310D01*
X8624Y14549D01*
D02*
G37*
%LPD*%
D49*
X140018Y71653D02*
X140551D01*
X139034Y72638D02*
X140018Y71653D01*
X136614Y72638D02*
X139034D01*
X135433Y71457D02*
X136614Y72638D01*
X126575Y71457D02*
X135433D01*
X126378Y71260D02*
X126575Y71457D01*
X119812Y98032D02*
X133858D01*
X119419Y97638D02*
X119812Y98032D01*
X105905Y97638D02*
X119419D01*
X99606Y103937D02*
X105905Y97638D01*
X143605Y236125D02*
X182221D01*
X190787Y227559D01*
X140551Y233071D02*
X143605Y236125D01*
X140551Y223228D02*
Y233071D01*
X135827Y218504D02*
X140551Y223228D01*
X135827Y201181D02*
Y218504D01*
D52*
X220787Y37402D02*
D03*
X210787D02*
D03*
X200787D02*
D03*
X190787D02*
D03*
X180787D02*
D03*
X120866Y227559D02*
D03*
X100866D02*
D03*
X90866D02*
D03*
X80866D02*
D03*
X70866D02*
D03*
X60866D02*
D03*
X50866D02*
D03*
X40866D02*
D03*
X110866D02*
D03*
X140787Y37402D02*
D03*
X130787D02*
D03*
X120787D02*
D03*
X110787D02*
D03*
X100787D02*
D03*
X90787D02*
D03*
X80787D02*
D03*
X210787Y227559D02*
D03*
X200787D02*
D03*
X190787D02*
D03*
X180787D02*
D03*
X170787D02*
D03*
X160787D02*
D03*
X150787D02*
D03*
D53*
X170787Y37402D02*
D03*
X130866Y227559D02*
D03*
X150787Y37402D02*
D03*
X220787Y227559D02*
D03*
D54*
X153976Y212480D02*
D03*
X163976D02*
D03*
X173976D02*
D03*
X183976D02*
D03*
X193976D02*
D03*
X203976D02*
D03*
X213976D02*
D03*
X223976D02*
D03*
Y181220D02*
D03*
X213976D02*
D03*
X203976D02*
D03*
X193976D02*
D03*
X183976D02*
D03*
X173976D02*
D03*
X163976D02*
D03*
X54803Y212598D02*
D03*
X64803D02*
D03*
X74803D02*
D03*
X84803D02*
D03*
X94803D02*
D03*
X104803D02*
D03*
X114803D02*
D03*
X124803D02*
D03*
Y181339D02*
D03*
X114803D02*
D03*
X104803D02*
D03*
X94803D02*
D03*
X84803D02*
D03*
X74803D02*
D03*
X64803D02*
D03*
D55*
X153976Y181220D02*
D03*
X54803Y181339D02*
D03*
D56*
X248031Y7874D02*
D03*
X246063Y234252D02*
D03*
X7874Y7874D02*
D03*
Y236221D02*
D03*
X19685Y98425D02*
D03*
X19685Y51181D02*
D03*
X19685Y66929D02*
D03*
Y82677D02*
D03*
D57*
X230315Y62992D02*
D03*
X227559Y116535D02*
D03*
D58*
X212598Y135827D02*
D03*
X206693Y131890D02*
D03*
Y124016D02*
D03*
X94488Y72835D02*
D03*
Y80709D02*
D03*
X39370Y102362D02*
D03*
Y110236D02*
D03*
X116142Y104331D02*
D03*
X108268D02*
D03*
X116142Y88583D02*
D03*
Y80709D02*
D03*
X118110Y47244D02*
D03*
Y55118D02*
D03*
X127953Y19685D02*
D03*
X122047D02*
D03*
X116142D02*
D03*
X110236D02*
D03*
X104331D02*
D03*
X204724Y51181D02*
D03*
X210630Y47244D02*
D03*
X153543Y98425D02*
D03*
X141732Y110236D02*
D03*
X139764Y98425D02*
D03*
X242126Y39370D02*
D03*
X222441Y82677D02*
D03*
X246063Y45276D02*
D03*
X250000Y53150D02*
D03*
Y62992D02*
D03*
X248031Y72835D02*
D03*
X244094Y82677D02*
D03*
X224410Y11811D02*
D03*
X218504D02*
D03*
X212598D02*
D03*
X206693D02*
D03*
X200787D02*
D03*
X163386Y19685D02*
D03*
X125984Y49213D02*
D03*
X139764Y104331D02*
D03*
X80709Y55118D02*
D03*
X102362Y120079D02*
D03*
X106299Y137795D02*
D03*
X179134Y173228D02*
D03*
X224410Y169291D02*
D03*
X17717Y122047D02*
D03*
Y114173D02*
D03*
X25591D02*
D03*
Y122047D02*
D03*
X70866Y200787D02*
D03*
Y192913D02*
D03*
X78740D02*
D03*
Y200787D02*
D03*
X104331Y196850D02*
D03*
Y188976D02*
D03*
X112205D02*
D03*
Y196850D02*
D03*
X238189Y200787D02*
D03*
Y192913D02*
D03*
X246063D02*
D03*
Y200787D02*
D03*
X135827Y177165D02*
D03*
X143701Y185039D02*
D03*
X80709Y131890D02*
D03*
Y124016D02*
D03*
X88583D02*
D03*
Y131890D02*
D03*
X122047Y163386D02*
D03*
X116142Y155512D02*
D03*
X129921Y163386D02*
D03*
X192913Y145669D02*
D03*
Y137795D02*
D03*
Y129921D02*
D03*
Y122047D02*
D03*
X104331Y47244D02*
D03*
X112205Y55118D02*
D03*
X88583D02*
D03*
Y47244D02*
D03*
X96457D02*
D03*
Y55118D02*
D03*
X39370Y133858D02*
D03*
Y125984D02*
D03*
Y118110D02*
D03*
X110236Y72835D02*
D03*
X102362D02*
D03*
X110236Y64961D02*
D03*
X102362D02*
D03*
X94488Y88583D02*
D03*
X102362D02*
D03*
Y80709D02*
D03*
X110236D02*
D03*
Y88583D02*
D03*
X145276Y196063D02*
D03*
X159449Y72835D02*
D03*
X140551Y71653D02*
D03*
X126378Y71260D02*
D03*
X153150Y135039D02*
D03*
X152756Y129134D02*
D03*
X122441Y63386D02*
D03*
X142913Y55512D02*
D03*
X162205Y68504D02*
D03*
X203543Y65354D02*
D03*
X183071Y87795D02*
D03*
X176772Y115748D02*
D03*
X182677Y111811D02*
D03*
X216535Y173228D02*
D03*
X174803Y133071D02*
D03*
X34252Y167717D02*
D03*
X5118Y203150D02*
D03*
X120866Y173622D02*
D03*
X101575Y144882D02*
D03*
X58661Y159449D02*
D03*
X64567Y159843D02*
D03*
X87402Y19291D02*
D03*
X133858Y98032D02*
D03*
X135827Y201181D02*
D03*
X99606Y103937D02*
D03*
M02*
