M48
;Layer_Color=9474304
;FILE_FORMAT=2:5
INCH,LZ
;TYPE=PLATED
T1F00S00C0.01575
T2F00S00C0.02874
T3F00S00C0.03543
T4F00S00C0.07874
T5F00S00C0.19685
%
T01
X0242126Y003937
X0246063Y0045276
X025Y005315
Y0062992
X0248031Y0072835
X0244094Y0082677
X0222441
X0203543Y0065354
X0204724Y0051181
X021063Y0047244
X0212598Y0011811
X0218504
X022441
X0206693
X0200787
X0163386Y0019685
X0127953
X0122047
X0116142
X0110236
X0104331
X0087402Y0019291
X0088583Y0047244
Y0055118
X0096457
Y0047244
X0104331
X011811Y0047244
Y0055118
X0112205Y0055118
X0110236Y0064961
Y0072835
Y0080709
X0116142
Y0088583
X0110236
X0102362
X0094488
Y0080709
Y0072835
X0102362
Y0080709
Y0064961
X0122441Y0063386
X0126378Y007126
X0140551Y0071653
X0142913Y0055512
X0125984Y0049213
X0080709Y0055118
X0162205Y0068504
X0159449Y0072835
X0153543Y0098425
X0139764
X0133858Y0098032
X0183071Y0087795
X003937Y0102362
Y0110236
Y011811
Y0125984
Y0133858
X0025591Y0122047
X0017717
Y0114173
X0025591
X0034252Y0167717
X0058661Y0159449
X0064567Y0159843
X0005118Y020315
X0070866Y0200787
Y0192913
X007874
Y0200787
X0104331Y019685
Y0188976
X0112205
Y019685
X0135827Y0201181
X0145276Y0196063
X0143701Y0185039
X0135827Y0177165
X0120866Y0173622
X0122047Y0163386
X0129921
X0116142Y0155512
X0101575Y0144882
X0106299Y0137795
X0102362Y0120079
X0088583Y0124016
X0080709
Y013189
X0088583
X0099606Y0103937
X0108268Y0104331
X0116142
X0139764
X0141732Y0110236
X0152756Y0129134
X015315Y0135039
X0174803Y0133071
X0176772Y0115748
X0182677Y0111811
X0192913Y0122047
Y0129921
Y0137795
Y0145669
X0206693Y013189
Y0124016
X0212598Y0135827
X0216535Y0173228
X022441Y0169291
X0179134Y0173228
X0238189Y0192913
Y0200787
X0246063
Y0192913
T02
X0054803Y0181339
X0064803
Y0212598
X0054803
X0074803
X0084803
X0094803
X0104803
X0114803
X0124803
X0153976Y021248
X0163976
X0173976
X0183976
X0193976
X0203976
X0213976
X0223976
Y018122
X0213976
X0203976
X0193976
X0183976
X0173976
X0163976
X0153976
X0124803Y0181339
X0114803
X0104803
X0094803
X0084803
X0074803
T03
X0080787Y0037402
X0090787
X0100787
X0110787
X0120787
X0130787
X0140787
X0150787
X0170787
X0180787
X0190787
X0200787
X0210787
X0220787
X0060866Y0227559
X0050866
X0040866
X0070866
X0080866
X0090866
X0100866
X0110866
X0120866
X0130866
X0150787
X0160787
X0170787
X0180787
X0190787
X0200787
X0210787
X0220787
T04
X0248031Y0007874
X0007874
X0019685Y0051181
X0019685Y0066929
Y0082677
Y0098425
X0007874Y0236221
X0246063Y0234252
T05
X0230315Y0062992
X0227559Y0116535
M30
